<svg width="132" height="200" viewBox="0 0 132 200" fill="none" xmlns="http://www.w3.org/2000/svg">
<mask id="path-1-inside-1" fill="white">
<path d="M121.605 144.962C115.447 144.962 111.794 141.81 111.514 137.271H117.403C117.403 138.784 118.242 140.798 121.885 140.923C124.41 140.923 125.808 139.41 125.808 138.273C125.528 136.509 123.283 136.384 121.046 135.998C118.521 135.632 116.565 135.121 115.157 134.495C113.201 133.483 112.073 131.333 112.073 129.068C112.073 125.03 115.447 121.878 121.326 121.878C126.935 121.878 130.579 124.779 130.849 129.194H125.249C125.249 128.066 124.969 126.167 121.605 126.167C119.36 126.167 117.962 126.543 117.683 128.182C117.683 130.456 122.444 130.331 126.087 131.208C129.451 132.095 131.697 134.235 131.697 137.271C131.697 142.822 127.215 144.962 121.605 144.962"/>
</mask>
<path d="M121.605 144.962C115.447 144.962 111.794 141.81 111.514 137.271H117.403C117.403 138.784 118.242 140.798 121.885 140.923C124.41 140.923 125.808 139.41 125.808 138.273C125.528 136.509 123.283 136.384 121.046 135.998C118.521 135.632 116.565 135.121 115.157 134.495C113.201 133.483 112.073 131.333 112.073 129.068C112.073 125.03 115.447 121.878 121.326 121.878C126.935 121.878 130.579 124.779 130.849 129.194H125.249C125.249 128.066 124.969 126.167 121.605 126.167C119.36 126.167 117.962 126.543 117.683 128.182C117.683 130.456 122.444 130.331 126.087 131.208C129.451 132.095 131.697 134.235 131.697 137.271C131.697 142.822 127.215 144.962 121.605 144.962" fill="black"/>
<path d="M111.514 137.271L89.6008 138.62L88.166 115.316H111.514V137.271ZM117.403 137.271V115.316H139.358V137.271H117.403ZM121.885 140.923V162.878H121.508L121.13 162.865L121.885 140.923ZM125.808 138.273L147.492 134.837L147.763 136.544V138.273H125.808ZM121.046 135.998L124.198 114.271L124.488 114.313L124.777 114.363L121.046 135.998ZM115.157 134.495L106.228 154.552L105.641 154.29L105.071 153.995L115.157 134.495ZM130.849 129.194L152.762 127.854L154.187 151.149H130.849V129.194ZM125.249 129.194V151.149H103.294V129.194H125.249ZM117.683 128.182H95.7278V126.322L96.0405 124.49L117.683 128.182ZM126.087 131.208L131.226 109.863L131.455 109.918L131.684 109.978L126.087 131.208ZM121.605 166.917C114.923 166.917 107.278 165.2 100.757 160.055C93.9057 154.65 90.1066 146.834 89.6008 138.62L133.427 135.921C133.201 132.247 131.368 128.276 127.953 125.582C124.868 123.148 122.129 123.007 121.605 123.007V166.917ZM111.514 115.316H117.403V159.225H111.514V115.316ZM139.358 137.271C139.358 134.221 138.504 129.086 134.285 124.591C129.879 119.898 124.784 119.055 122.64 118.982L121.13 162.865C115.343 162.666 108.006 160.754 102.271 154.644C96.7212 148.732 95.4483 141.833 95.4483 137.271H139.358ZM121.885 118.969C118.709 118.969 114.812 119.957 111.262 122.735C108.266 125.08 103.853 130.234 103.853 138.273H147.763C147.763 147.449 142.651 153.928 138.324 157.314C133.445 161.133 127.586 162.878 121.885 162.878V118.969ZM104.123 141.709C104.833 146.183 107.047 150.26 110.28 153.278C113.099 155.909 115.894 156.994 117.047 157.389C118.243 157.799 119.079 157.924 118.875 157.888C118.827 157.88 118.737 157.865 118.442 157.818C118.208 157.781 117.771 157.712 117.316 157.634L124.777 114.363C124.881 114.381 125.003 114.4 125.321 114.451C125.578 114.491 126.032 114.563 126.514 114.648C127.369 114.799 129.203 115.139 131.275 115.848C133.303 116.543 136.852 118.015 140.241 121.178C144.043 124.727 146.643 129.481 147.492 134.837L104.123 141.709ZM117.895 157.726C114.353 157.212 110.2 156.32 106.228 154.552L124.087 114.438C123.732 114.28 123.468 114.185 123.324 114.136C123.177 114.087 123.111 114.071 123.143 114.079C123.173 114.087 123.274 114.112 123.456 114.147C123.638 114.182 123.883 114.225 124.198 114.271L117.895 157.726ZM105.071 153.995C94.6668 148.614 90.1183 138.151 90.1183 129.068H134.028C134.028 124.516 131.735 118.351 125.244 114.994L105.071 153.995ZM90.1183 129.068C90.1183 120.491 93.8964 112.451 100.583 106.974C106.975 101.739 114.598 99.9234 121.326 99.9234V143.833C122.175 143.833 125.171 143.594 128.407 140.943C131.937 138.052 134.028 133.608 134.028 129.068H90.1183ZM121.326 99.9234C127.762 99.9234 135.175 101.589 141.549 106.535C148.281 111.759 152.25 119.469 152.762 127.854L108.935 130.533C109.177 134.504 111.189 138.556 114.63 141.226C117.713 143.618 120.499 143.833 121.326 143.833V99.9234ZM130.849 151.149H125.249V107.239H130.849V151.149ZM103.294 129.194C103.294 129.803 103.17 135.48 107.515 140.936C112.6 147.32 119.25 148.122 121.605 148.122V104.212C127.325 104.212 135.796 105.964 141.862 113.579C147.188 120.266 147.204 127.457 147.204 129.194H103.294ZM121.605 148.122C121.622 148.122 121.753 148.122 121.968 148.111C122.182 148.099 122.545 148.073 123.018 148.009C123.866 147.895 125.694 147.58 127.904 146.587C130.281 145.519 133.106 143.657 135.466 140.605C137.819 137.562 138.896 134.387 139.325 131.874L96.0405 124.49C97.4074 116.477 102.555 109.838 109.909 106.534C115.128 104.189 120.101 104.212 121.605 104.212V148.122ZM139.637 128.182C139.637 124.382 138.57 120.529 136.422 117.15C134.409 113.984 131.981 112.062 130.311 110.994C128.666 109.942 127.271 109.406 126.585 109.168C125.854 108.914 125.348 108.802 125.243 108.778C125.2 108.769 125.276 108.786 126.567 108.984C127.472 109.123 129.304 109.4 131.226 109.863L120.949 152.553C121.049 152.577 120.919 152.541 119.907 152.386C119.28 152.29 117.483 152.032 115.794 151.659C114.43 151.359 110.561 150.484 106.656 147.987C101.789 144.875 95.7278 138.289 95.7278 128.182H139.637ZM131.684 109.978C140.596 112.328 153.652 120.584 153.652 137.271H109.742C109.742 141.641 111.527 145.727 114.297 148.619C116.77 151.2 119.294 152.122 120.491 152.438L131.684 109.978ZM153.652 137.271C153.652 146.972 149.207 155.884 141.033 161.399C134.143 166.047 126.645 166.917 121.605 166.917V123.007C122.175 123.007 119.723 122.807 116.476 124.998C114.634 126.241 112.748 128.139 111.41 130.724C110.088 133.28 109.742 135.65 109.742 137.271H153.652Z" fill="black" mask="url(#path-1-inside-1)"/>
<mask id="path-3-inside-2" fill="white">
<path d="M5.32033 133.396C5.32033 136.923 8.40459 139.824 11.7587 139.824C15.4116 139.824 18.2067 136.923 18.2067 133.396C18.2067 129.993 15.4116 126.967 11.7587 126.967C8.40459 126.967 5.32033 129.993 5.32033 133.396V133.396ZM11.4792 145C5.32033 145 0 139.824 0 133.396C0 126.967 5.32033 121.916 11.4792 121.916C14.0044 121.916 16.2502 122.552 18.2067 123.931V122.167H23.8162V144.489H18.2067V143.101C16.5297 144.364 14.0044 145 11.4792 145"/>
</mask>
<path d="M5.32033 133.396C5.32033 136.923 8.40459 139.824 11.7587 139.824C15.4116 139.824 18.2067 136.923 18.2067 133.396C18.2067 129.993 15.4116 126.967 11.7587 126.967C8.40459 126.967 5.32033 129.993 5.32033 133.396V133.396ZM11.4792 145C5.32033 145 0 139.824 0 133.396C0 126.967 5.32033 121.916 11.4792 121.916C14.0044 121.916 16.2502 122.552 18.2067 123.931V122.167H23.8162V144.489H18.2067V143.101C16.5297 144.364 14.0044 145 11.4792 145" fill="black"/>
<path d="M18.2067 123.931H40.1616V166.252L5.5631 141.879L18.2067 123.931ZM18.2067 122.167H-3.74811V100.212H18.2067V122.167ZM23.8162 122.167V100.212H45.771V122.167H23.8162ZM23.8162 144.489H45.771V166.444H23.8162V144.489ZM18.2067 144.489V166.444H-3.74811V144.489H18.2067ZM18.2067 143.101L5.00159 125.562L40.1616 99.0906V143.101H18.2067ZM27.2752 133.396C27.2752 128.62 25.1917 124.744 22.6466 122.25C20.1594 119.814 16.3969 117.869 11.7587 117.869V161.779C-3.29529 161.779 -16.6345 149.47 -16.6345 133.396H27.2752ZM11.7587 117.869C3.0934 117.869 -3.74811 124.992 -3.74811 133.396H40.1616C40.1616 148.855 27.7298 161.779 11.7587 161.779V117.869ZM-3.74811 133.396C-3.74811 141.646 2.81952 148.922 11.7587 148.922V105.012C28.0037 105.012 40.1616 118.34 40.1616 133.396H-3.74811ZM11.7587 148.922C16.6723 148.922 20.4291 146.79 22.7508 144.485C25.0887 142.163 27.2752 138.367 27.2752 133.396H-16.6345C-16.6345 117.721 -3.5733 105.012 11.7587 105.012V148.922ZM11.4792 166.955C-6.78121 166.955 -21.9548 151.973 -21.9548 133.396H21.9548C21.9548 127.675 17.4219 123.045 11.4792 123.045V166.955ZM-21.9548 133.396C-21.9548 114.508 -6.46843 99.9615 11.4792 99.9615V143.871C17.1091 143.871 21.9548 139.426 21.9548 133.396H-21.9548ZM11.4792 99.9615C17.9097 99.9615 24.7154 101.66 30.8503 105.982L5.5631 141.879C6.56141 142.583 7.68429 143.122 8.8368 143.462C9.96294 143.795 10.8886 143.871 11.4792 143.871V99.9615ZM-3.74811 123.931V122.167H40.1616V123.931H-3.74811ZM18.2067 100.212H23.8162V144.122H18.2067V100.212ZM45.771 122.167V144.489H1.86137V122.167H45.771ZM23.8162 166.444H18.2067V122.534H23.8162V166.444ZM-3.74811 144.489V143.101H40.1616V144.489H-3.74811ZM31.4119 160.641C24.6791 165.71 16.9225 166.955 11.4792 166.955V123.045C10.9628 123.045 10.2604 123.103 9.36006 123.35C8.52784 123.578 6.88477 124.144 5.00159 125.562L31.4119 160.641Z" fill="black" mask="url(#path-3-inside-2)"/>
<path d="M86.5 114.5L59.5 67.501L79 56L113 114.5H86.5Z" fill="black"/>
<mask id="path-6-inside-3" fill="white">
<path d="M31.1026 133.396C31.1026 136.923 33.9073 139.824 37.5506 139.824C40.9047 139.824 43.9986 136.923 43.9986 133.396C43.9986 129.993 40.9047 126.967 37.5506 126.967C33.9073 126.967 31.1026 129.993 31.1026 133.396ZM37.2711 145C30.823 145 25.7822 139.824 25.7822 133.396C25.7822 126.967 30.823 121.916 37.2711 121.916C39.7867 121.916 42.0324 122.552 43.9986 123.931V114.476H49.5984V144.489H43.9986V143.101C42.0324 144.364 39.7867 145 37.2711 145"/>
</mask>
<path d="M31.1026 133.396C31.1026 136.923 33.9073 139.824 37.5506 139.824C40.9047 139.824 43.9986 136.923 43.9986 133.396C43.9986 129.993 40.9047 126.967 37.5506 126.967C33.9073 126.967 31.1026 129.993 31.1026 133.396ZM37.2711 145C30.823 145 25.7822 139.824 25.7822 133.396C25.7822 126.967 30.823 121.916 37.2711 121.916C39.7867 121.916 42.0324 122.552 43.9986 123.931V114.476H49.5984V144.489H43.9986V143.101C42.0324 144.364 39.7867 145 37.2711 145" fill="black"/>
<path d="M43.9986 123.931H65.9534V166.132L31.3965 141.909L43.9986 123.931ZM43.9986 114.476H22.0438V92.5207H43.9986V114.476ZM49.5984 114.476V92.5207H71.5533V114.476H49.5984ZM49.5984 144.489H71.5533V166.444H49.5984V144.489ZM43.9986 144.489V166.444H22.0438V144.489H43.9986ZM43.9986 143.101L32.1355 124.627L65.9534 102.911V143.101H43.9986ZM53.0574 133.396C53.0574 124.97 46.204 117.869 37.5506 117.869V161.779C21.6106 161.779 9.14773 148.876 9.14773 133.396H53.0574ZM37.5506 117.869C32.918 117.869 29.1646 119.809 26.6834 122.235C24.1429 124.719 22.0438 128.597 22.0438 133.396H65.9534C65.9534 149.511 52.5623 161.779 37.5506 161.779V117.869ZM22.0438 133.396C22.0438 138.389 24.2462 142.189 26.579 144.5C28.8949 146.795 32.6429 148.922 37.5506 148.922V105.012C52.8405 105.012 65.9534 117.679 65.9534 133.396H22.0438ZM37.5506 148.922C46.4781 148.922 53.0574 141.668 53.0574 133.396H9.14773C9.14773 118.318 21.3365 105.012 37.5506 105.012V148.922ZM37.2711 166.955C18.3875 166.955 3.82739 151.637 3.82739 133.396H47.7371C47.7371 128.012 43.2586 123.045 37.2711 123.045V166.955ZM3.82739 133.396C3.82739 114.841 18.6977 99.9615 37.2711 99.9615V143.871C42.9484 143.871 47.7371 139.092 47.7371 133.396H3.82739ZM37.2711 99.9615C43.7123 99.9615 50.4911 101.67 56.6007 105.953L31.3965 141.909C32.373 142.593 33.4779 143.124 34.6214 143.462C35.7403 143.793 36.6672 143.871 37.2711 143.871V99.9615ZM22.0438 123.931V114.476H65.9534V123.931H22.0438ZM43.9986 92.5207H49.5984V136.43H43.9986V92.5207ZM71.5533 114.476V144.489H27.6436V114.476H71.5533ZM49.5984 166.444H43.9986V122.534H49.5984V166.444ZM22.0438 144.489V143.101H65.9534V144.489H22.0438ZM55.8617 161.575C50.1013 165.274 43.6793 166.955 37.2711 166.955V123.045C36.663 123.045 35.834 123.124 34.8724 123.396C33.9001 123.671 32.9678 124.093 32.1355 124.627L55.8617 161.575Z" fill="black" mask="url(#path-6-inside-3)"/>
<rect x="52.1035" y="121.418" width="5.78927" height="23.1571" fill="black"/>
<path d="M51.8193 114L37 87.7109L56.2651 77L78 114H51.8193Z" fill="black"/>
<rect x="52" y="112" width="6" height="6" fill="black"/>
<path d="M44 114L33.5 96L14 107.829L18 114H44Z" fill="black"/>
<mask id="path-12-inside-4" fill="white">
<path d="M91.0523 133.396C91.0523 136.923 93.857 139.824 97.5003 139.824C100.864 139.824 103.939 136.923 103.939 133.396C103.939 129.993 100.864 126.967 97.5003 126.967C93.857 126.967 91.0523 129.993 91.0523 133.396V133.396ZM97.2111 145C90.7728 145 85.7319 139.824 85.7319 133.396C85.7319 126.967 90.7728 121.916 97.2111 121.916C99.7364 121.916 101.982 122.552 103.939 123.931V122.167H109.269V144.489H103.939V143.101C101.982 144.364 99.7364 145 97.2111 145"/>
</mask>
<path d="M91.0523 133.396C91.0523 136.923 93.857 139.824 97.5003 139.824C100.864 139.824 103.939 136.923 103.939 133.396C103.939 129.993 100.864 126.967 97.5003 126.967C93.857 126.967 91.0523 129.993 91.0523 133.396V133.396ZM97.2111 145C90.7728 145 85.7319 139.824 85.7319 133.396C85.7319 126.967 90.7728 121.916 97.2111 121.916C99.7364 121.916 101.982 122.552 103.939 123.931V122.167H109.269V144.489H103.939V143.101C101.982 144.364 99.7364 145 97.2111 145" fill="black"/>
<path d="M103.939 123.931H125.893V166.252L91.295 141.879L103.939 123.931ZM103.939 122.167H81.9838V100.212H103.939V122.167ZM109.269 122.167V100.212H131.223V122.167H109.269ZM109.269 144.489H131.223V166.444H109.269V144.489ZM103.939 144.489V166.444H81.9838V144.489H103.939ZM103.939 143.101L92.0343 124.654L125.893 102.804V143.101H103.939ZM113.007 133.396C113.007 124.97 106.154 117.869 97.5003 117.869V161.779C81.5603 161.779 69.0974 148.876 69.0974 133.396H113.007ZM97.5003 117.869C92.8772 117.869 89.1084 119.806 86.6081 122.258C84.0529 124.764 81.9838 128.641 81.9838 133.396H125.893C125.893 149.449 112.585 161.779 97.5003 161.779V117.869ZM81.9838 133.396C81.9838 138.346 84.1556 142.143 86.5039 144.477C88.839 146.798 92.6016 148.922 97.5003 148.922V105.012C112.863 105.012 125.893 117.742 125.893 133.396H81.9838ZM97.5003 148.922C106.428 148.922 113.007 141.668 113.007 133.396H69.0974C69.0974 118.318 81.2862 105.012 97.5003 105.012V148.922ZM97.2111 166.955C78.3252 166.955 63.7771 151.625 63.7771 133.396H107.687C107.687 128.024 103.22 123.045 97.2111 123.045V166.955ZM63.7771 133.396C63.7771 114.854 78.6354 99.9615 97.2111 99.9615V143.871C102.91 143.871 107.687 139.08 107.687 133.396H63.7771ZM97.2111 99.9615C103.642 99.9615 110.447 101.66 116.582 105.982L91.295 141.879C92.2933 142.583 93.4162 143.122 94.5687 143.462C95.6949 143.795 96.6205 143.871 97.2111 143.871V99.9615ZM81.9838 123.931V122.167H125.893V123.931H81.9838ZM103.939 100.212H109.269V144.122H103.939V100.212ZM131.223 122.167V144.489H87.3138V122.167H131.223ZM109.269 166.444H103.939V122.534H109.269V166.444ZM81.9838 144.489V143.101H125.893V144.489H81.9838ZM115.843 161.548C110.056 165.283 103.61 166.955 97.2111 166.955V123.045C96.616 123.045 95.7885 123.122 94.8197 123.396C93.839 123.673 92.8891 124.102 92.0343 124.654L115.843 161.548Z" fill="black" mask="url(#path-12-inside-4)"/>
<mask id="path-14-inside-5" fill="white">
<path d="M65.2893 133.396C65.2893 136.923 68.3736 139.824 71.7373 139.824C75.3806 139.824 78.1854 136.923 78.1854 133.396C78.1854 129.993 75.3806 126.967 71.7373 126.967C68.3736 126.967 65.2893 129.993 65.2893 133.396ZM78.1854 114.476H83.7852V144.489H78.1854V143.101C76.4987 144.364 74.2529 145 71.7373 145C65.2893 145 59.969 139.824 59.969 133.396C59.969 126.967 65.2893 121.916 71.7373 121.916C74.2529 121.916 76.4987 122.552 78.1854 123.931V114.476Z"/>
</mask>
<path d="M65.2893 133.396C65.2893 136.923 68.3736 139.824 71.7373 139.824C75.3806 139.824 78.1854 136.923 78.1854 133.396C78.1854 129.993 75.3806 126.967 71.7373 126.967C68.3736 126.967 65.2893 129.993 65.2893 133.396ZM78.1854 114.476H83.7852V144.489H78.1854V143.101C76.4987 144.364 74.2529 145 71.7373 145C65.2893 145 59.969 139.824 59.969 133.396C59.969 126.967 65.2893 121.916 71.7373 121.916C74.2529 121.916 76.4987 122.552 78.1854 123.931V114.476Z" fill="black"/>
<path d="M78.1854 114.476H56.2305V92.5207H78.1854V114.476ZM83.7852 114.476V92.5207H105.74V114.476H83.7852ZM83.7852 144.489H105.74V166.444H83.7852V144.489ZM78.1854 144.489V166.444H56.2305V144.489H78.1854ZM78.1854 143.101L65.0285 125.525L100.14 99.2418V143.101H78.1854ZM78.1854 123.931H100.14V170.223L64.2933 140.931L78.1854 123.931ZM87.2442 133.396C87.2442 128.618 85.1594 124.739 82.6089 122.243C80.1145 119.801 76.3549 117.869 71.7373 117.869V161.779C56.6949 161.779 43.3345 149.49 43.3345 133.396H87.2442ZM71.7373 117.869C63.0839 117.869 56.2305 124.97 56.2305 133.396H100.14C100.14 148.876 87.6773 161.779 71.7373 161.779V117.869ZM56.2305 133.396C56.2305 141.668 62.8099 148.922 71.7373 148.922V105.012C87.9514 105.012 100.14 118.318 100.14 133.396H56.2305ZM71.7373 148.922C76.6301 148.922 80.3839 146.803 82.7132 144.493C85.0564 142.168 87.2442 138.369 87.2442 133.396H43.3345C43.3345 117.7 56.4167 105.012 71.7373 105.012V148.922ZM78.1854 92.5207H83.7852V136.43H78.1854V92.5207ZM105.74 114.476V144.489H61.8304V114.476H105.74ZM83.7852 166.444H78.1854V122.534H83.7852V166.444ZM56.2305 144.489V143.101H100.14V144.489H56.2305ZM91.3422 160.677C84.9824 165.438 77.7717 166.955 71.7373 166.955V123.045C70.7342 123.045 68.0149 123.29 65.0285 125.525L91.3422 160.677ZM71.7373 166.955C53.5427 166.955 38.0142 152.325 38.0142 133.396H81.9238C81.9238 127.324 77.036 123.045 71.7373 123.045V166.955ZM38.0142 133.396C38.0142 114.159 53.858 99.9615 71.7373 99.9615V143.871C76.7206 143.871 81.9238 139.775 81.9238 133.396H38.0142ZM71.7373 99.9615C77.773 99.9615 85.4215 101.491 92.0774 106.93L64.2933 140.931C67.5758 143.614 70.7328 143.871 71.7373 143.871V99.9615ZM56.2305 123.931V114.476H100.14V123.931H56.2305Z" fill="black" mask="url(#path-14-inside-5)"/>
</svg>
