<svg width="360" height="200" viewBox="0 0 360 200" fill="none" xmlns="http://www.w3.org/2000/svg">
<path fill-rule="evenodd" clip-rule="evenodd" d="M28.9829 123.919C16.381 123.919 5.62455 112.51 5.62455 100.065C5.62455 87.6664 16.1559 76.0305 28.8924 76.0305C37.2648 76.0305 43.2934 80.0737 48.2003 86.4083H54.3655C52.5202 83.0835 50.5401 80.0295 47.5248 77.6477C42.3486 73.4701 35.6427 71 28.9829 71C13.0059 71 0 84.163 0 100.021C0 115.923 13.1868 128.951 29.0733 128.951C35.5542 128.951 41.9003 126.571 46.9861 122.572C50.1822 120.012 52.4316 116.687 54.5926 113.272H48.4273C43.5648 119.607 37.3552 123.919 28.9829 123.919ZM92.8907 93.5958C89.0211 88.6095 83.7544 85.4652 77.2293 85.4652C65.528 85.4652 55.8972 94.9461 55.8972 106.626C55.8972 118.304 65.5742 127.874 77.2293 127.874C84.0257 127.874 88.7497 125.042 92.8907 119.831V126.929H97.9765V86.4525H92.8907V93.5958V93.5958ZM76.9599 123.2C68.0026 123.2 60.9368 115.429 60.9368 106.67C60.9368 97.954 67.9583 90.1385 76.9599 90.1385C85.9153 90.1385 92.8907 97.9559 92.8907 106.67C92.8907 115.429 85.8692 123.2 76.9599 123.2ZM104.142 126.929H109.589V72.1659H104.142V126.929ZM130.155 120.504L116.384 86.4525H110.982L127.5 126.929H132.99L149.463 86.4525H144.152L130.155 120.504V120.504ZM151.713 126.929H157.158V86.4525H151.713V126.929ZM151.713 81.2415H157.158V72.1659H151.713V81.2415ZM180.607 85.4633C175.475 85.4633 171.831 88.1601 168.456 91.7538V86.4525H163.414V126.929H168.769V102.264C168.725 95.7509 174.124 90.1365 180.696 90.1365C188.929 90.1365 193.07 97.2798 193.07 104.648V126.931H198.11V104.648C198.112 94.1355 191.949 85.4633 180.607 85.4633V85.4633ZM248.654 72.1659L223.901 103.568V72.1659H218.545V126.929H223.901V111.88L230.922 103.165L248.789 126.929H255.587L234.341 98.851L255.587 72.1659H248.654ZM257.565 126.929H262.878V72.1659H257.565V126.929ZM306.847 96.6498C303.156 89.7754 295.775 85.4633 287.987 85.4633C276.378 85.4633 266.565 95.1228 266.565 106.713C266.565 118.391 276.467 127.872 288.082 127.872C293.614 127.872 299.063 125.671 303.066 121.852C305.498 119.561 306.937 116.685 308.24 113.675H302.527C299.644 119.292 294.559 123.199 287.985 123.199C283.983 123.199 280.067 121.581 277.098 118.84C274.035 116.057 272.686 112.64 272.099 108.599H309.502C309.504 104.377 308.917 100.334 306.847 96.6498ZM272.282 103.928C273.906 96.3367 279.888 90.1365 288.082 90.1365C294.967 90.1365 302.348 94.3603 303.968 103.928H272.282ZM313.464 126.929H318.817V86.4525H313.464V126.929ZM313.464 81.422H318.817V72.1659H313.464V81.422V81.422ZM342.359 85.4633C337.134 85.4633 333.49 88.1601 330.068 91.7538V86.4525H324.938V126.929H330.34V102.264C330.296 95.7067 335.832 90.1365 342.445 90.1365C350.639 90.1365 354.96 97.2798 354.96 104.648V126.931H360V104.648C360 94.1355 353.742 85.4633 342.359 85.4633V85.4633Z" fill="black"/>
</svg>
