<svg width="94" height="94" viewBox="0 0 94 94" fill="none" xmlns="http://www.w3.org/2000/svg">
<path d="M58.6363 48.6635H64.8425C69.3147 48.6635 72.9531 45.0251 72.9531 40.5529V9.7327C72.9531 8.83729 72.2264 8.11058 71.331 8.11058H58.3541V4.86635C58.3541 2.18337 56.1707 0 53.4877 0H40.5108C37.8278 0 35.6445 2.18337 35.6445 4.86635V8.11058H22.6675C21.7721 8.11058 21.0454 8.83729 21.0454 9.7327V40.5529C21.0454 45.0251 24.6838 48.6635 29.156 48.6635H35.3622C28.7423 52.636 24.2896 59.8626 24.2896 68.1289C24.2896 80.6516 34.4765 90.8385 46.9993 90.8385C59.522 90.8385 69.7089 80.6516 69.7089 68.1289C69.7105 59.8626 65.2562 52.636 58.6363 48.6635ZM38.8903 4.86635C38.8903 3.97256 39.6186 3.24423 40.5124 3.24423H53.4893C54.3831 3.24423 55.1115 3.97256 55.1115 4.86635V8.11058H38.8903V4.86635ZM24.2913 11.3548H69.7105V16.2212C69.7105 18.9041 67.5271 21.0875 64.8442 21.0875H29.1576C26.4746 21.0875 24.2913 18.9041 24.2913 16.2212V11.3548ZM43.7567 24.3317H50.2451V27.576H43.7567V24.3317ZM29.1576 45.4192C26.4746 45.4192 24.2913 43.2359 24.2913 40.5529V22.6674C25.6506 23.6975 27.3246 24.3317 29.1576 24.3317H40.5124V29.1981C40.5124 30.0935 41.2391 30.8202 42.1345 30.8202H51.8672C52.7626 30.8202 53.4893 30.0935 53.4893 29.1981V24.3317H64.8442C66.6772 24.3317 68.3512 23.6975 69.7105 22.6674V40.5529C69.7105 43.2359 67.5271 45.4192 64.8442 45.4192H29.1576ZM47.0009 87.5943C36.2673 87.5943 27.5355 78.8624 27.5355 68.1289C27.5355 57.3953 36.2673 48.6635 47.0009 48.6635C57.7344 48.6635 66.4663 57.3953 66.4663 68.1289C66.4663 78.8624 57.7328 87.5943 47.0009 87.5943Z" fill="white"/>
<path d="M19.4249 68.1288C19.4249 63.8481 20.4176 59.6857 22.2912 55.9046L22.7519 57.2866L25.829 56.2598L24.2069 51.3935C23.9246 50.5451 23.0065 50.0812 22.1549 50.3683L17.2886 51.9904L18.3154 55.0676L19.2319 54.7626C17.2318 58.9103 16.1807 63.4588 16.1807 68.1288C16.1807 77.4738 20.3495 86.2089 27.6198 92.094L29.6621 89.5716C23.1541 84.3062 19.4249 76.4892 19.4249 68.1288Z" fill="white"/>
<path d="M77.8212 68.1287C77.8212 62.036 76.045 56.1429 72.6856 51.0884L69.9831 52.8841C72.9889 57.4049 74.577 62.6768 74.577 68.1287C74.577 75.558 71.6507 82.4958 66.4664 87.646V85.972H63.2222V90.8383C63.2222 91.5375 63.6683 92.1555 64.3317 92.3777L69.198 93.9998L70.2248 90.9227L68.3967 90.3128C74.4213 84.5218 77.8212 76.6075 77.8212 68.1287Z" fill="white"/>
<path d="M46.6816 66.1548L41.2394 63.4329L39.7876 66.3349L46.2761 69.5791C46.5064 69.6943 46.7546 69.7511 47.0011 69.7511C47.4229 69.7511 47.8382 69.5872 48.1496 69.2758L54.6381 62.7873L52.3444 60.4937L46.6816 66.1548Z" fill="white"/>
<path d="M47.0009 51.9077C38.0566 51.9077 30.7798 59.1845 30.7798 68.1289C30.7798 77.0732 38.0566 84.35 47.0009 84.35C55.9453 84.35 63.2221 77.0732 63.2221 68.1289C63.2221 59.1845 55.9453 51.9077 47.0009 51.9077ZM47.0009 81.1058C39.8458 81.1058 34.024 75.284 34.024 68.1289C34.024 60.9737 39.8458 55.1519 47.0009 55.1519C54.1561 55.1519 59.9779 60.9737 59.9779 68.1289C59.9779 75.284 54.1545 81.1058 47.0009 81.1058Z" fill="white"/>
<path d="M64.8443 38.9307H61.6001V42.1749H64.8443V38.9307Z" fill="white"/>
<path d="M58.3556 38.9307H55.1113V42.1749H58.3556V38.9307Z" fill="white"/>
<path d="M51.8673 38.9307H48.623V42.1749H51.8673V38.9307Z" fill="white"/>
</svg>
