<svg width="103" height="103" viewBox="0 0 103 103" fill="none" xmlns="http://www.w3.org/2000/svg">
<g clip-path="url(#clip0)">
<path d="M44.2649 53.6015H33.1565V3.63242H40.0198C40.8947 9.18155 45.7094 13.439 51.5004 13.439C57.2915 13.439 62.1061 9.18155 62.9813 3.63242H69.8439V31.4449C69.8439 32.448 70.6571 33.2611 71.6601 33.2611C72.6632 33.2611 73.4763 32.448 73.4763 31.4449V26.5491L77.3851 28.5034C77.6444 28.6332 77.9219 28.6952 78.1963 28.6952C78.7707 28.6952 79.3308 28.4225 79.6812 27.9261L88.3988 15.5766C88.9447 14.8031 88.8049 13.74 88.0777 13.1339L72.8295 0.427415C72.5135 0.161037 72.1057 0 71.6601 0H31.3402C30.8939 0 30.4859 0.161522 30.1696 0.428626L14.9231 13.1339C14.1959 13.74 14.056 14.8031 14.602 15.5766L23.3196 27.9261C23.67 28.4223 24.2301 28.6952 24.8045 28.6952C25.0787 28.6952 25.3562 28.6329 25.6158 28.5034L29.5243 26.5491V55.4177C29.5243 56.4207 30.3375 57.2339 31.3405 57.2339H44.2651C45.2682 57.2339 46.0813 56.4207 46.0813 55.4177C46.0813 54.4147 45.2679 53.6015 44.2649 53.6015ZM77.6134 24.5564L73.4763 22.4878V5.69491L84.4642 14.8513L77.6134 24.5564ZM51.5004 9.80657C47.7191 9.80657 44.5451 7.1658 43.72 3.63242H59.2808C58.4558 7.16604 55.2818 9.80657 51.5004 9.80657ZM25.3869 24.5564L18.5362 14.8513L29.524 5.69491V22.4878L25.3869 24.5564Z" fill="white"/>
<path d="M86.6193 35.3711H50.1023C49.0993 35.3711 48.2861 36.1843 48.2861 37.1873V101.184C48.2861 102.187 49.0993 103 50.1023 103H64.0874C65.0512 103 65.8474 102.248 65.9007 101.285L68.3606 57.0307L70.8205 101.285C70.874 102.247 71.67 103 72.6338 103H86.6188C87.6219 103 88.4351 102.187 88.4351 101.184V37.1873C88.4355 36.184 87.6224 35.3711 86.6193 35.3711ZM84.8031 43.0682H79.076V39.0035H84.8031V43.0682ZM61.2781 43.0682V39.0035H75.4436V43.0682H61.2781ZM57.6457 39.0035V43.0682H51.9186V39.0035H57.6457ZM74.3524 99.3678L71.8836 54.9564C71.83 53.994 71.0341 53.2409 70.0703 53.2409H66.6517C65.6879 53.2409 64.8916 53.9938 64.8384 54.9564L62.3698 99.3678H51.9188V46.7006H84.8034V99.3678H74.3524Z" fill="white"/>
</g>
<defs>
<clipPath id="clip0">
<rect width="103" height="103" fill="white"/>
</clipPath>
</defs>
</svg>
