<svg width="94" height="94" viewBox="0 0 94 94" fill="none" xmlns="http://www.w3.org/2000/svg">
<path d="M90.3195 75.6187H89.6154V35.0895C89.6154 32.3859 87.4167 30.1502 84.7149 30.106H84.6911C83.9391 30.106 83.3235 30.7087 83.3106 31.4642C83.2978 32.2272 83.9058 32.8575 84.6688 32.8704C85.8723 32.8887 86.8509 33.8858 86.8509 35.0893V75.6187H60.1646C58.137 75.6187 56.4859 77.2719 56.4859 79.2992C56.4859 81.5128 56.4859 83.0753 56.4859 85.1747C56.4859 86.6437 55.3765 87.9375 53.9481 88.1493H53.4985C51.8305 88.1069 50.4888 86.7707 50.4354 85.1066V84.7749C50.4349 85.3297 50.4372 68.3131 50.4372 35.0896C50.4372 34.1645 51.0086 33.3683 51.8158 33.0347C52.584 32.7165 50.5687 32.9407 79.164 32.8689C79.927 32.8689 80.5462 32.2515 80.5462 31.4866C80.5462 30.7236 79.927 30.1043 79.164 30.1043H55.0374C54.4126 25.3403 53.5796 21.3353 53.0285 18.9543C53.6255 18.2245 53.9703 17.2974 53.9703 16.3207V11.2817C53.9703 5.26244 46.3791 2.88141 42.7041 7.20138C40.5459 4.61931 37.3483 3.08594 33.9186 3.08594H16.3013C9.88028 3.08594 4.65539 8.309 4.65539 14.7318C4.67558 25.8894 4.6093 25.2995 4.71616 25.9096C0.936328 36.9768 -1.57762 53.1655 5.16045 62.8026C1.92223 65.9505 0 70.3238 0 74.9994V81.7797C0 83.431 1.34538 84.7745 2.99864 84.7745H47.6708C47.6708 88.4534 50.3897 90.8348 53.4173 90.9117C53.5345 90.9155 88.2352 90.9135 88.2609 90.9135C91.4253 90.9135 94 88.3388 94 85.1744V79.2988C94 77.2701 92.3488 75.6187 90.3195 75.6187ZM7.41994 14.7318C7.41994 9.83319 11.4045 5.85049 16.3013 5.85049H33.9184C37.1234 5.85049 40.0629 7.61979 41.5908 10.4671C42.1695 11.5452 43.7618 11.3959 44.1268 10.2312C45.3302 6.43285 51.2058 7.20138 51.2058 11.2817V16.3205C51.2058 16.8641 50.8905 17.3582 50.4022 17.581C34.6777 24.7632 19.7218 27.2327 8.72107 26.5896C7.98027 26.5399 7.41994 25.9261 7.41994 25.2018V14.7318ZM34.4012 53.2006C25.5733 56.3171 15.9436 51.459 13.0963 42.6254C12.079 39.4869 12.2982 37.7323 12.2982 29.4498C19.0897 29.426 30.9234 28.3312 45.4997 22.6546V33.2058C45.4646 36.923 45.7725 39.3228 44.7016 42.6252C43.1333 47.491 39.3386 51.4609 34.4012 53.2006ZM35.2472 55.8343V59.5792C34.9838 59.8427 35.1716 59.6548 29.556 65.2723C29.1947 65.6336 28.6068 65.6354 28.2439 65.2723C26.8102 63.838 28.2121 65.2405 22.5508 59.5774V55.8343C26.6294 57.2551 31.1428 57.2645 35.2472 55.8343ZM9.53384 33.2353C9.56707 37.0209 9.44351 38.0695 9.69045 40.0028C8.7174 39.5346 8.04471 38.5394 8.04471 37.3875C8.17176 36.6081 7.49907 34.3744 9.53384 33.2353ZM2.76455 81.7799V74.9996C2.76455 69.3416 6.12065 64.2495 11.2369 61.9863C11.9336 61.6768 12.2505 60.8603 11.9409 60.1617C11.6314 59.4652 10.815 59.15 10.1182 59.4577C9.12296 59.8981 8.18681 60.427 7.31309 61.0335C1.5868 52.596 3.72842 38.5801 6.70301 28.781C7.66687 29.3523 8.44274 29.3542 9.53384 29.4002V30.2811C7.09002 30.9096 5.28016 33.1322 5.28016 35.7695V37.3877C5.28016 40.3015 7.49173 42.7084 10.3244 43.0161C11.8025 48.0271 15.2599 52.1978 19.7863 54.6214V58.0089C16.1008 58.0223 19.5485 57.9891 15.9363 58.044C15.1733 58.0901 14.5928 58.7444 14.6388 59.5074C14.6868 60.2686 15.3411 60.851 16.1023 60.803C19.7238 60.7478 16.2128 60.7847 19.8362 60.7735C21.0433 61.9806 25.0464 65.9837 26.2886 67.2259C27.7317 68.6818 30.0962 68.6542 31.5117 67.2259C32.7465 65.991 36.7549 61.9826 37.9641 60.7735C41.0578 60.79 43.9481 60.4794 47.671 62.5464V82.0195C0.137695 81.9037 2.76455 82.1915 2.76455 81.7799ZM47.6727 59.4518C43.9424 57.7728 40.8057 58.0234 38.0118 58.0087V54.6213C42.5381 52.1996 45.9956 48.029 47.4737 43.0178C47.5399 43.0104 47.6064 43.0031 47.6727 42.9919V59.4518ZM48.2642 30.2811C48.2532 21.9104 48.2901 22.2107 48.231 21.5509C48.9958 21.2301 49.768 20.8966 50.5476 20.5501C51.2093 23.5708 51.7971 26.8127 52.2412 30.1227C51.3622 30.1945 50.5476 30.4969 49.8582 30.9687C49.3718 30.6608 48.8356 30.4267 48.2642 30.2811ZM91.2354 85.1747C91.2354 86.8238 89.8912 88.1493 88.2609 88.1493C88.2342 88.1482 58.4495 88.1493 58.4283 88.1493C59.6905 86.047 59.1128 84.4635 59.2503 79.2992C59.2503 78.7941 59.6595 78.3832 60.1644 78.3832C66.0563 78.3832 83.7931 78.3832 90.3195 78.3832C90.8246 78.3832 91.2354 78.7943 91.2354 79.2992V85.1747Z" fill="white"/>
<path d="M70.1482 42.6695C68.9023 39.0388 65.4873 36.5986 61.6502 36.5986C56.7253 36.5986 52.6602 40.5933 52.6602 45.5868C52.6602 51.6632 58.6536 56.1113 64.5658 54.0867C69.2561 52.4758 71.7605 47.3695 70.1482 42.6695ZM66.7128 49.2027C63.2497 54.0547 55.4245 51.6853 55.4245 45.5868C55.4245 42.1204 58.2504 39.363 61.6502 39.363C65.1251 39.363 67.8722 42.1986 67.8722 45.5868C67.872 46.9157 67.4499 48.1707 66.7128 49.2027Z" fill="white"/>
<path d="M65.571 42.6177C64.8074 42.6177 64.1887 43.2364 64.1887 44C64.1887 45.4006 63.0492 46.54 61.6487 46.54C60.2482 46.54 59.1085 45.4004 59.1085 44C59.1085 43.2364 58.4898 42.6177 57.7262 42.6177C54.8601 42.6177 56.5747 49.3043 61.6487 49.3043C66.7241 49.3045 68.4444 42.6177 65.571 42.6177Z" fill="white"/>
<path d="M70.1484 62.5371C68.5463 57.8683 63.4562 55.3352 58.731 56.9566C55.1003 58.2024 52.6602 61.6175 52.6602 65.4546C52.6602 70.3457 56.6267 74.4446 61.6484 74.4446C67.8357 74.4446 72.1413 68.3462 70.1484 62.5371ZM61.6484 71.68C58.8157 71.68 57.2127 69.8111 57.1936 69.7982C58.0993 70.1768 59.1089 69.5124 59.1089 68.5226C59.1089 67.122 60.2486 65.9826 61.6491 65.9826C63.0495 65.9826 64.1891 67.1221 64.1891 68.5226C64.1891 69.509 65.1943 70.177 66.1025 69.7988C66.0838 69.8111 64.5007 71.68 61.6484 71.68ZM66.9357 68.7354C67.2783 66.5257 65.1521 63.218 61.6493 63.218C58.7243 63.218 56.3445 65.5978 56.3445 68.5226C56.3445 68.5953 56.3519 68.666 56.3625 68.7356C56.362 68.7347 56.3614 68.7339 56.3609 68.733C54.2635 65.3549 55.8338 60.8745 59.6285 59.5698C63.7176 58.1688 67.8722 61.2413 67.8722 65.4564C67.8722 67.2604 67.1327 68.2955 66.9357 68.7354Z" fill="white"/>
<path d="M83.0306 38.8323C82.3805 38.4328 81.5294 38.6353 81.1291 39.2856L76.8942 46.172L75.2655 43.992C74.8085 43.3803 73.9422 43.2553 73.331 43.7117C72.7194 44.1686 72.594 45.0348 73.0506 45.6462L75.2721 48.6201C76.1568 49.8039 77.9557 49.722 78.7301 48.4636L83.4839 40.7338C83.8839 40.0835 83.6809 39.2324 83.0306 38.8323Z" fill="white"/>
<path d="M17.8506 58.0098C18.1082 58.0037 17.7922 58.007 17.8506 58.0098V58.0098Z" fill="white"/>
<path d="M18.979 34.9908C20.3053 34.9908 21.3804 33.9157 21.3804 32.5894C21.3804 31.2631 20.3053 30.188 18.979 30.188C17.6528 30.188 16.5776 31.2631 16.5776 32.5894C16.5776 33.9157 17.6528 34.9908 18.979 34.9908Z" fill="white"/>
<path d="M39.6333 34.9908C40.9596 34.9908 42.0347 33.9157 42.0347 32.5894C42.0347 31.2631 40.9596 30.188 39.6333 30.188C38.3071 30.188 37.2319 31.2631 37.2319 32.5894C37.2319 33.9157 38.3071 34.9908 39.6333 34.9908Z" fill="white"/>
<path d="M31.0264 41.2978H28.4443C27.8746 41.2978 27.411 40.8343 27.411 40.2646V30.913C27.411 30.1497 26.7921 29.5308 26.0288 29.5308C25.2654 29.5308 24.6465 30.1497 24.6465 30.913V40.2646C24.6465 42.3586 26.3502 44.0622 28.4441 44.0622H31.0262C31.7896 44.0622 32.4085 43.4433 32.4085 42.6799C32.4086 41.9167 31.7898 41.2978 31.0264 41.2978Z" fill="white"/>
<path d="M28.8999 73.875C29.7847 73.875 30.5019 73.1577 30.5019 72.2729C30.5019 71.3882 29.7847 70.6709 28.8999 70.6709C28.0151 70.6709 27.2979 71.3882 27.2979 72.2729C27.2979 73.1577 28.0151 73.875 28.8999 73.875Z" fill="white"/>
<path d="M28.8999 79.7358C29.7847 79.7358 30.5019 79.0186 30.5019 78.1338C30.5019 77.249 29.7847 76.5317 28.8999 76.5317C28.0151 76.5317 27.2979 77.249 27.2979 78.1338C27.2979 79.0186 28.0151 79.7358 28.8999 79.7358Z" fill="white"/>
<path d="M36.5066 46.4718C36.1213 45.9267 35.3671 45.7975 34.8222 46.1829C27.9205 51.0637 23.3505 46.5372 23.1482 46.3306C22.6864 45.8518 21.924 45.836 21.4431 46.2959C20.9606 46.7573 20.9437 47.5224 21.4048 48.0047C22.8384 49.5042 25.6135 50.857 28.5647 50.857C30.6907 50.857 33.3051 50.2159 36.2176 48.1563C36.7627 47.7709 36.8918 47.0166 36.5066 46.4718Z" fill="white"/>
</svg>
