<svg width="170" height="200" viewBox="0 0 170 200" fill="none" xmlns="http://www.w3.org/2000/svg">
<path d="M77.1873 119.471H62.9833V104.146H73.0756V95.7358H62.9833V81.5318H77.1873V73.1216H53.0779V127.878H77.1873V119.471ZM138.489 119.471H124.285V104.146H134.377V95.7358H124.285V81.5318H138.489V73.1216H114.379V127.878H138.489V119.471ZM144.095 73.1216V127.878H168.205V119.471H154.001V73.1216H144.095ZM35.1361 73.1216H45.0415V127.882H35.1361V73.1216ZM22.6142 77.0464C20.1908 74.7631 15.5184 73.2057 10.0923 73.1216H0V127.882H11.9612C18.4402 127.913 21.1658 125.577 23.3618 123.209C27.1993 118.568 27.7849 113.117 27.8472 99.0999C27.7849 80.7998 24.8631 79.4355 22.6142 77.0464V77.0464Z" fill="black"/>
<path d="M17.1943 109.939C17.2721 118.957 13.7679 119.542 9.9054 119.471V81.5312C16.4934 81.578 17.2721 85.6678 17.1943 90.1284C17.1943 90.1284 17.4653 109.416 17.1943 109.939Z" fill="#F6E4A2"/>
<path d="M90.0828 112.179H81.1119C81.0309 117.689 81.0309 129.077 94.5683 129C108.09 129.077 108.772 117.493 108.772 114.609C108.772 111.653 109.065 105.133 100.362 98.1621C96.9948 95.3026 94.3658 93.4523 91.7649 90.4994C89.3041 87.4157 89.8866 85.6651 89.8959 84.335C89.8897 83.1358 91.0578 80.3106 93.8207 80.2233C96.5058 80.3137 98.0632 83.0392 97.9324 88.4467H107.277C107.604 83.2323 105.95 72.0374 94.0076 72C82.0028 72.0374 80.4453 82.843 80.1774 86.3908C80.056 90.0477 80.6416 96.0813 91.0173 104.333C94.3658 107.18 99.4276 110.295 99.6145 115.173C99.602 119.057 96.9948 120.904 95.5028 120.966C93.8799 120.904 90.0828 120.904 90.0828 112.179V112.179ZM166.161 78.8715C166.557 78.8837 166.95 78.8163 167.319 78.6733C167.688 78.5304 168.024 78.3147 168.307 78.0392C168.591 77.7637 168.817 77.434 168.97 77.0697C169.124 76.7053 169.203 76.3138 169.202 75.9184C169.202 75.523 169.121 75.1317 168.967 74.7678C168.812 74.404 168.585 74.075 168.301 73.8004C168.016 73.5258 167.679 73.3112 167.31 73.1694C166.941 73.0276 166.547 72.9615 166.152 72.975C165.387 73.001 164.661 73.3237 164.13 73.8747C163.598 74.4258 163.301 75.162 163.303 75.9277C163.304 76.6935 163.603 77.4288 164.136 77.9781C164.67 78.5275 165.396 78.8478 166.161 78.8715V78.8715ZM166.161 78.4821C164.722 78.4821 163.669 77.3607 163.669 75.9123C163.669 74.4795 164.719 73.3581 166.161 73.3581C167.594 73.3581 168.638 74.4795 168.638 75.9123C168.638 77.3607 167.594 78.4821 166.161 78.4821ZM166.638 76.0431C167.223 76.0276 167.675 75.7846 167.675 75.1398C167.675 74.5947 167.379 74.2676 166.507 74.2676H165.068V77.5601H165.473V76.0431H166.211L167.155 77.5601H167.638L166.638 76.0431ZM165.47 75.7254V74.5573H166.411C166.815 74.5573 167.236 74.6196 167.236 75.1336C167.236 75.8033 166.551 75.7254 166.083 75.7254H165.47Z" fill="black"/>
</svg>
