<svg width="223" height="200" viewBox="0 0 223 200" fill="none" xmlns="http://www.w3.org/2000/svg">
<path d="M19.4774 71H0V128H24.3467C39.6709 128.091 50.6889 117.35 50.6985 100.503C50.6842 79.4641 37.1598 71.0716 19.4774 71Z" fill="black"/>
<path d="M20.3366 111.1H19.1909V89.045H20.3366C27.3303 88.9161 31.5791 92.3199 31.5075 100.216C31.5791 107.821 26.7002 110.995 20.3366 111.1V111.1Z" fill="#F6E4A2"/>
<path d="M88.794 98.7839L105.121 71H84.2111L75.0453 89.3317C74.0666 91.4131 72.8779 93.4515 72.4674 95.9196H72.1809L72.4674 71H53.8493V128H72.4674L72.1809 104.226H72.4674C72.8779 106.537 74.5536 108.652 75.6181 110.814L84.784 128H106.839L88.794 98.7839ZM111.131 71H129.463L146.648 102.794H147.221C146.529 97.9151 145.694 93.0028 145.789 88.1859V71H163.83V128H145.794L128.894 98.2111H128.322C128.966 102.073 129.52 105.778 129.467 109.668V128H111.136V71H111.131ZM189.045 71L194.774 85.8945H195.347C196.029 84.152 196.516 82.3379 197.352 80.7387L201.075 71H222.558L204.513 103.653V128H185.894V103.653L167.563 71H189.045Z" fill="black"/>
</svg>
