<svg width="275" height="275" viewBox="0 0 275 275" fill="none" xmlns="http://www.w3.org/2000/svg">
<g filter="url(#filter0_d)">
<path d="M107.5 215C166.871 215 215 166.871 215 107.5C215 48.1294 166.871 0 107.5 0C48.1294 0 0 48.1294 0 107.5C0 166.871 48.1294 215 107.5 215Z" fill="#F6E4A2"/>
</g>
<path d="M101.571 96.7669C105.622 92.3737 107.853 86.4807 107.853 80.1718C107.853 68.1599 99.2734 56 82.8723 56C75.2395 56 68.8003 58.6216 64.2499 63.5814C60.2192 67.9752 58 73.8669 58 80.1718C58 92.185 66.5434 104.344 82.8723 104.344C90.5335 104.345 97.0009 101.725 101.571 96.7669ZM82.8723 67.2391C91.8588 67.2391 95.9514 73.9475 95.9514 80.1803C95.9514 83.5709 94.8105 86.7096 92.737 89.0172C90.4238 91.5946 87.0621 92.9575 83.018 92.9575C73.8042 92.9575 69.6068 86.2498 69.6068 80.0176C69.6068 73.658 73.7093 67.2391 82.8723 67.2391Z" fill="#3D2860"/>
<path d="M142.521 65.325C141.035 65.3519 139.005 66.2786 138.011 67.3838L64.2291 149.417C63.2353 150.522 63.9393 152.073 65.4256 152.073H75.0825C76.5688 152.073 78.5961 151.166 79.5883 150.059L152.914 68.0433C153.906 66.9355 153.84 65.1331 151.384 65.1338L142.521 65.325Z" fill="#3D2860"/>
<path d="M134.456 113.575C126.971 113.575 120.654 116.148 116.19 121.013C112.236 125.322 110.058 131.103 110.058 137.288C110.058 149.071 118.439 161 134.457 161C141.974 161 148.317 158.429 152.801 153.566C156.775 149.256 158.963 143.475 158.963 137.288C158.963 125.505 150.545 113.575 134.456 113.575ZM134.601 150.118C125.637 150.118 121.552 143.387 121.552 137.135C121.552 133.731 122.693 130.58 124.765 128.264C127.074 125.679 130.425 124.313 134.457 124.313C143.422 124.313 147.504 131.043 147.504 137.296C147.504 140.7 146.363 143.852 144.293 146.168C141.983 148.752 138.631 150.118 134.601 150.118Z" fill="#3D2860"/>
<defs>
<filter id="filter0_d" x="0" y="0" width="275" height="275" filterUnits="userSpaceOnUse" color-interpolation-filters="sRGB">
<feFlood flood-opacity="0" result="BackgroundImageFix"/>
<feColorMatrix in="SourceAlpha" type="matrix" values="0 0 0 0 0 0 0 0 0 0 0 0 0 0 0 0 0 0 127 0"/>
<feOffset dx="30" dy="30"/>
<feGaussianBlur stdDeviation="15"/>
<feColorMatrix type="matrix" values="0 0 0 0 0 0 0 0 0 0 0 0 0 0 0 0 0 0 0.1 0"/>
<feBlend mode="normal" in2="BackgroundImageFix" result="effect1_dropShadow"/>
<feBlend mode="normal" in="SourceGraphic" in2="effect1_dropShadow" result="shape"/>
</filter>
</defs>
</svg>
