<svg width="350" height="350" viewBox="0 0 350 350" fill="none" xmlns="http://www.w3.org/2000/svg">
<g filter="url(#filter0_d)">
<path d="M145 290C225.081 290 290 225.081 290 145C290 64.9187 225.081 0 145 0C64.9187 0 0 64.9187 0 145C0 225.081 64.9187 290 145 290Z" fill="#4A3270"/>
<path d="M121.288 117.631C122.668 119.011 122.668 121.249 121.288 122.629C119.907 124.009 117.669 124.009 116.288 122.629C114.909 121.249 114.909 119.011 116.288 117.631C117.67 116.253 119.906 116.253 121.288 117.631Z" fill="#F8EC7D"/>
<path d="M205.779 182.481C207.051 183.954 206.887 186.178 205.415 187.449C203.942 188.719 201.717 188.556 200.447 187.083C199.176 185.61 199.339 183.387 200.812 182.115C202.285 180.846 204.509 181.009 205.779 182.481V182.481Z" fill="#F8EC7D"/>
<path d="M208.653 175.283L208.883 175.297L226.158 195.3C227.43 196.771 227.268 198.996 225.796 200.268L215.133 209.476C214.677 209.874 214.124 210.144 213.53 210.261C212.284 210.514 210.998 210.076 210.167 209.114L192.887 189.107L194.049 174.285L208.653 175.283ZM205.415 187.448C206.886 186.178 207.051 183.953 205.779 182.48C204.508 181.007 202.284 180.844 200.812 182.115C199.339 183.386 199.176 185.61 200.447 187.083C201.719 188.554 203.942 188.717 205.415 187.448Z" fill="#6FE3FF"/>
<path d="M128.628 110.29L128.705 125.21L109.947 143.964C108.567 145.345 106.328 145.345 104.949 143.964L94.95 133.97C93.5694 132.589 93.5694 130.351 94.95 128.97L113.708 110.214L128.628 110.29ZM121.288 122.629C122.668 121.249 122.668 119.011 121.288 117.631C119.907 116.25 117.669 116.25 116.288 117.631C114.909 119.011 114.909 121.249 116.288 122.629C117.67 124.006 119.906 124.006 121.288 122.629Z" fill="#6FE3FF"/>
<path d="M197.096 128.788C199.969 128.787 202.415 130.878 202.861 133.717L208.238 172.303L208.652 175.285L194.048 174.286L192.887 189.109L210.166 209.115C210.998 210.077 212.283 210.515 213.529 210.262L213.759 211.894C213.759 218.341 208.534 223.566 202.087 223.566H134.979C128.969 223.564 123.943 218.997 123.364 213.014C123.33 212.646 123.312 212.273 123.312 211.894L134.207 133.717C134.653 130.878 137.098 128.787 139.972 128.788H197.096Z" fill="#F6E4A2"/>
<path d="M93.3577 100.011H150.409C153.834 100.011 156.752 102.506 157.282 105.891L160.473 128.788H139.973C137.099 128.786 134.654 130.878 134.208 133.716L123.313 211.894C123.313 212.273 123.33 212.645 123.364 213.014L123.313 213.018H76.35C68.6655 213.018 62.4351 206.787 62.4351 199.103L75.4246 105.891C75.9559 102.506 78.872 100.011 82.2991 100.011H93.3577ZM104.949 143.965C106.328 145.346 108.568 145.346 109.947 143.965L128.705 125.211L128.629 110.291L113.708 110.215L94.9503 128.971C93.5696 130.352 93.5696 132.59 94.9503 133.97L104.949 143.965Z" fill="#B7B1FF"/>
<path d="M114.567 124.352C116.899 126.684 120.679 126.684 123.01 124.352L123.013 124.349C125.342 122.018 125.34 118.239 123.009 115.908C120.677 113.578 116.898 113.579 114.567 115.911C112.237 118.241 112.237 122.02 114.567 124.352ZM118.012 119.353C118.441 118.923 119.137 118.922 119.567 119.353C119.997 119.782 119.997 120.478 119.567 120.909C119.137 121.338 118.441 121.338 118.012 120.907C117.805 120.702 117.689 120.422 117.689 120.13C117.689 119.838 117.804 119.559 118.011 119.353H118.012Z" fill="#4A3270"/>
<path d="M210.925 173.936L205.272 133.38L205.267 133.338C204.651 129.306 201.175 126.334 197.097 126.352H162.591L159.694 105.552L159.689 105.51C158.987 100.932 155.04 97.5575 150.409 97.5751H141.785V89.4314C141.785 75.386 130.399 64 116.354 64C102.309 64 90.9226 75.386 90.9226 89.4314V97.5751H82.2992C77.6668 97.5575 73.7192 100.933 73.0194 105.511L73.0126 105.553L60.0231 198.767C60.0082 198.878 60 198.989 60 199.102C60.0095 208.128 67.3243 215.441 76.35 215.452H121.33C122.927 221.68 128.551 226.026 134.98 226H202.088C209.875 225.99 216.185 219.68 216.195 211.893C216.195 211.84 216.187 211.787 216.184 211.734C216.371 211.605 216.552 211.467 216.725 211.319L227.386 202.111C229.877 199.961 230.152 196.198 228.001 193.709L210.925 173.936ZM95.7928 89.4314C95.7928 78.0766 104.998 68.8702 116.354 68.8702C127.709 68.8702 136.915 78.0766 136.915 89.4314V97.5751H95.7928V89.4314ZM64.8716 199.263L77.8339 106.247C78.1791 104.052 80.076 102.437 82.2992 102.445H90.9226V115.189C90.9226 116.533 92.0124 117.624 93.3577 117.624C94.703 117.624 95.7928 116.533 95.7928 115.189V102.445H134.828L128.827 107.866C128.765 107.86 128.703 107.855 128.64 107.855L113.72 107.779C113.07 107.775 112.445 108.032 111.985 108.492L93.2313 127.248C90.8981 129.578 90.8981 133.361 93.2313 135.692L103.229 145.686C105.559 148.018 109.339 148.018 111.671 145.686L130.428 126.932C130.889 126.473 131.145 125.848 131.141 125.197L131.076 112.398L136.917 107.123V115.189C136.917 116.533 138.006 117.624 139.352 117.624C140.697 117.624 141.787 116.533 141.787 115.189V102.445H150.41C152.633 102.437 154.529 104.053 154.874 106.247L157.675 126.351H139.973C135.893 126.333 132.417 129.306 131.802 133.338L131.796 133.379L121.037 210.582H76.35C70.0761 210.575 64.9667 205.537 64.8716 199.263V199.263ZM126.264 124.206L108.225 142.243C108.02 142.449 107.74 142.565 107.448 142.565C107.156 142.565 106.876 142.449 106.671 142.243L96.6734 132.248C96.4668 132.042 96.35 131.762 96.35 131.471C96.35 131.179 96.4668 130.899 96.6734 130.694L114.711 112.655L126.206 112.713L126.264 124.206ZM202.088 221.13H134.98C130.217 221.15 126.228 217.527 125.789 212.785C125.767 212.546 125.755 212.3 125.749 212.054L136.616 134.077C136.877 132.429 138.303 131.215 139.973 131.224H197.097C198.767 131.215 200.193 132.428 200.454 134.077L205.828 172.638V172.649L195.548 171.946L188.205 163.091C189.559 160.211 190.259 157.068 190.257 153.886V142.72C190.257 141.374 189.167 140.285 187.821 140.285C186.477 140.285 185.386 141.374 185.386 142.72V153.886C185.386 163.193 177.842 170.737 168.536 170.737C159.229 170.737 151.685 163.193 151.685 153.886V142.72C151.685 141.374 150.595 140.285 149.25 140.285C147.904 140.285 146.815 141.374 146.815 142.72V153.886C146.808 163.112 152.633 171.335 161.34 174.388C170.047 177.44 179.732 174.656 185.488 167.445L191.568 174.777L190.459 188.917C190.409 189.566 190.619 190.207 191.043 190.7L208.323 210.706C209.107 211.608 210.144 212.255 211.3 212.559C210.945 217.386 206.929 221.123 202.088 221.13ZM224.578 197.682C224.557 197.97 224.423 198.237 224.204 198.426L213.538 207.637C213.398 207.76 213.23 207.841 213.048 207.875C212.663 207.954 212.266 207.819 212.009 207.523L195.394 188.286L196.289 176.879L207.705 177.659L224.318 196.893C224.506 197.112 224.599 197.396 224.578 197.682V197.682Z" fill="white"/>
<path d="M207.624 180.891C205.474 178.404 201.716 178.131 199.23 180.279C196.743 182.428 196.467 186.185 198.616 188.672C200.763 191.16 204.52 191.437 207.008 189.29C209.493 187.138 209.768 183.382 207.624 180.891V180.891ZM203.824 185.605C203.37 185.996 202.684 185.946 202.291 185.492C201.9 185.038 201.95 184.352 202.404 183.96C202.858 183.568 203.544 183.618 203.937 184.072C204.327 184.527 204.277 185.212 203.824 185.605V185.605Z" fill="#4A3270"/>
</g>
<defs>
<filter id="filter0_d" x="0" y="0" width="350" height="350" filterUnits="userSpaceOnUse" color-interpolation-filters="sRGB">
<feFlood flood-opacity="0" result="BackgroundImageFix"/>
<feColorMatrix in="SourceAlpha" type="matrix" values="0 0 0 0 0 0 0 0 0 0 0 0 0 0 0 0 0 0 127 0"/>
<feOffset dx="30" dy="30"/>
<feGaussianBlur stdDeviation="15"/>
<feColorMatrix type="matrix" values="0 0 0 0 0 0 0 0 0 0 0 0 0 0 0 0 0 0 0.1 0"/>
<feBlend mode="normal" in2="BackgroundImageFix" result="effect1_dropShadow"/>
<feBlend mode="normal" in="SourceGraphic" in2="effect1_dropShadow" result="shape"/>
</filter>
</defs>
</svg>
