<svg width="193" height="200" viewBox="0 0 193 200" fill="none" xmlns="http://www.w3.org/2000/svg">
<path d="M0 141.168V129.337H16.6211V133.758H5.19411V139.218H15.0629V143.378H5.19411V152.999H0V141.168ZM18.6988 141.147V129.295L26.0355 129.387C34.118 129.488 34.3331 129.526 36.2263 131.19C37.6199 132.415 38.251 133.971 38.2375 136.148C38.2232 138.438 37.4856 140.023 35.9224 141.126L34.7852 141.929L35.6396 142.368C37.0109 143.072 37.6684 144.56 37.9606 147.619C38.0998 149.076 38.3652 150.883 38.5501 151.634L38.8865 152.999H36.352C34.2432 152.999 33.79 152.927 33.6542 152.573C33.5643 152.338 33.3753 151.029 33.2337 149.664C32.8979 146.422 32.6128 145.43 31.7968 144.661C31.1618 144.063 30.9244 144.024 27.5088 143.944L23.8929 143.859V152.999H18.6988V141.147Z" fill="#1C1C24"/>
<path d="M31.6893 139.607C32.6847 139.091 33.0397 138.376 33.0628 136.838C33.0836 135.453 32.498 134.393 31.3994 133.828C30.9979 133.621 29.5477 133.506 27.334 133.503L23.8929 133.499V139.999H27.4119C30.0425 139.999 31.1221 139.9 31.6893 139.607Z" fill="#F6E4A2"/>
<path d="M41.0335 141.169V129.338H58.6934V133.758H46.2276V138.959H57.6546V142.859H46.2276V148.579H58.9531V153H41.0335V141.169ZM60.7711 141.139V129.279L67.0689 129.403C74.0885 129.541 74.9837 129.705 77.266 131.279C78.8632 132.381 80.0913 134.013 80.8505 136.043C81.3213 137.302 81.4057 138.083 81.4042 141.169C81.4026 144.351 81.3275 144.997 80.8081 146.301C79.9106 148.555 78.7165 150.158 77.1325 151.236C74.8824 152.766 73.4969 153 66.6898 153H60.7711V141.139V141.139Z" fill="#1C1C24"/>
<path d="M73.7852 147.667C74.4586 147.193 75.1582 146.375 75.56 145.593C76.1604 144.424 76.2228 144.016 76.2158 141.305C76.209 138.685 76.1303 138.15 75.5891 137.045C74.4277 134.672 72.3623 133.758 68.1597 133.758H65.9652V148.632L69.3196 148.541C72.5614 148.452 72.7108 148.423 73.7852 147.667Z" fill="#F6E4A2"/>
<path d="M88.2998 141.142V129.285L94.7275 129.401C99.8983 129.494 101.387 129.603 102.339 129.955C105.72 131.205 107.558 134.879 106.751 138.771C106.277 141.058 105.127 142.56 103.053 143.603C101.367 144.451 101.197 144.481 97.4043 144.616L93.4939 144.754V152.999H88.2998V141.142V141.142Z" fill="#1C1C24"/>
<path d="M100.43 139.881C101.408 139.293 101.872 138.322 101.852 136.9C101.816 134.327 100.444 133.499 96.2157 133.499H93.494V140.574L96.5455 140.478C98.9771 140.401 99.7661 140.28 100.43 139.881Z" fill="#F6E4A2"/>
<path d="M108.557 141.169V129.338H126.217V133.758H113.732L113.807 136.293L113.881 138.828L119.529 138.899L125.178 138.969V142.859H113.751V148.579H126.477V152.999H108.557V141.169V141.169ZM128.554 141.147V129.295L135.78 129.381L143.006 129.468L144.512 130.248C146.358 131.205 147.401 132.575 147.826 134.604C148.409 137.387 147.369 140.114 145.245 141.368L144.349 141.898L145.087 142.213C146.775 142.933 147.437 144.463 147.756 148.382C147.887 149.992 148.12 151.639 148.273 152.041C148.426 152.444 148.551 152.824 148.551 152.886C148.551 152.948 147.392 153 145.975 153H143.398L143.247 152.285C143.164 151.891 142.98 150.424 142.838 149.023C142.558 146.267 142.19 145.285 141.12 144.442C140.499 143.953 140.086 143.899 136.959 143.899H133.489V153H128.554V141.147V141.147Z" fill="#1C1C24"/>
<path d="M141.94 139.152C143.317 137.549 142.967 134.797 141.28 133.953C140.552 133.589 139.685 133.499 136.93 133.498L133.489 133.498V140.035L137.407 139.952C141.317 139.868 141.327 139.867 141.94 139.152V139.152Z" fill="#F6E4A2"/>
<path d="M150.629 141.147V129.295L157.966 129.387C166.047 129.488 166.264 129.526 168.154 131.188C169.57 132.433 170.094 133.75 170.101 136.081C170.108 138.535 169.459 139.993 167.853 141.126L166.716 141.929L167.57 142.368C169.013 143.109 169.588 144.517 169.982 148.267C170.173 150.083 170.451 151.891 170.601 152.284L170.873 152.999H165.712L165.468 152.024C165.334 151.488 165.151 150.174 165.062 149.104C164.851 146.601 164.471 145.362 163.686 144.623C163.102 144.072 162.787 144.022 159.439 143.944L155.823 143.859V152.999H150.629V141.147Z" fill="#1C1C24"/>
<path d="M163.591 139.622C164.981 138.902 165.475 136.201 164.466 134.84C163.599 133.671 162.962 133.507 159.264 133.503L155.823 133.499V139.999H159.342C161.911 139.999 163.058 139.898 163.591 139.622Z" fill="#F6E4A2"/>
<path d="M178.677 148.541V144.082L174.354 136.905C171.977 132.957 169.983 129.64 169.924 129.532C169.865 129.425 171.14 129.337 172.757 129.337H175.697L178.381 133.888C179.856 136.39 181.14 138.436 181.234 138.433C181.327 138.43 182.58 136.412 184.017 133.948L186.631 129.467L189.536 129.394C191.134 129.354 192.441 129.362 192.441 129.414C192.441 129.465 190.455 132.814 188.026 136.855L183.612 144.203V152.999H178.677V148.541Z" fill="#1C1C24"/>
<path d="M101.11 121.222C100.739 120.894 99.7631 119.635 98.9417 118.423C98.1202 117.212 97.1416 116.049 96.7669 115.84C96.1264 115.483 96.0241 115.509 95.0632 116.271C94.5007 116.717 93.3481 117.967 92.5015 119.049C91.0069 120.96 90.5581 121.251 89.8244 120.785C89.2801 120.44 89.9896 119.547 92.6568 117.221C95.4751 114.762 95.4107 114.25 92.4563 115.632C89.6097 116.963 87.7634 117.401 84.333 117.555C81.4593 117.684 79.918 117.454 79.918 116.895C79.918 116.766 80.7199 116.239 81.7001 115.723C85.4962 113.726 91.0045 113.147 94.5851 114.368L96.3968 114.986L97.5717 114.398C99.7917 113.288 102.446 112.923 105.847 113.26C109.37 113.608 114.06 115.249 114.387 116.247C114.643 117.028 110.813 117.495 107.317 117.108C104.975 116.849 103.17 116.351 99.4491 114.935C98.6144 114.617 98.2036 114.58 97.8179 114.787C97.3411 115.042 97.4707 115.252 99.5452 117.585C100.779 118.972 101.951 120.2 102.15 120.315C102.614 120.581 102.614 121.129 102.149 121.515C101.864 121.752 101.64 121.689 101.11 121.222V121.222Z" fill="black"/>
<path d="M73.8151 114.153C73.1009 113.977 72.2312 113.678 71.8827 113.489L71.2487 113.145L71.9512 112.54C74.2426 110.567 82.6537 109.879 86.0571 111.386L87.3128 111.942L86.5371 112.429C83.7847 114.156 77.3627 115.026 73.8151 114.153Z" fill="black"/>
<path d="M92.514 113.112C88.1364 111.723 81.9959 106.348 81.9959 103.907C81.9959 103.324 82.0647 103.291 82.9524 103.458C84.0577 103.666 86.9046 105.065 88.2288 106.052C90.7586 107.936 93.176 110.786 93.92 112.762C94.2309 113.588 94.1086 113.619 92.514 113.112Z" fill="black"/>
<path d="M110.762 112.947C109.347 112.709 107.352 112.061 106.408 111.534L105.759 111.172L107.187 110.517C109.775 109.331 113.809 109.009 117.592 109.684C119.535 110.032 121.731 110.93 121.731 111.378C121.731 111.749 119.627 112.665 118.115 112.952C116.521 113.255 112.571 113.252 110.762 112.947Z" fill="black"/>
<path d="M98.2685 112.276C99.2666 109.574 102.938 106.178 106.93 104.263C108.811 103.36 110.823 103.021 110.823 103.607C110.823 104.81 108.164 107.846 105.549 109.629C103.555 110.988 100.575 112.379 99.1964 112.593C98.1862 112.75 98.1039 112.721 98.2685 112.276Z" fill="black"/>
<path d="M71.5196 109.299C68.2743 108.851 64.1305 107.13 63.7204 106.06C63.5674 105.661 64.5587 105.28 66.4408 105.016C68.0892 104.785 71.9938 105.3 74.4052 106.066C76.3613 106.688 79.0095 108.175 79.0095 108.651C79.0093 109.293 74.3795 109.693 71.5196 109.299V109.299Z" fill="black"/>
<path d="M115.108 108.366C113.815 108.152 113.822 107.847 115.145 106.876C117.955 104.81 122.652 103.473 126.535 103.635C129.117 103.743 129.647 104.063 128.778 104.989C127.16 106.714 122.513 108.254 118.484 108.4C117.056 108.452 115.537 108.437 115.108 108.366V108.366Z" fill="black"/>
<path d="M79.6173 107.106C77.8344 105.808 75.9074 103.29 74.4239 100.321C73.3677 98.2066 73.0857 97.3597 72.974 95.9658C72.8979 95.0141 72.9156 94.2354 73.0135 94.2354C74.0783 94.2354 77.0444 97.2547 78.601 99.9235C79.9671 102.265 81.0064 105.39 80.9057 106.852L80.8272 107.987L79.6173 107.106V107.106Z" fill="black"/>
<path d="M111.862 106.997C111.862 104.726 113.242 101.077 115.185 98.2137C116.359 96.483 118.959 93.9746 119.58 93.9746C120.205 93.9746 119.873 96.8574 119.011 98.9149C117.641 102.188 114.382 106.423 112.43 107.469C111.905 107.751 111.862 107.715 111.862 106.997V106.997Z" fill="black"/>
<path d="M72.5834 104.527C69.5911 103.469 66.411 101.335 64.3286 98.9866C63.1135 97.616 62.3575 96.1124 62.7073 95.7621C63.0909 95.3781 65.9238 96.2811 67.9463 97.4319C70.3198 98.7827 73.4726 101.684 74.4821 103.446C74.8981 104.172 75.2396 104.854 75.2409 104.962C75.2454 105.304 74.3831 105.163 72.5834 104.527V104.527Z" fill="black"/>
<path d="M119.005 102.784C120.073 99.2642 126.329 93.8886 130.051 93.2927C131.109 93.1234 131.134 93.1359 130.947 93.7415C130.308 95.8076 128.436 98.1246 125.808 100.102C123.883 101.551 121.162 102.963 119.802 103.219C118.854 103.397 118.824 103.38 119.005 102.784Z" fill="black"/>
<path d="M70.32 96.9816C68.2569 93.9795 67.0989 89.8091 67.235 85.8729C67.3345 82.9906 67.6191 82.4017 68.5252 83.2038C69.369 83.9509 70.9763 87.5877 71.4807 89.8904C71.9793 92.1682 71.9513 97.3756 71.4376 97.8899C71.2212 98.1067 70.9314 97.8714 70.32 96.9816V96.9816Z" fill="black"/>
<path d="M121.167 95.3406C120.662 93.9144 120.739 88.5568 121.294 86.435C121.935 83.9854 123.481 80.9237 124.025 81.0285C125.603 81.3327 125.355 88.9151 123.631 93.0655C123.097 94.3505 121.922 96.3147 121.686 96.3154C121.59 96.3154 121.356 95.8768 121.167 95.3406V95.3406Z" fill="black"/>
<path d="M65.2449 94.807C61.0465 93.3486 55.9994 89.1433 55.353 86.565C55.1704 85.8369 55.1722 85.8359 56.2692 85.9833C57.8822 86.1999 61.3459 87.9649 63.4277 89.6309C65.2428 91.0836 66.7473 92.8322 67.557 94.43L67.985 95.2751L67.2643 95.2667C66.8678 95.2621 65.9591 95.0551 65.2449 94.807Z" fill="black"/>
<path d="M124.33 93.6496C124.335 93.0646 125.802 90.7445 127.038 89.3677C129.259 86.8952 133.125 84.3678 135.317 83.9562C136.217 83.7872 136.274 83.816 136.274 84.4385C136.274 85.4783 134.219 88.2272 132.102 90.0188C129.16 92.5095 124.322 94.7695 124.33 93.6496V93.6496Z" fill="black"/>
<path d="M63.9464 88.6983C60.5569 86.1296 57.4298 81.1282 57.1278 77.7937C57.0475 76.9076 57.0948 76.2944 57.2431 76.2944C57.9311 76.2944 60.1591 78.1624 61.528 79.8874C63.9583 82.9496 65.7848 87.0781 65.5861 89.0618L65.5043 89.8793L63.9464 88.6983Z" fill="black"/>
<path d="M126.226 86.5868C126.545 83.1713 129.163 78.1202 131.885 75.6698C133.642 74.0886 133.938 74.1133 133.931 75.8385C133.92 78.784 131.614 83.3369 128.598 86.3692C127.567 87.4062 126.577 88.2543 126.397 88.2543C126.153 88.2546 126.11 87.8357 126.226 86.5868Z" fill="black"/>
<path d="M65.4573 81.5001C65.7469 77.7413 67.7929 72.8923 70.0827 70.5386C71.7555 68.8193 72.1271 68.862 72.1271 70.7731C72.1271 74.1273 69.8092 79.6049 67.302 82.1762C66.5525 82.9448 65.795 83.5738 65.6186 83.5738C65.3773 83.5738 65.3374 83.0584 65.4573 81.5001Z" fill="black"/>
<path d="M125.471 80.234C122.978 78.4121 120.447 74.8327 119.25 71.4371C118.6 69.5907 118.416 67.7134 118.887 67.7134C120.592 67.7134 124.152 72.032 125.888 76.2076C126.725 78.2225 127.218 80.9743 126.741 80.9743C126.599 80.9743 126.028 80.6412 125.471 80.234V80.234Z" fill="black"/>
<path d="M63.3433 79.783C60.9068 77.6948 58.1118 72.6702 57.5444 69.3576C57.0317 66.3643 57.5857 65.936 59.4958 67.8484C61.1179 69.4725 62.9657 72.534 63.8266 75.0231C64.6172 77.3092 65.0506 80.102 64.6733 80.4798C64.5286 80.6249 64.0061 80.3511 63.3433 79.783V79.783Z" fill="black"/>
<path d="M127.88 77.491C127.532 76.581 127.714 73.2161 128.222 71.1996C128.889 68.5506 130.567 65.1412 131.888 63.7504C133.181 62.3902 133.408 62.6326 133.414 65.3778C133.421 68.9455 131.525 74.005 129.182 76.6709C128.238 77.7448 128.028 77.8771 127.88 77.491Z" fill="black"/>
<path d="M64.4458 72.5122C62.2897 68.8288 61.4285 61.9927 62.7444 59.0067L63.1927 57.9897L63.9162 58.9393C64.8273 60.1354 65.7814 62.8573 66.1733 65.3787C66.6626 68.5256 66.1572 73.6932 65.3602 73.6932C65.2373 73.6932 64.826 73.1618 64.4458 72.5122Z" fill="black"/>
<path d="M125.793 70.5148C125.44 69.9035 124.955 68.76 124.714 67.9734C124.127 66.0558 123.891 60.3503 124.317 58.3913C124.673 56.7555 125.257 55.6543 125.643 55.8928C126.074 56.1596 127.096 58.4113 127.467 59.9129C128.014 62.1215 127.941 67.7238 127.34 69.7356C127.072 70.6334 126.758 71.426 126.643 71.4969C126.529 71.5682 126.146 71.1262 125.793 70.5148V70.5148Z" fill="black"/>
<path d="M67.8165 69.4654C68.5161 65.9622 75.3804 59.1328 78.2016 59.1328C79.0719 59.1328 79.0584 59.4714 78.1123 61.3664C76.2598 65.0771 71.7604 69.1149 68.4029 70.0788C67.6661 70.2907 67.6542 70.2782 67.8165 69.4654V69.4654Z" fill="black"/>
<path d="M120.968 67.7073C117.84 66.5812 114.014 63.6537 112.204 61.0023C111.587 60.0992 111.083 59.251 111.083 59.1171C111.083 58.9832 111.58 58.8738 112.187 58.874C114.257 58.8743 118.701 61.5077 121.185 64.2057C122.26 65.3729 123.808 67.6278 123.808 68.0253C123.808 68.3886 122.433 68.2344 120.968 67.7073Z" fill="black"/>
<path d="M67.3249 65.0292C65.8861 61.585 66.3936 54.3809 68.3032 51.1406C68.5777 50.6746 68.9569 50.2935 69.1454 50.2935C69.334 50.2935 69.6983 50.9079 69.9552 51.6585C70.5006 53.2538 70.5808 58.7011 70.0889 60.7423C69.6615 62.5156 68.8198 64.6277 68.2429 65.3745L67.7407 66.0245L67.3249 65.0292V65.0292Z" fill="black"/>
<path d="M121.122 62.6073C119.125 59.5432 118.406 53.4632 119.551 49.3172C119.96 47.8362 120.132 47.7088 120.772 48.4168C122.606 50.4465 123.621 57.4917 122.664 61.5615C122.173 63.6525 121.917 63.8262 121.122 62.6073V62.6073Z" fill="black"/>
<path d="M70.5743 61.6688C70.5886 59.4563 73.1804 54.3423 75.5453 51.8596C77.3996 49.9134 79.3988 48.87 79.3988 49.8484C79.3988 51.8438 77.2118 56.4388 75.0272 59.033C73.6962 60.6137 71.3885 62.5139 70.8002 62.5139C70.673 62.5139 70.5712 62.1337 70.5743 61.6688V61.6688Z" fill="black"/>
</svg>
