<svg width="370" height="200" viewBox="0 0 370 200" fill="none" xmlns="http://www.w3.org/2000/svg">
<path d="M326.461 83H334.289V108.472H344.236V83H352.063V108.472H359.727C361.032 108.472 362.173 107.329 362.173 106.023V83H370V106.023C370 111.738 365.434 116.31 359.727 116.31H326.625V83H326.461Z" fill="black"/>
<path d="M281.943 93.2869C281.943 87.5719 286.509 83 292.216 83H309.99C315.698 83 320.264 87.5719 320.264 93.2869V116.31H312.436V105.86H289.607V116.31H281.78L281.943 93.2869ZM312.436 93.2869C312.436 91.9806 311.295 90.8376 309.99 90.8376H292.216C290.912 90.8376 289.77 91.9806 289.77 93.2869V98.1854H312.6V93.2869H312.436Z" fill="black"/>
<path d="M276.563 95.7361C276.563 99.4916 274.443 102.921 271.345 104.717L276.563 116.473H268.083L263.517 106.023H248.678V116.473H240.851V83H266.29C271.997 83 276.563 87.5719 276.563 93.2869V95.7361ZM266.29 98.1854C267.594 98.1854 268.736 97.0424 268.736 95.7361V93.2869C268.736 91.9806 267.594 90.8376 266.29 90.8376H248.678V98.1854H266.29Z" fill="black"/>
<path d="M220.467 95.7361C220.467 99.4916 218.347 102.921 215.248 104.717L220.467 116.473H211.987L207.421 106.023H192.582V116.473H184.755V83H210.193C215.901 83 220.467 87.5719 220.467 93.2869V95.7361ZM210.193 98.1854C211.498 98.1854 212.639 97.0424 212.639 95.7361V93.2869C212.639 91.9806 211.498 90.8376 210.193 90.8376H192.582V98.1854H210.193Z" fill="black"/>
<path d="M140.401 93.2869C140.401 87.5719 144.967 83 150.674 83H168.448C174.156 83 178.722 87.5719 178.722 93.2869V116.31H170.894V105.86H148.065V116.31H140.238V93.2869H140.401ZM171.058 93.2869C171.058 91.9806 169.916 90.8376 168.612 90.8376H150.837C149.533 90.8376 148.391 91.9806 148.391 93.2869V98.1854H171.221V93.2869H171.058Z" fill="black"/>
<path d="M137.955 83V90.8376H125.073V116.31H117.083V90.8376H104.2V83H137.955Z" fill="black"/>
<path d="M72.8907 93.2869C72.8907 94.5931 74.0322 95.7361 75.3367 95.7361H91.4804C97.1877 95.7361 101.754 100.308 101.754 106.023C101.754 111.738 97.1877 116.31 91.4804 116.31H66.205V108.472H91.4804C92.7849 108.472 93.9264 107.329 93.9264 106.023C93.9264 104.717 92.7849 103.574 91.4804 103.574H75.3367C69.6294 103.574 65.0635 99.0018 65.0635 93.2869C65.0635 87.5719 69.6294 83 75.3367 83H99.4707V90.8376H75.3367C74.0322 90.8376 72.8907 91.9806 72.8907 93.2869Z" fill="black"/>
<path d="M45.6587 95.8994H58.0518V103.737H45.6587V95.8994Z" fill="black"/>
<path d="M10.2732 116.473C4.56589 116.473 0 111.901 0 106.187V93.4504C0 87.7355 4.56589 83.1636 10.2732 83.1636H37.9947V91.0012H10.2732C8.96871 91.0012 7.82723 92.1442 7.82723 93.4504V106.187C7.82723 107.493 8.96871 108.636 10.2732 108.636H28.3737C29.6783 108.636 30.8197 107.493 30.8197 106.187V103.737H19.0789V95.8997H38.647V106.187C38.647 111.901 34.0811 116.473 28.3737 116.473H10.2732Z" fill="black"/>
</svg>
