<svg width="150" height="200" viewBox="0 0 150 200" fill="none" xmlns="http://www.w3.org/2000/svg">
<path d="M74.9985 25H0V100.002V175H74.9985H150V100.002V25H74.9985Z" fill="#002A5F"/>
<path d="M107.772 63.7458H110.88C113.82 63.7428 115.185 66.4833 115.185 68.5558V100.813C115.188 103.137 113.82 105.292 111.187 105.277H107.772V63.7458ZM110.9 62.5498H98.536V63.7458H101.808V136.255H98.536V137.537H112.485V136.255H107.772V106.751H111.836C117.749 106.751 121.114 103.636 121.114 99.4498V70.4738C121.115 66.2978 118.21 62.5433 110.9 62.5498Z" fill="white"/>
<path d="M45.461 63.5121C45.461 64.7081 44.7635 64.6181 44.2045 64.2256C42.196 62.8151 39.7335 61.8006 37.534 61.8171C33.9485 61.8431 28.8105 63.5791 28.794 71.1391V126.724C28.8485 136.379 33.4945 138.183 38.0745 138.232C41.64 138.266 43.3375 136.383 44.78 135.755C45.541 135.423 46.3735 136.191 46.3735 137.617H47.854V102.254H50.8245V101.065H38.2785V102.254H41.918V132.672C41.918 135.139 40.2425 137.005 38.1315 137.009C36.098 137.009 34.54 135.078 34.54 132.672V68.9291C34.537 67.1961 34.8445 63.1671 37.524 63.1861C42.682 63.2246 45.42 78.3086 45.458 86.1116H46.9385V62.5081H45.465L45.461 63.5121Z" fill="white"/>
<path d="M68.2365 105.379L71.8505 73.0227L75.54 105.379H68.2365ZM75.691 106.703L79.052 136.239H75.7485V137.521H88.1625V136.239H84.8915L76.6435 62.5332H71.361L63.699 132.146C63.248 134.646 63.0145 136.187 59.42 136.241V137.521H68.729V136.239C66.0945 136.241 64.9015 134.557 65.1605 132.766L68.087 106.703H75.691V106.703Z" fill="white"/>
</svg>
