<svg width="277" height="200" viewBox="0 0 277 200" fill="none" xmlns="http://www.w3.org/2000/svg">
<path d="M33.8307 100.985L34.7076 101.031C38.2614 101.262 39.4153 101.862 39.8307 102.185C40.1076 102.462 40.7999 103.431 40.7999 107.215V119.908C40.7999 120.508 40.6614 120.969 40.3845 121.2C40.1999 121.339 39.5999 121.8 37.1999 122.585C36.0922 122.954 34.8922 123.231 33.6922 123.415C32.4461 123.6 31.3384 123.692 30.4615 123.692C25.1076 123.692 20.4922 121.708 16.8461 117.831C13.1538 113.908 11.3077 108.369 11.3077 101.308C11.3077 92.7232 13.1538 86.4925 16.8461 82.8463C20.5384 79.154 24.8307 77.3079 29.6307 77.3079C34.4307 77.3079 38.2153 78.8309 41.1691 81.9694C42.8306 83.7694 44.446 86.5848 46.0614 90.3232L46.2922 90.9232H49.7537L49.0614 72.231H45.7383L45.5076 72.8309C45.2306 73.5233 44.9076 74.0309 44.5383 74.4002C44.3537 74.5386 43.9383 74.8156 42.7845 74.8156C42.646 74.8156 41.8614 74.7233 37.8922 73.5694C34.8461 72.6925 31.7076 72.231 28.523 72.231C19.7538 72.231 12.6 75.2771 7.29229 81.3232C2.44615 86.7232 0 93.3694 0 100.985C0 109.662 3.0923 116.677 9.18459 121.846C14.6769 126.508 21.5076 128.862 29.4922 128.862C33.7845 128.862 38.3537 128.077 43.0153 126.462C49.246 124.339 50.5383 123.092 50.5383 121.8V106.154C50.5383 103.939 50.9537 102.415 51.8306 101.769C52.1075 101.539 52.8922 101.169 55.1998 100.985L56.0768 100.939V97.6155H33.8307V100.985Z" fill="black"/>
<path d="M100.292 76.4769L101.169 76.5692C103.8 76.8461 105.6 77.4461 106.477 78.3692C106.938 78.8768 107.769 80.5384 107.769 85.8461V106.569C107.769 111.461 107.169 115.108 106.015 117.415C103.938 121.477 99.9229 123.415 93.7845 123.415C88.1999 123.415 84.5076 121.523 82.5691 117.6C81.5076 115.431 80.9537 112.292 80.9537 108.277V82.7999C80.9537 79.3384 81.5999 78.2307 82.0153 77.9076C82.4307 77.5384 83.6768 76.8461 87.3691 76.6153L88.246 76.5692V73.2461H63.6923V76.5692L64.5692 76.6153C68.2153 76.8922 69.4153 77.5845 69.8307 77.9538C70.1999 78.323 70.8461 79.3845 70.8461 82.8461V107.723C70.8461 112.8 71.723 116.954 73.4768 120.092C76.7538 126 82.9384 129 91.8922 129C100.938 129 107.169 125.954 110.446 120C112.2 116.769 113.077 112.292 113.077 106.661V85.9384C113.077 80.7691 113.815 79.1076 114.277 78.5538C114.831 77.9076 116.169 77.0307 119.677 76.6615L120.554 76.5692V73.2923H100.2V76.4769H100.292Z" fill="black"/>
<path d="M172.846 112.939C170.907 117.231 168.738 119.954 166.384 121.015C163.938 122.123 160.061 122.677 154.846 122.677C148.753 122.677 146.769 122.446 146.123 122.308C145.938 122.262 145.338 122.077 145.338 120.415V101.723H156.646C160.661 101.723 162 102.462 162.415 102.923C162.969 103.523 163.753 104.954 164.446 108.554L164.584 109.339H168.184V89.0309H164.538L164.4 89.8155C163.753 93.4155 162.923 94.8463 162.369 95.4463C161.953 95.9078 160.661 96.6463 156.6 96.6463H145.292V79.8463C145.292 78.6463 145.477 78.3232 145.477 78.3232C145.477 78.3232 145.753 78.1386 146.907 78.1386H157.753C163.292 78.1386 165.369 78.8771 166.2 79.4771C166.984 80.0771 168.092 81.6463 168.876 85.7078L169.015 86.4925H172.8L172.476 73.2002H128.307V76.5233L129.184 76.5694C132.738 76.8002 133.892 77.4925 134.307 77.9079C134.677 78.2771 135.323 79.4309 135.323 82.754V118.154C135.323 121.8 134.63 122.769 134.354 123C133.938 123.323 132.738 123.969 129.184 124.339L128.307 124.431V127.708H173.03L177.138 112.339H173.076L172.846 112.939Z" fill="black"/>
<path d="M212.769 96.8766L205.753 92.5381C203.261 91.0151 201.369 89.492 200.215 88.1074C199.107 86.8151 198.599 85.292 198.599 83.492C198.599 81.5074 199.292 79.9843 200.676 78.8766C202.153 77.7228 203.815 77.1689 205.753 77.1689C208.338 77.1689 211.015 78.1382 213.692 80.0305C216.369 81.9228 218.307 85.3382 219.553 90.1843L219.738 90.9228H223.476L221.538 72.0459H218.307L218.122 72.7843C217.938 73.4767 217.707 74.0305 217.43 74.3997C217.246 74.6305 216.784 74.7228 216.184 74.7228C216.046 74.7228 215.353 74.5844 212.076 73.4305C209.446 72.5074 207.138 72.0459 205.199 72.0459C200.538 72.0459 196.753 73.4767 193.892 76.3382C191.03 79.1997 189.599 82.7997 189.599 87.0459C189.599 90.3228 190.799 93.3228 193.246 95.9997C194.492 97.3843 196.246 98.7689 198.322 100.107L205.107 104.354C208.938 106.753 211.476 108.553 212.63 109.707C214.338 111.461 215.169 113.446 215.169 115.8C215.169 118.43 214.384 120.369 212.722 121.8C211.061 123.277 209.076 123.969 206.769 123.969C202.338 123.969 198.738 122.261 195.738 118.753C194.03 116.723 192.461 113.953 191.169 110.492L190.938 109.892H187.338L189.969 128.769H193.384L193.522 127.984C193.615 127.43 193.799 126.969 194.03 126.461C194.169 126.23 194.538 126.092 195.046 126.092C195.184 126.092 195.876 126.23 199.384 127.43C202.153 128.4 204.876 128.907 207.415 128.907C212.538 128.907 216.83 127.43 220.107 124.477C223.476 121.523 225.138 117.738 225.138 113.307C225.138 109.984 224.169 107.077 222.276 104.63C220.43 102.184 217.199 99.5997 212.769 96.8766Z" fill="black"/>
<path d="M274.061 104.492C272.215 102.185 268.984 99.5999 264.553 96.8307L257.538 92.4922C255.045 90.9692 253.153 89.4461 251.999 88.0615C250.892 86.7692 250.384 85.2461 250.384 83.4461C250.384 81.4615 251.076 79.9384 252.461 78.8307C253.938 77.6769 255.599 77.1231 257.584 77.1231C260.169 77.1231 262.845 78.0923 265.522 79.9846C268.199 81.8769 270.138 85.2923 271.384 90.1384L271.569 90.8769H275.261L273.322 72H270.092L269.907 72.7385C269.722 73.4308 269.492 73.9846 269.215 74.3538C269.03 74.5846 268.569 74.6769 267.969 74.6769C267.83 74.6769 267.138 74.5385 263.861 73.3846C261.23 72.4615 258.922 72 256.984 72C252.322 72 248.538 73.4308 245.676 76.2923C242.815 79.1538 241.384 82.7538 241.384 87C241.384 90.2769 242.584 93.2769 245.03 95.9538C246.276 97.3384 248.03 98.723 250.107 100.061L256.892 104.308C260.722 106.708 263.261 108.508 264.415 109.661C266.122 111.415 266.953 113.4 266.953 115.754C266.953 118.384 266.169 120.323 264.507 121.754C262.845 123.231 260.861 123.923 258.553 123.923C254.122 123.923 250.522 122.215 247.522 118.708C245.815 116.677 244.246 113.908 242.953 110.446L242.722 109.846H239.076L241.707 128.723H245.122L245.261 127.938C245.353 127.384 245.538 126.923 245.769 126.415C245.907 126.184 246.276 126.046 246.784 126.046C246.922 126.046 247.615 126.184 251.076 127.384C253.845 128.354 256.569 128.861 259.107 128.861C264.23 128.861 268.522 127.384 271.799 124.431C275.169 121.477 276.83 117.692 276.83 113.261C276.922 109.892 275.953 106.938 274.061 104.492Z" fill="black"/>
</svg>
