<svg width="150" height="200" viewBox="0 0 150 200" fill="none" xmlns="http://www.w3.org/2000/svg">
<path d="M105.415 54.0018C110.863 51.3253 113.563 51.6765 113.624 54.3894C113.696 57.9135 113.176 62.6 112.8 65.9909C110.778 84.4214 107.4 99.4817 107.146 118.405C116.045 95.3618 123.503 79.3461 133.117 59.621C136.168 53.3357 138.117 54.5105 140.623 53.3963C150.382 49.0488 150.746 51.713 149.474 57.0294C144.74 76.7206 132.62 138.72 130.768 148.266C130.235 151.029 127.233 149.858 126.457 148.777C122.983 143.97 119.06 143.895 119.496 140.698C121.675 124.781 129.521 84.8465 131.567 75.4368C121.142 96.8137 110.33 123.537 104.773 138.69C103.598 141.907 101.455 141.671 100.123 139.317C98.2466 136.01 94.6023 134.321 93.9967 130.413C92.096 117.989 96.1763 94.3058 96.7451 79.323C91.0669 95.6899 81.5381 127.466 77.3609 141.822C75.6418 147.762 69.9026 146.793 71.4281 141.004C77.7723 116.911 91.4422 74.2985 97.3506 58.9791C98.7436 55.37 102.388 55.4911 105.415 54.0018Z" fill="#CC071E"/>
<path d="M70.8105 51.0471C68.9703 50.5991 63.6307 53.4813 60.3495 54.0504C59.3083 54.2321 58.3154 55.334 57.9642 56.1214C52.7094 68.1952 47.9996 79.7047 43.9194 90.1896C38.701 91.0809 32.5989 92.2545 25.7702 93.7887C30.6615 81.2389 35.6016 68.8611 40.4204 56.9568C42.7934 51.0953 36.546 50.5383 34.1243 56.4724C30.9762 64.1867 25.0799 78.6402 18.5538 95.4866C13.7591 96.6625 8.67405 98.0066 3.3587 99.5424C-0.503776 100.658 -0.660977 101.687 1.00991 104.004C1.93002 105.294 3.83095 105.164 4.70259 106.083C6.95472 108.465 8.3229 111.315 12.3545 111.746C8.75851 121.367 5.16257 131.289 1.90567 140.843C-0.140504 146.84 5.6832 148.066 7.92326 141.721C11.5313 131.491 15.3331 121.138 19.2439 110.816C22.5008 110.058 30.3828 108.361 37.6594 106.781C31.8841 122.614 28.0821 134.639 26.6415 140.491C26.3752 141.618 26.8231 142.243 27.0653 142.702C29.0145 145.539 30.867 145.655 33.3734 149.163C34.0516 150.12 36.3278 150.636 37.1025 148.281C42.4541 132.112 47.9631 116.942 53.0966 103.342C55.2275 102.876 59.0656 101.949 61.4145 98.4434C65.5915 92.221 66.7901 93.483 67.7953 91.5914C69.0545 89.2166 68.2189 86.9871 63.7635 87.538C63.7635 87.538 62.0805 87.6578 58.9688 88.0126C63.9087 75.2909 68.2311 64.5007 71.3428 56.278C72.4087 53.4934 72.542 51.4589 70.8105 51.0471Z" fill="#CC071E"/>
<path d="M63.5223 133.558C64.6724 136.466 68.2684 135.586 66.9002 132.076C65.5077 128.501 62.045 117.739 61.1368 114.272C59.9019 109.6 65.2534 110.877 62.5413 113.932C60.2168 116.558 58.6668 117.61 54.3687 122.605C50.2159 127.426 51.3419 133.682 55.7854 135.064C60.7979 136.624 65.2173 131.099 67.9535 127.046C70.605 123.121 68.0381 120.819 65.3624 123.139C63.6431 124.631 61.6574 126.922 59.6475 128.157C58.013 129.152 56.7295 128.084 58.909 125.083C61.4395 121.608 64.2726 118.697 66.3793 115.414C70.6776 108.723 62.178 104.866 58.5214 109.212C56.5599 111.529 57.0564 113.803 57.5892 115.755C58.449 118.882 61.6454 128.864 63.5223 133.558Z" fill="#CC071E"/>
</svg>
