<svg width="185" height="200" viewBox="0 0 185 200" fill="none" xmlns="http://www.w3.org/2000/svg">
<path d="M2.63965 123.38H4.0986V127.756H9.69152V123.38H11.102V133.591H9.69152V128.923H4.0986V133.591H2.63965V123.38Z" fill="black"/>
<path d="M33.7172 129.895C33.7172 132.472 32.1608 133.834 29.4859 133.834C26.7624 133.834 25.1089 132.618 25.1089 129.895V123.38H26.5678V129.895C26.5678 131.694 27.6378 132.715 29.4859 132.715C31.2854 132.715 32.3067 131.694 32.3067 129.895V123.38H33.7172V129.895Z" fill="black"/>
<path d="M51.371 133.883C48.1612 134.077 46.2158 131.354 46.2158 128.68C46.2158 125.714 47.918 123.137 51.3223 123.137C53.6568 123.137 55.5048 124.11 55.8939 126.541H54.4836C54.1917 124.985 52.8786 124.256 51.3223 124.256C48.6961 124.256 47.6261 126.444 47.6261 128.632C47.6261 130.771 48.988 132.813 51.5655 132.765C52.8786 132.716 53.9485 132.473 54.4836 131.598C54.8726 131.063 54.7753 130.09 54.7266 129.361H51.3223V128.194H55.9912C55.9912 128.194 55.9912 130.868 55.9912 132.035C54.7753 133.542 53.3163 133.786 51.371 133.883Z" fill="black"/>
<path d="M73.4509 132.716C76.0285 132.716 77.1471 130.528 77.1471 128.486C77.1471 126.444 76.0285 124.256 73.4509 124.256C70.8247 124.256 69.7547 126.444 69.7547 128.486C69.7547 130.528 70.8247 132.716 73.4509 132.716ZM73.4509 123.137C76.8552 123.137 78.5574 125.714 78.5574 128.486C78.5574 131.257 76.8552 133.834 73.4509 133.834C70.0464 133.834 68.3442 131.257 68.3442 128.486C68.3442 125.714 70.0464 123.137 73.4509 123.137Z" fill="black"/>
<path d="M107.203 127.756H110.024C111.629 127.756 112.309 127.221 112.309 126.151C112.309 124.741 111.288 124.498 110.024 124.498H107.203V127.756ZM107.203 132.472H110.753C111.969 132.472 112.747 131.743 112.747 130.625C112.747 129.312 111.629 128.923 110.413 128.923H107.203V132.472ZM105.792 123.38H109.635C110.607 123.38 111.823 123.38 112.455 123.72C113.185 124.158 113.72 124.887 113.72 125.86C113.72 126.978 113.136 127.805 112.164 128.194C113.477 128.437 114.206 129.409 114.206 130.673C114.206 132.181 113.039 133.591 110.948 133.591H105.792V123.38Z" fill="black"/>
<path d="M132.055 132.716C134.681 132.716 135.751 130.528 135.751 128.486C135.751 126.444 134.681 124.256 132.055 124.256C129.477 124.256 128.359 126.444 128.359 128.486C128.359 130.528 129.477 132.716 132.055 132.716ZM132.055 123.137C135.459 123.137 137.21 125.714 137.21 128.486C137.21 131.257 135.459 133.834 132.055 133.834C128.65 133.834 126.948 131.257 126.948 128.486C126.948 125.714 128.65 123.137 132.055 123.137Z" fill="black"/>
<path d="M156.809 126.395C156.663 124.888 155.642 124.256 154.183 124.256C152.967 124.256 151.8 124.693 151.8 126.006C151.8 127.27 153.502 127.465 155.204 127.854C156.906 128.194 158.608 128.777 158.608 130.82C158.608 132.959 156.371 133.834 154.426 133.834C152.043 133.834 150.049 132.716 150.049 130.236H151.362C151.362 131.938 152.87 132.716 154.474 132.716C155.788 132.716 157.198 132.327 157.198 130.82C157.198 129.41 155.496 129.215 153.794 128.826C152.091 128.486 150.341 127.999 150.341 126.103C150.341 124.061 152.286 123.137 154.231 123.137C156.42 123.137 158.073 124.11 158.171 126.395H156.809Z" fill="black"/>
<path d="M179.862 126.395C179.667 124.888 178.646 124.256 177.187 124.256C176.02 124.256 174.804 124.693 174.804 126.006C174.804 127.27 176.506 127.465 178.257 127.854C179.959 128.194 181.661 128.777 181.661 130.82C181.661 132.959 179.424 133.834 177.479 133.834C175.096 133.834 173.053 132.716 173.053 130.236H174.415C174.415 131.938 175.923 132.716 177.528 132.716C178.792 132.716 180.251 132.327 180.251 130.82C180.251 129.41 178.5 129.215 176.798 128.826C175.096 128.486 173.394 127.999 173.394 126.103C173.394 124.061 175.29 123.137 177.284 123.137C179.424 123.137 181.126 124.11 181.175 126.395H179.862Z" fill="black"/>
<path d="M15.1873 69.4085V87.7878H21.8502C21.8502 87.7878 22.4338 87.7392 22.7743 87.642C26.6649 87.3016 29.1453 82.6338 29.3884 79.2302C29.7775 75.5835 27.5403 69.5543 21.9475 69.4085C20.2938 69.3598 15.1873 69.4085 15.1873 69.4085ZM15.1873 89.9272V111.953H21.2179C21.2179 111.953 24.6224 112.196 27.6862 109.717C30.7016 107.286 32.2578 103.687 31.9175 99.5545C31.6743 95.8592 28.8535 90.608 22.5311 89.9272C19.1754 89.9272 15.1873 89.9272 15.1873 89.9272ZM29.3884 67.269C34.3978 67.5608 37.6562 70.235 37.948 70.5754C40.5256 72.9579 41.3037 76.556 40.6715 80.0082C39.8448 85.7943 32.6469 88.2254 32.6469 88.2254C38.6775 88.9548 43.2004 93.4767 43.8813 98.339C44.465 103.104 42.7142 107.334 38.7748 110.3C34.7867 113.266 28.9508 114.239 25.7895 114.239C25.7895 114.239 1.37529 114.239 0.0136192 114.239C0.0136192 113.461 0.0136192 112.877 0.0136192 112.196C3.32067 112.245 3.70981 112.245 3.70981 110.932C3.66117 105.973 3.70981 71.3533 3.70981 70.4295C3.70981 69.3598 3.17474 69.3112 0.0136192 69.3112C-0.0350215 68.4846 0.062262 67.269 0.062262 67.269H29.3884Z" fill="black"/>
<path d="M69.1707 69.7976C65.961 71.937 63.7237 76.8479 62.6539 80.9323C60.9516 87.1073 61.2921 94.4007 62.9942 101.889C64.7451 109.377 69.5599 112.002 72.4293 112.634C77.779 113.85 81.2806 110.738 83.1773 107.869C86.8735 102.278 87.7976 90.754 86.6303 84.1413C85.5603 78.0149 83.9068 73.7361 80.697 70.8673C77.0981 67.7069 71.9429 67.95 69.1707 69.7976ZM98.0107 98.874C95.7735 105.535 91.2992 109.717 86.144 112.44C79.3839 116.086 69.7058 116.67 62.9456 112.634C58.7631 110.155 48.1124 103.542 49.5227 87.9339C49.8145 84.5789 51.5167 76.1672 60.9031 69.8463C67.3226 65.6647 76.5631 64.4491 85.1714 68.4362C98.5943 74.5627 101.415 89.6843 98.0107 98.874Z" fill="black"/>
<path d="M137.453 69.4568C137.501 72.9576 137.453 80.2024 137.453 80.2024L135.75 80.2511C134.729 75.7291 132.54 71.8393 128.796 70.0403C125.197 68.2899 119.75 67.4147 116.199 70.5265C114.108 72.3742 113.816 74.2704 114.546 76.4098C115.811 79.5703 119.312 80.5428 122.036 81.7584C124.273 82.6336 129.039 84.1895 129.039 84.1895C134.34 86.0372 140.225 89.6352 141.83 95.6158C142.559 98.1928 142.559 101.11 141.975 103.736C140.662 109.571 136.918 110.981 134.778 112.439C133.708 113.169 123.689 117.01 111.628 113.071C109.148 112.245 106.278 111.272 106.278 111.272V98.1928C106.278 98.1928 107.591 98.2415 108.126 98.2415C108.953 100.332 109.683 102.861 111.433 105.389C115.519 111.321 121.306 113.12 127.677 111.759C130.206 111.175 132.978 109.425 133.708 106.799C134.632 103.833 134.34 98.9222 125.391 95.6158C118.923 92.6498 110.801 91.4343 106.959 84.2381C105.451 80.2024 105.889 73.2007 110.85 69.7971C115.859 66.3936 120.722 65.6156 126.607 66.3936C132.443 67.2202 134 67.9981 137.453 69.4568Z" fill="black"/>
<path d="M180.056 69.4568C180.105 72.9576 180.056 80.2024 180.056 80.2024L178.354 80.2511C177.332 75.7291 175.144 71.8393 171.399 70.0403C167.8 68.2899 162.353 67.4147 158.803 70.5265C156.712 72.3742 156.42 74.2704 157.149 76.4098C158.414 79.5703 161.916 80.5428 164.639 81.7584C166.876 82.6336 171.642 84.1895 171.642 84.1895C176.943 86.0372 182.828 89.6352 184.433 95.6158C185.162 98.1928 185.162 101.11 184.579 103.736C183.266 109.571 179.521 110.981 177.381 112.439C176.311 113.169 166.293 117.01 154.231 113.071C151.751 112.245 148.882 111.272 148.882 111.272V98.1928C148.882 98.1928 150.195 98.2415 150.73 98.2415C151.556 100.332 152.286 102.861 154.037 105.389C158.122 111.321 163.91 113.12 170.281 111.759C172.81 111.175 175.582 109.425 176.311 106.799C177.235 103.833 176.943 98.9222 167.995 95.6158C161.526 92.6498 153.405 91.4343 149.563 84.2381C148.055 80.2024 148.493 73.2007 153.502 69.7971C158.463 66.3936 163.326 65.6156 169.162 66.3936C175.047 67.2202 176.603 67.9981 180.056 69.4568Z" fill="black"/>
</svg>
