<svg width="52" height="52" viewBox="0 0 52 52" fill="none" xmlns="http://www.w3.org/2000/svg">
<circle cx="26" cy="26" r="26" fill="white"/>
<path d="M33.4894 9.67041H18.5111C13.6363 9.67041 9.67041 13.6363 9.67041 18.5111V33.4896C9.67041 38.3642 13.6363 42.3301 18.5111 42.3301H33.4896C38.3642 42.3301 42.3301 38.3642 42.3301 33.4896V18.5111C42.3301 13.6363 38.3642 9.67041 33.4894 9.67041V9.67041ZM26.0002 34.9304C21.0761 34.9304 17.0701 30.9244 17.0701 26.0002C17.0701 21.0761 21.0761 17.0701 26.0002 17.0701C30.9244 17.0701 34.9304 21.0761 34.9304 26.0002C34.9304 30.9244 30.9244 34.9304 26.0002 34.9304V34.9304ZM35.1439 19.1761C33.6887 19.1761 32.5052 17.9926 32.5052 16.5374C32.5052 15.0822 33.6887 13.8984 35.1439 13.8984C36.5991 13.8984 37.7829 15.0822 37.7829 16.5374C37.7829 17.9926 36.5991 19.1761 35.1439 19.1761Z" fill="#3D2860"/>
<path d="M25.9998 18.9844C22.1317 18.9844 18.9844 22.1314 18.9844 25.9998C18.9844 29.868 22.1317 33.0153 25.9998 33.0153C29.8683 33.0153 33.0153 29.868 33.0153 25.9998C33.0153 22.1314 29.8683 18.9844 25.9998 18.9844V18.9844Z" fill="#3D2860"/>
<path d="M35.1435 15.813C34.7444 15.813 34.4194 16.1379 34.4194 16.5371C34.4194 16.9363 34.7444 17.2612 35.1435 17.2612C35.543 17.2612 35.8679 16.9365 35.8679 16.5371C35.8679 16.1377 35.543 15.813 35.1435 15.813Z" fill="#3D2860"/>
</svg>
