<svg width="136" height="140" viewBox="0 0 136 140" fill="none" xmlns="http://www.w3.org/2000/svg">
<circle cx="60.5" cy="79.5" r="60.5" fill="#3D2860"/>
<path d="M86.7224 12.3354C84.6336 12.3354 82.1958 13.1564 80.034 14.5875C78.7001 15.4708 77.5778 16.5174 76.7192 17.6047C77.863 18.3842 78.8323 19.5729 79.5512 21.1169C80.1057 22.3077 80.4773 23.6547 80.6667 25.0846C82.3132 24.7796 84.0602 24.063 85.6588 23.0045C89.7243 20.3122 91.8713 16.1104 90.3469 13.8295C89.4785 12.5294 87.7033 12.3354 86.7224 12.3354Z" fill="#B7B1FF"/>
<path d="M75.6931 3.96034C75.581 3.94618 75.4669 3.93896 75.3538 3.93896C73.3119 3.93896 71.2816 6.172 70.1997 9.30222C70.8143 9.96912 71.3918 10.6991 71.9174 11.4855C72.8725 12.9147 73.5994 14.4331 74.0706 15.9511C75.1486 14.5171 76.578 13.1632 78.3138 12.0139C78.769 11.7127 79.2325 11.4363 79.7011 11.1816C79.6573 9.5374 79.3362 8.00114 78.74 6.72093C78.3017 5.77866 77.3222 4.16693 75.6931 3.96034Z" fill="#B7B1FF"/>
<path d="M69.0643 32.4426C68.6806 31.2489 68.0945 30.0429 67.3264 28.8938C65.2708 25.8172 62.2557 23.75 59.8243 23.75C59.1637 23.75 58.5869 23.9102 58.1095 24.2263C55.8181 25.7435 56.1666 30.4447 58.871 34.4922C59.379 35.2524 59.948 35.944 60.5499 36.5632C61.6292 36.928 62.7106 37.4965 63.7469 38.236C64.974 35.4291 66.8824 33.3292 69.0643 32.4426Z" fill="#B7B1FF"/>
<path d="M65.3529 44.3269C63.2973 41.2503 60.2824 39.1831 57.8513 39.1831C57.1906 39.1831 56.6138 39.3433 56.1364 39.6594C53.8448 41.1768 54.1936 45.8781 56.898 49.9256C58.9533 53.0017 61.9685 55.0686 64.3996 55.0689C64.3999 55.0689 64.3999 55.0689 64.3999 55.0689C65.0605 55.0689 65.6373 54.9087 66.1147 54.5926C67.4823 53.6872 67.6401 51.8104 67.613 50.772C67.5584 48.7147 66.7559 46.4257 65.3529 44.3269Z" fill="#B7B1FF"/>
<path d="M91.688 29.4693C92.1494 31.089 91.9465 32.9581 91.0696 34.8957C91.0134 35.0196 90.9539 35.1432 90.8926 35.2666C91.0621 36.316 91.3635 37.3925 91.7993 38.4558C93.5739 42.7872 96.6832 45.0534 98.8377 45.0534C99.2145 45.0534 99.5729 44.9854 99.9031 44.8515C102.452 43.8167 103.047 39.1402 101.203 34.6394C99.429 30.3083 96.3197 28.042 94.1652 28.042C93.7884 28.042 93.43 28.11 93.1001 28.2439C92.4767 28.4972 92.0221 28.9515 91.688 29.4693Z" fill="#B7B1FF"/>
<path d="M74.9907 56.386H74.9912C77.0797 56.386 79.5173 55.5651 81.6793 54.1337C83.788 52.7373 85.4169 50.9352 86.2662 49.0589C86.6944 48.112 87.2777 46.32 86.3681 44.9589C85.4995 43.6586 83.7241 43.4644 82.7433 43.4644C80.6546 43.4644 78.2167 44.2853 76.055 45.7165C71.989 48.4083 69.8418 52.6101 71.3662 54.8915C72.2346 56.1918 74.01 56.386 74.9907 56.386Z" fill="#B7B1FF"/>
<path d="M74.3353 43.1427C74.7918 42.8406 75.2573 42.5634 75.7275 42.3079C75.6825 40.6645 75.3572 39.1298 74.7615 37.8501C74.3229 36.9078 73.3438 35.2961 71.7146 35.0897C71.6023 35.0756 71.4881 35.0684 71.3751 35.0684C69.3331 35.0684 67.3029 37.3014 66.2207 40.4314C66.8355 41.0983 67.4134 41.8283 67.9389 42.6147C68.8932 44.0425 69.6204 45.5597 70.0921 47.0764C71.1704 45.6437 72.6008 44.2911 74.3353 43.1427Z" fill="#B7B1FF"/>
<path d="M77.5786 36.5505C78.166 37.8119 78.5475 39.2484 78.7239 40.7734C80.3521 40.4607 82.0752 39.7448 83.6524 38.7006C85.7611 37.3044 87.39 35.5023 88.239 33.6263C88.6675 32.6794 89.2505 30.8874 88.3412 29.526C87.4726 28.2257 85.6972 28.0317 84.7162 28.0317C82.6274 28.0317 80.1896 28.8527 78.0281 30.2838C76.77 31.1169 75.6992 32.0949 74.8613 33.1153C75.9556 33.8955 76.8833 35.058 77.5786 36.5505Z" fill="#B7B1FF"/>
<path d="M72.0654 31.658C73.1432 30.2204 74.5682 28.8618 76.3079 27.7102C76.7625 27.409 77.226 27.1329 77.6944 26.8784C77.6506 25.234 77.3303 23.6972 76.7341 22.4172C76.2955 21.475 75.316 19.8632 73.6868 19.6569C73.5745 19.6427 73.4604 19.6353 73.3471 19.6353C71.3054 19.6353 69.2772 21.8704 68.1953 25.0003C68.8094 25.6667 69.3867 26.3962 69.9115 27.1818C70.8686 28.614 71.5945 30.1364 72.0654 31.658Z" fill="#B7B1FF"/>
<path d="M61.8308 8.05371C61.1699 8.05371 60.5931 8.21393 60.1157 8.52999C57.8243 10.0474 58.1732 14.7484 60.8773 18.7959C61.5084 19.7408 62.2319 20.5841 62.9999 21.3054C63.9193 21.6665 64.8354 22.1714 65.7185 22.8017C66.9647 19.9517 68.914 17.83 71.1381 16.9678C70.7575 15.702 70.1481 14.418 69.3322 13.1975C67.2765 10.1209 64.2622 8.05371 61.8308 8.05371Z" fill="#B7B1FF"/>
<path d="M103.401 32.0032C103.644 32.4754 103.871 32.9648 104.079 33.472C104.865 35.3921 105.285 37.3106 105.369 39.099C106.615 38.1083 108.073 37.2601 109.668 36.6128C110.543 36.2581 111.434 35.9781 112.326 35.7671C113.259 32.3718 112.722 29.2519 110.793 28.2762C110.399 28.077 109.955 27.9761 109.472 27.9761C107.484 27.9761 105.171 29.5602 103.401 32.0032Z" fill="#B7B1FF"/>
<path d="M110.481 18.1354C110.724 18.6071 110.95 19.096 111.158 19.6021C111.925 21.4753 112.353 23.4067 112.435 25.2449C113.684 24.2483 115.145 23.3931 116.748 22.7427C117.623 22.3874 118.516 22.1072 119.409 21.8962C119.777 20.5557 119.918 19.2361 119.807 18.027C119.713 16.9925 119.336 15.1466 117.872 14.406C117.478 14.2069 117.034 14.106 116.552 14.106C114.564 14.1062 112.251 15.6924 110.481 18.1354Z" fill="#B7B1FF"/>
<path d="M116.524 11.0163C116.431 9.61062 116.082 8.12433 115.483 6.66329C113.709 2.33193 110.6 0.065918 108.445 0.065918C108.069 0.065918 107.71 0.133921 107.38 0.267868C104.832 1.30234 104.236 5.97861 106.079 10.48C106.868 12.4034 107.92 13.9098 109.034 14.9996C111.247 12.533 113.974 11.0274 116.524 11.0163Z" fill="#B7B1FF"/>
<path d="M126.606 7.79129C126.974 6.45054 127.118 5.1304 127.008 3.92128C126.914 2.8868 126.537 1.04092 125.073 0.300349C124.678 0.100975 124.234 0 123.752 0C121.763 0 119.451 1.58546 117.681 4.02869C117.923 4.50034 118.15 4.98976 118.358 5.49618C119.125 7.36807 119.556 9.29845 119.638 11.1353C120.887 10.1397 122.347 9.2866 123.948 8.63696C124.822 8.282 125.714 8.002 126.606 7.79129Z" fill="#B7B1FF"/>
<path d="M114.675 48.8357C119.196 47.0001 122.138 43.3065 121.099 40.7698C120.504 39.3159 118.541 38.4131 115.976 38.4131C114.329 38.4131 112.553 38.7804 110.84 39.4754C108.495 40.4272 106.539 41.8717 105.333 43.5427C104.724 44.3861 103.795 46.0272 104.415 47.5407C105.011 48.9948 106.974 49.8979 109.539 49.8979C111.187 49.8979 112.962 49.5306 114.675 48.8357Z" fill="#B7B1FF"/>
<path d="M128.179 26.8997C127.584 25.4458 125.621 24.543 123.056 24.543C121.409 24.543 119.633 24.9103 117.92 25.6053C116.638 26.1256 115.476 26.7951 114.486 27.5663C115.794 29.5126 116.196 32.308 115.617 35.3316C115.737 35.3285 115.858 35.3218 115.977 35.3218C117.15 35.3218 118.239 35.4686 119.221 35.7429C120.066 35.5649 120.917 35.305 121.754 34.9655C126.276 33.1302 129.218 29.4364 128.179 26.8997Z" fill="#B7B1FF"/>
<path d="M109.305 24.8927C109.191 23.5553 108.849 22.1512 108.283 20.7692C106.509 16.4379 103.4 14.1719 101.245 14.1719C100.868 14.1719 100.51 14.2399 100.18 14.3738C98.6589 14.9913 98.1298 16.7995 97.9497 17.8227C97.5928 19.8494 97.923 22.2512 98.8792 24.5857C99.6562 26.4823 100.69 27.9763 101.786 29.0626C103.989 26.5284 106.73 24.9582 109.305 24.8927Z" fill="#B7B1FF"/>
<path d="M135.379 12.7935C134.784 11.3396 132.821 10.4365 130.256 10.4365C128.609 10.4365 126.833 10.8038 125.12 11.4991C123.759 12.0516 122.533 12.7718 121.505 13.6038C122.271 14.705 122.751 16.1102 122.9 17.7479C123.008 18.9326 122.932 20.1876 122.69 21.4616C122.812 21.4585 122.935 21.4518 123.056 21.4518C124.04 21.4518 124.965 21.5535 125.817 21.7478C126.858 21.5767 127.917 21.2805 128.954 20.8596C133.476 19.0238 136.418 15.3299 135.379 12.7935Z" fill="#B7B1FF"/>
<path d="M83.8762 68.793C82.0384 64.3071 78.8116 61.96 76.5738 61.96C76.1792 61.96 75.8032 62.0313 75.4572 62.1717C73.8671 62.817 73.3157 64.6994 73.1281 65.7643C72.7585 67.8631 73.1001 70.3494 74.0894 72.765C75.1162 75.2714 76.5764 77.1062 78.0557 78.2401C79.7915 78.2437 81.3092 78.6401 82.5156 79.3833C85.162 78.3004 85.7856 73.4544 83.8762 68.793Z" fill="#B7B1FF"/>
<path d="M97.7413 83.4952C102.428 81.5929 105.474 77.7551 104.393 75.1148C103.771 73.5971 101.73 72.6543 99.0649 72.6543C97.3597 72.6543 95.5222 73.0345 93.7509 73.7534C91.3239 74.7385 89.2996 76.2338 88.0506 77.964C87.4171 78.8418 86.4509 80.5509 87.0991 82.1336C87.7206 83.6513 89.762 84.5941 92.4268 84.5941C94.1321 84.5941 95.9696 84.2141 97.7413 83.4952Z" fill="#B7B1FF"/>
<path d="M64.9687 85.2054C66.084 83.7052 67.5757 82.2882 69.3892 81.0873C69.8674 80.7707 70.3546 80.4804 70.8478 80.2138C70.7404 76.2302 69.0486 72.9967 66.6657 72.6948C66.5479 72.6798 66.4281 72.6724 66.3096 72.6724C64.1792 72.6724 62.0609 75.0015 60.9399 78.2623C61.5794 78.9539 62.1802 79.7118 62.7262 80.5291C63.7261 82.0252 64.4845 83.6165 64.9687 85.2054Z" fill="#B7B1FF"/>
<path d="M62.4791 88.9127C62.4227 86.7827 61.592 84.4134 60.1406 82.2414C58.012 79.0561 54.8874 76.916 52.3647 76.916C51.6735 76.916 51.0696 77.084 50.5694 77.4152C49.1397 78.3619 48.9743 80.3159 49.0028 81.3968C49.0592 83.5265 49.8896 85.8958 51.341 88.0678C53.4696 91.2532 56.5947 93.3932 59.1172 93.3935C59.1172 93.3935 59.1175 93.3935 59.1177 93.3935C59.8084 93.3935 60.4121 93.2255 60.9125 92.894C62.3422 91.9474 62.5078 89.9933 62.4791 88.9127Z" fill="#B7B1FF"/>
<path d="M81.7089 87.168C82.1551 86.1825 82.7611 84.3165 81.8104 82.8936C80.9021 81.534 79.0538 81.3311 78.0324 81.3311C75.8691 81.3311 73.3454 82.1806 71.1086 83.6615C66.8941 86.4519 64.6739 90.8152 66.2601 93.1894C67.1684 94.5485 69.017 94.7517 70.0383 94.7517C70.0386 94.7517 70.0389 94.7517 70.0391 94.7517C72.2019 94.7517 74.7251 93.9024 76.9624 92.4213C79.1441 90.9762 80.8299 89.1105 81.7089 87.168Z" fill="#B7B1FF"/>
<path d="M93.7425 62.2069C93.3295 61.998 92.864 61.8921 92.3591 61.8921C90.2872 61.8921 87.8778 63.5427 86.04 66.0872C86.2954 66.5815 86.534 67.0941 86.7519 67.6258C87.5748 69.6347 88.0064 71.6416 88.0817 73.5068C89.3797 72.4625 90.9061 71.5697 92.5791 70.8907C93.4876 70.5218 94.4147 70.2318 95.3419 70.0144C95.729 68.617 95.8796 67.2402 95.7647 65.9793C95.6661 64.9028 95.2731 62.9809 93.7425 62.2069Z" fill="#B7B1FF"/>
<path d="M67.0577 69.6281C68.2677 69.7813 69.3617 70.2911 70.3055 71.0793C69.8379 69.0518 69.7507 67.0427 70.0697 65.2305C70.5021 62.7744 71.6296 60.901 73.2844 59.8333C73.2984 59.6671 73.3108 59.5046 73.3235 59.3402C71.3398 59.0074 69.7577 58.0662 68.78 56.6036C68.75 56.5585 68.7239 56.5119 68.6954 56.4663C68.5748 56.584 68.4486 56.6956 68.3187 56.8032C68.2573 57.7519 68.1846 58.7344 68.0977 59.7549C67.8529 62.6304 67.4878 65.9242 66.9526 69.6183C66.9876 69.6219 67.023 69.6237 67.0577 69.6281Z" fill="#016332"/>
<path d="M78.6826 94.9948C77.7063 95.6411 76.6935 96.1825 75.669 96.6163C73.3311 105.31 71.3683 114.835 70.0949 125.109C69.92 126.521 70.9279 127.807 72.3462 127.981C72.4538 127.994 72.5604 128 72.6663 128C73.9542 128 75.0694 127.045 75.2312 125.74C76.7884 113.176 79.3999 101.761 82.4652 91.6626C81.4198 92.8957 80.1389 94.0304 78.6826 94.9948Z" fill="#016332"/>
<path d="M63.675 94.9009C63.633 94.838 63.596 94.7731 63.557 94.7095C63.2754 94.99 62.9685 95.245 62.6324 95.4673C62.2471 95.7226 61.838 95.9299 61.4071 96.0894C59.2358 104.179 56.4207 113.16 52.7703 122.985C52.2745 124.319 52.9592 125.801 54.2996 126.295C54.5956 126.403 54.8986 126.455 55.197 126.455C56.2489 126.455 57.2382 125.812 57.6242 124.772C61.3694 114.693 64.2515 105.476 66.4725 97.1695C65.3026 96.6718 64.3477 95.9078 63.675 94.9009Z" fill="#016332"/>
<path d="M92.359 58.8012C93.357 58.8012 94.2958 59.0199 95.1487 59.4514C95.207 59.4808 95.2623 59.5145 95.319 59.5454C95.7038 58.7866 96.0844 58.0465 96.4589 57.3335C98.1779 54.0598 99.8601 51.1004 101.451 48.4526C101.357 48.1883 101.278 47.9204 101.223 47.6476C101.174 47.6693 101.126 47.6935 101.076 47.7138C100.371 47.9995 99.6187 48.1445 98.838 48.1445C97.8834 48.1445 96.92 47.9328 95.9791 47.5366C94.6822 49.7555 93.3345 52.1683 91.96 54.7798C91.2101 56.2045 90.4384 57.7201 89.6533 59.3164C90.5582 58.9818 91.4693 58.8012 92.359 58.8012Z" fill="#016332"/>
</svg>
