<svg width="181" height="200" viewBox="0 0 181 200" fill="none" xmlns="http://www.w3.org/2000/svg">
<path d="M156.209 136.763C155.529 136.401 154.81 136.211 154.084 136.211C153.337 136.211 152.65 136.401 151.972 136.763C151.27 137.16 150.745 137.688 150.328 138.4C149.94 139.109 149.773 139.853 149.773 140.61C149.773 141.371 149.94 142.092 150.328 142.794C150.724 143.496 151.244 144.044 151.937 144.418C152.627 144.815 153.32 145 154.083 145C154.825 145 155.546 144.814 156.208 144.418C156.893 144.044 157.451 143.496 157.798 142.794C158.185 142.092 158.372 141.371 158.372 140.61C158.372 139.853 158.184 139.109 157.798 138.4C157.426 137.688 156.888 137.159 156.209 136.763ZM157.206 142.421C156.865 143.002 156.413 143.457 155.846 143.784C155.291 144.118 154.701 144.282 154.084 144.282C153.462 144.282 152.855 144.118 152.306 143.784C151.734 143.457 151.286 143.002 150.957 142.421C150.648 141.865 150.507 141.259 150.507 140.61C150.507 139.982 150.665 139.358 150.975 138.774C151.287 138.185 151.75 137.736 152.318 137.419C152.889 137.097 153.479 136.943 154.085 136.943C154.686 136.943 155.27 137.096 155.847 137.419C156.397 137.737 156.834 138.185 157.207 138.774C157.516 139.358 157.657 139.982 157.657 140.61C157.656 141.259 157.514 141.865 157.206 142.421ZM154.826 141.179C154.738 141.089 154.614 140.999 154.428 140.928C154.826 140.89 155.167 140.742 155.416 140.491C155.654 140.234 155.759 139.927 155.759 139.588C155.759 139.35 155.689 139.108 155.547 138.889C155.416 138.692 155.218 138.529 154.968 138.441C154.719 138.357 154.323 138.321 153.807 138.321H152.193V143.03H152.938V141.055H153.377C153.647 141.046 153.823 141.088 153.977 141.204C154.162 141.347 154.428 141.714 154.756 142.286L155.167 143.03H156.087L155.529 142.117C155.237 141.683 155.021 141.37 154.826 141.179V141.179ZM153.835 140.372H152.938V138.955H153.807C154.161 138.955 154.411 138.98 154.533 139.036C154.685 139.108 154.81 139.18 154.861 139.279C154.94 139.401 154.968 139.528 154.968 139.664C154.968 139.898 154.895 140.051 154.739 140.19C154.578 140.294 154.286 140.372 153.835 140.372ZM0 56L17.2792 137.688L18.593 137.008C36.9712 127.355 55.3214 127.932 67.4623 130.119C80.6752 132.484 89.623 137.199 89.7309 137.232L90.2095 137.503L90.703 137.266C112.394 127.62 130.308 128.176 141.513 130.333C153.647 132.685 160.768 137.377 160.842 137.432L162.208 138.337L162.559 136.718L180.282 56H0Z" fill="#C41230"/>
<path d="M124.864 74.3608V80.5304H128.074L126.484 85.1471H127.933L131.443 80.9057H131.443V74.3608H124.864ZM63.4401 78.1173C53.8599 78.1173 48.137 83.4686 48.137 92.4185C48.137 101.371 53.6357 106.734 64.0142 106.734C73.4526 106.734 77.7639 103.147 78.7869 97.0138H70.3496C69.88 99.3859 67.6702 100.204 64.7808 100.204C61.4019 100.204 59.2727 97.8711 59.2727 94.0614H78.6122C78.6951 93.6186 78.7388 93.0317 78.7388 92.4185C78.7388 84.6603 73.6588 78.1173 63.4401 78.1173ZM146.102 78.2011C137.593 78.2011 132.146 81.6215 132.146 87.4586C132.146 98.3664 148.323 94.6696 148.323 98.5283C148.323 99.9863 147.145 100.747 144.85 100.747C142.25 100.747 140.402 99.5631 140.402 97.2206H131.917V97.3766C131.917 102.323 135.366 106.408 144.652 106.408C155.129 106.408 159.137 102.251 159.139 96.905C159.139 85.8044 142.223 89.9775 142.223 85.723C142.223 84.8486 143.313 83.8563 146.121 83.8563C148.879 83.8563 150.499 85.1495 150.499 86.4432H158.268C158.268 81.9591 153.674 78.2011 146.102 78.2011ZM111.954 78.7333V105.8H122.087V78.7333H111.954ZM75.937 78.7859L89.2327 105.858H97.563L110.433 78.7859H102.063L94.9226 94.417H94.7372L87.6031 78.7859H75.937ZM22.209 79.0203V105.812H47.6494V98.9713H32.3374V79.0203H22.209ZM63.5186 83.9107C66.4019 83.9107 67.3767 86.2803 67.3767 89.2503H59.6435C59.6435 86.5915 60.6532 83.9107 63.5186 83.9107Z" fill="white"/>
</svg>
