<svg width="127" height="65" viewBox="0 0 127 65" fill="none" xmlns="http://www.w3.org/2000/svg">
<g clip-path="url(#clip0)">
<path d="M19.4283 6.26416C18.3525 6.26416 17.0969 6.68102 15.9835 7.40778C15.2965 7.85633 14.7185 8.3878 14.2764 8.93996C14.8654 9.33574 15.3646 9.93943 15.7349 10.7235C16.0205 11.3282 16.2119 12.0122 16.3094 12.7383C17.1574 12.5835 18.0571 12.2195 18.8805 11.6821C20.9743 10.3149 22.0801 8.18113 21.295 7.02284C20.8477 6.36266 19.9335 6.26416 19.4283 6.26416Z" fill="#B7B1FF"/>
<path d="M13.7482 2.0111C13.6905 2.00391 13.6317 2.00024 13.5734 2.00024C12.5218 2.00024 11.4761 3.13421 10.9189 4.72377C11.2355 5.06241 11.5329 5.43315 11.8036 5.83247C12.2955 6.55822 12.6698 7.32933 12.9126 8.10016C13.4678 7.37197 14.204 6.68445 15.098 6.10079C15.3324 5.94785 15.5711 5.80752 15.8124 5.67814C15.7899 4.84318 15.6245 4.06307 15.3175 3.41296C15.0917 2.93447 14.5873 2.11601 13.7482 2.0111Z" fill="#B7B1FF"/>
<path d="M10.3328 16.4748C10.1352 15.8686 9.83336 15.2562 9.43782 14.6726C8.37906 13.1102 6.82622 12.0605 5.57397 12.0605C5.23373 12.0605 4.93669 12.1419 4.69079 12.3024C3.51066 13.0728 3.69018 15.4602 5.08303 17.5156C5.34464 17.9016 5.63766 18.2528 5.94769 18.5672C6.50354 18.7525 7.0605 19.0412 7.59423 19.4167C8.22623 17.9913 9.20912 16.925 10.3328 16.4748Z" fill="#B7B1FF"/>
<path d="M8.42195 22.5098C7.36324 20.9474 5.8105 19.8977 4.55841 19.8977C4.21817 19.8977 3.9211 19.9791 3.67522 20.1395C2.49496 20.9101 2.67461 23.2975 4.06743 25.3529C5.12601 26.915 6.6789 27.9645 7.93096 27.9647C7.93111 27.9647 7.93111 27.9647 7.93111 27.9647C8.27134 27.9647 8.56844 27.8833 8.81429 27.7228C9.51866 27.263 9.59995 26.31 9.58594 25.7827C9.55782 24.738 9.14454 23.5756 8.42195 22.5098Z" fill="#B7B1FF"/>
<path d="M21.9859 14.965C22.2235 15.7875 22.119 16.7367 21.6673 17.7206C21.6384 17.7835 21.6078 17.8463 21.5762 17.909C21.6635 18.4419 21.8187 18.9885 22.0432 19.5285C22.9572 21.728 24.5585 22.8788 25.6682 22.8788C25.8622 22.8788 26.0468 22.8443 26.2169 22.7763C27.5295 22.2508 27.836 19.876 26.8864 17.5905C25.9727 15.3911 24.3713 14.2402 23.2617 14.2402C23.0676 14.2402 22.8831 14.2747 22.7131 14.3428C22.3921 14.4714 22.1579 14.7021 21.9859 14.965Z" fill="#B7B1FF"/>
<path d="M13.3856 28.6335H13.3858C14.4615 28.6335 15.7169 28.2167 16.8304 27.4898C17.9164 26.7807 18.7554 25.8655 19.1927 24.9128C19.4133 24.4319 19.7137 23.5219 19.2453 22.8307C18.7979 22.1704 17.8835 22.0718 17.3784 22.0718C16.3026 22.0718 15.0471 22.4886 13.9337 23.2154C11.8396 24.5823 10.7337 26.7161 11.5188 27.8746C11.9661 28.5349 12.8805 28.6335 13.3856 28.6335Z" fill="#B7B1FF"/>
<path d="M13.0484 21.9084C13.2835 21.7549 13.5233 21.6142 13.7654 21.4844C13.7422 20.6499 13.5747 19.8705 13.2679 19.2207C13.042 18.7422 12.5377 17.9237 11.6986 17.819C11.6408 17.8118 11.582 17.8081 11.5238 17.8081C10.4722 17.8081 9.42649 18.9421 8.86914 20.5315C9.18577 20.8702 9.48339 21.2409 9.75407 21.6402C10.2456 22.3653 10.62 23.1357 10.863 23.9059C11.4183 23.1784 12.1551 22.4915 13.0484 21.9084Z" fill="#B7B1FF"/>
<path d="M14.7189 18.5608C15.0214 19.2013 15.2178 19.9308 15.3087 20.7052C16.1473 20.5464 17.0347 20.1829 17.847 19.6526C18.933 18.9436 19.772 18.0285 20.2092 17.0758C20.4299 16.595 20.7302 15.685 20.2619 14.9937C19.8145 14.3334 18.9001 14.2349 18.3949 14.2349C17.3191 14.2349 16.0636 14.6517 14.9503 15.3785C14.3024 15.8016 13.7509 16.2982 13.3193 16.8163C13.883 17.2125 14.3607 17.8029 14.7189 18.5608Z" fill="#B7B1FF"/>
<path d="M11.8799 16.0763C12.435 15.3462 13.1689 14.6563 14.0649 14.0715C14.2991 13.9186 14.5378 13.7784 14.779 13.6491C14.7565 12.8141 14.5915 12.0336 14.2845 11.3837C14.0585 10.9052 13.5541 10.0868 12.715 9.98194C12.6572 9.97477 12.5984 9.97095 12.54 9.97095C11.4885 9.97095 10.4439 11.106 9.88672 12.6954C10.203 13.0338 10.5003 13.4042 10.7706 13.8032C11.2636 14.5305 11.6374 15.3036 11.8799 16.0763Z" fill="#B7B1FF"/>
<path d="M6.60822 4.08984C6.26789 4.08984 5.9708 4.1712 5.72494 4.33171C4.5448 5.1023 4.72445 7.48952 6.11714 9.54486C6.4422 10.0247 6.81482 10.4529 7.21036 10.8192C7.68389 11.0026 8.15568 11.259 8.61051 11.5791C9.25234 10.1318 10.2563 9.05435 11.4017 8.61655C11.2057 7.97377 10.8919 7.32167 10.4716 6.70192C9.41294 5.13958 7.86048 4.08984 6.60822 4.08984Z" fill="#B7B1FF"/>
<path d="M28.0176 16.2518C28.1427 16.4916 28.2597 16.7401 28.3667 16.9977C28.7718 17.9727 28.9879 18.947 29.031 19.8551C29.6728 19.3521 30.4239 18.9213 31.2456 18.5926C31.6957 18.4125 32.155 18.2703 32.6145 18.1631C33.0948 16.439 32.818 14.8546 31.8245 14.3592C31.6217 14.258 31.393 14.2068 31.1445 14.2068C30.1206 14.2068 28.9294 15.0112 28.0176 16.2518Z" fill="#B7B1FF"/>
<path d="M31.6641 9.20934C31.7891 9.44884 31.9059 9.69708 32.0127 9.95412C32.408 10.9054 32.6284 11.8861 32.6703 12.8196C33.314 12.3135 34.0662 11.8792 34.8915 11.5489C35.3423 11.3685 35.8023 11.2262 36.2624 11.1191C36.452 10.4384 36.5242 9.76825 36.4675 9.15424C36.419 8.62893 36.2249 7.69155 35.4707 7.3155C35.2679 7.21437 35.0392 7.16309 34.7908 7.16309C33.7667 7.16323 32.5759 7.96875 31.6641 9.20934Z" fill="#B7B1FF"/>
<path d="M34.7766 5.59416C34.7286 4.88036 34.5487 4.12561 34.2404 3.38367C33.3269 1.18415 31.7253 0.0334473 30.6157 0.0334473C30.4217 0.0334473 30.2371 0.0679803 30.0672 0.136C28.7546 0.661319 28.4479 3.03598 29.3972 5.32183C29.8031 6.29855 30.345 7.06355 30.9189 7.61696C32.0585 6.36437 33.4633 5.5998 34.7766 5.59416Z" fill="#B7B1FF"/>
<path d="M39.9687 3.95651C40.1586 3.27567 40.2326 2.60528 40.1759 1.99127C40.1274 1.46595 39.9333 0.528589 39.1792 0.152521C38.9762 0.0512764 38.7475 0 38.499 0C37.4747 0 36.2838 0.805116 35.3721 2.04582C35.4971 2.28533 35.614 2.53386 35.7209 2.79102C36.1159 3.7416 36.3379 4.72186 36.38 5.65467C37.0232 5.1491 37.7752 4.71585 38.5998 4.38595C39.05 4.2057 39.5093 4.06351 39.9687 3.95651Z" fill="#B7B1FF"/>
<path d="M33.8239 24.7993C36.1526 23.8672 37.668 21.9915 37.1327 20.7034C36.8261 19.9651 35.8151 19.5066 34.4944 19.5066C33.6458 19.5066 32.7312 19.6931 31.8492 20.046C30.6412 20.5294 29.6338 21.2629 29.0126 22.1115C28.6989 22.5397 28.2207 23.3731 28.5401 24.1418C28.8469 24.8801 29.8579 25.3388 31.1789 25.3388C32.0275 25.3388 32.942 25.1522 33.8239 24.7993Z" fill="#B7B1FF"/>
<path d="M40.7798 13.6599C40.4731 12.9216 39.4621 12.4631 38.1412 12.4631C37.2927 12.4631 36.3781 12.6496 35.496 13.0025C34.8358 13.2668 34.2374 13.6068 33.7275 13.9984C34.4011 14.9868 34.6081 16.4063 34.3101 17.9417C34.3718 17.9401 34.4339 17.9367 34.4951 17.9367C35.0996 17.9367 35.6604 18.0113 36.166 18.1506C36.6011 18.0602 37.0398 17.9282 37.4707 17.7558C39.7994 16.8238 41.3148 14.948 40.7798 13.6599Z" fill="#B7B1FF"/>
<path d="M31.0593 12.6407C31.0004 11.9616 30.8242 11.2486 30.5327 10.5468C29.6192 8.34727 28.0178 7.19653 26.9081 7.19653C26.714 7.19653 26.5294 7.23109 26.3595 7.2991C25.5761 7.61263 25.3036 8.5309 25.2108 9.05047C25.0271 10.0797 25.1971 11.2993 25.6895 12.4848C26.0897 13.4479 26.622 14.2066 27.1868 14.7582C28.3211 13.4713 29.733 12.6739 31.0593 12.6407Z" fill="#B7B1FF"/>
<path d="M44.4874 6.49667C44.1808 5.75839 43.1698 5.2998 41.8491 5.2998C41.0004 5.2998 40.0859 5.4863 39.2039 5.83935C38.5029 6.11995 37.8714 6.48567 37.3418 6.90817C37.7364 7.46741 37.9835 8.18093 38.0606 9.0126C38.1161 9.61418 38.0771 10.2515 37.9522 10.8985C38.015 10.8969 38.0782 10.8935 38.1406 10.8935C38.6473 10.8935 39.1238 10.9452 39.5625 11.0438C40.0987 10.9569 40.6443 10.8065 41.1785 10.5928C43.5073 9.66049 45.0227 7.78472 44.4874 6.49667Z" fill="#B7B1FF"/>
<path d="M17.9619 34.934C17.0154 32.656 15.3535 31.4641 14.2009 31.4641C13.9977 31.4641 13.8041 31.5003 13.6259 31.5716C12.8069 31.8993 12.5229 32.8553 12.4263 33.396C12.236 34.4618 12.4119 35.7243 12.9214 36.9511C13.4502 38.2238 14.2023 39.1555 14.9642 39.7313C15.8582 39.7332 16.6398 39.9345 17.2612 40.3119C18.6241 39.762 18.9453 37.3011 17.9619 34.934Z" fill="#B7B1FF"/>
<path d="M25.1034 42.3997C27.5171 41.4337 29.086 39.4848 28.529 38.144C28.2089 37.3733 27.1575 36.8945 25.7851 36.8945C24.9068 36.8945 23.9605 37.0876 23.0482 37.4527C21.7983 37.9529 20.7557 38.7122 20.1124 39.5909C19.7861 40.0367 19.2885 40.9046 19.6224 41.7082C19.9425 42.4789 20.9939 42.9577 22.3663 42.9577C23.2445 42.9577 24.1909 42.7647 25.1034 42.3997Z" fill="#B7B1FF"/>
<path d="M8.22436 43.2682C8.79872 42.5064 9.56707 41.7868 10.501 41.177C10.7473 41.0162 10.9982 40.8688 11.2523 40.7334C11.197 38.7105 10.3256 37.0685 9.09833 36.9152C9.03769 36.9076 8.97599 36.9038 8.91496 36.9038C7.81772 36.9038 6.72678 38.0866 6.14941 39.7424C6.47874 40.0937 6.7882 40.4785 7.06939 40.8936C7.58437 41.6533 7.97497 42.4614 8.22436 43.2682Z" fill="#B7B1FF"/>
<path d="M6.9421 45.1506C6.91307 44.069 6.48524 42.8658 5.73773 41.7629C4.64144 40.1453 3.03218 39.0586 1.73292 39.0586C1.37694 39.0586 1.06589 39.1439 0.808273 39.3121C0.0719455 39.7928 -0.0132155 40.7851 0.00144435 41.334C0.0304976 42.4155 0.458168 43.6186 1.20569 44.7216C2.30198 46.3392 3.91151 47.4259 5.21064 47.426C5.21064 47.426 5.21078 47.426 5.21093 47.426C5.56662 47.426 5.87753 47.3407 6.13526 47.1724C6.87162 46.6917 6.95689 45.6994 6.9421 45.1506Z" fill="#B7B1FF"/>
<path d="M16.8461 44.2649C17.0758 43.7644 17.388 42.8169 16.8983 42.0943C16.4305 41.4039 15.4786 41.3008 14.9525 41.3008C13.8384 41.3008 12.5386 41.7322 11.3866 42.4842C9.216 43.9012 8.07251 46.1169 8.88948 47.3226C9.35725 48.0126 10.3094 48.1158 10.8353 48.1158C10.8355 48.1158 10.8356 48.1158 10.8358 48.1158C11.9496 48.1158 13.2492 47.6847 14.4015 46.9326C15.5251 46.1987 16.3933 45.2513 16.8461 44.2649Z" fill="#B7B1FF"/>
<path d="M23.0441 31.5895C22.8314 31.4834 22.5917 31.4297 22.3316 31.4297C21.2645 31.4297 20.0236 32.2679 19.0771 33.56C19.2087 33.811 19.3315 34.0713 19.4438 34.3413C19.8676 35.3615 20.0899 36.3806 20.1286 37.3277C20.7971 36.7974 21.5833 36.3441 22.4449 35.9993C22.9128 35.812 23.3904 35.6647 23.8679 35.5543C24.0672 34.8446 24.1448 34.1455 24.0857 33.5052C24.0349 32.9585 23.8324 31.9826 23.0441 31.5895Z" fill="#B7B1FF"/>
<path d="M9.30019 35.358C9.92336 35.4358 10.4869 35.6947 10.9729 36.095C10.7321 35.0654 10.6872 34.0451 10.8515 33.1249C11.0742 31.8777 11.6549 30.9263 12.5071 30.3841C12.5143 30.2997 12.5207 30.2172 12.5273 30.1337C11.5056 29.9647 10.6907 29.4868 10.1873 28.744C10.1718 28.7212 10.1584 28.6974 10.1437 28.6743C10.0816 28.7341 10.0165 28.7907 9.94964 28.8454C9.91803 29.3272 9.88061 29.8261 9.83582 30.3443C9.70974 31.8045 9.52171 33.4771 9.24609 35.3531C9.26408 35.3549 9.28235 35.3558 9.30019 35.358Z" fill="#3D2860"/>
<path d="M15.2875 48.2395C14.7847 48.5673 14.2631 48.8426 13.7355 49.0625C12.5314 53.4777 11.5205 58.3145 10.8646 63.5317C10.7746 64.2486 11.2937 64.9014 12.0241 64.9899C12.0796 64.9966 12.1345 64.9999 12.189 64.9999C12.8523 64.9999 13.4267 64.5143 13.51 63.8519C14.312 57.4719 15.657 51.6749 17.2357 46.5471C16.6973 47.1733 16.0376 47.7495 15.2875 48.2395Z" fill="#3D2860"/>
<path d="M7.55776 48.1918C7.53614 48.1597 7.51709 48.1267 7.49697 48.0947C7.35199 48.2372 7.19391 48.3667 7.02077 48.4795C6.82237 48.609 6.61165 48.7141 6.38974 48.7954C5.27146 52.9033 3.82159 57.4638 1.94153 62.453C1.68618 63.1308 2.03881 63.883 2.72917 64.134C2.88163 64.1894 3.03769 64.2157 3.19135 64.2157C3.7331 64.2157 4.2426 63.8888 4.44144 63.3607C6.3703 58.2424 7.85465 53.5624 8.99853 49.3436C8.396 49.0912 7.90424 48.7031 7.55776 48.1918Z" fill="#3D2860"/>
<path d="M22.331 29.8599C22.845 29.8599 23.3285 29.971 23.7678 30.1901C23.7978 30.205 23.8263 30.2222 23.8555 30.2378C24.0537 29.8525 24.2497 29.4767 24.4426 29.1146C25.3279 27.4522 26.1943 25.9493 27.0135 24.6048C26.9654 24.4706 26.9246 24.3346 26.8962 24.196C26.8709 24.207 26.8462 24.2193 26.8204 24.2296C26.4576 24.3747 26.0699 24.4484 25.6679 24.4484C25.1762 24.4484 24.6801 24.3408 24.1955 24.1396C23.5275 25.2664 22.8334 26.4917 22.1255 27.8178C21.7393 28.5413 21.3419 29.311 20.9375 30.1216C21.4036 29.9517 21.8728 29.8599 22.331 29.8599Z" fill="#3D2860"/>
<path d="M33.9463 59.1266V57.297C34.4323 57.633 34.9278 57.9069 35.4327 58.1186C35.9439 58.3236 36.3732 58.4264 36.7203 58.4264C37.08 58.4264 37.3893 58.3394 37.6481 58.1649C37.9068 57.991 38.0363 57.7821 38.0363 57.5398C38.0363 57.2908 37.9511 57.0853 37.7806 56.9237C37.6165 56.7555 37.2568 56.516 36.7013 56.2049C35.5905 55.5951 34.8615 55.0751 34.5144 54.6459C34.1735 54.21 34.0031 53.7373 34.0031 53.2269C34.0031 52.5673 34.2619 52.0291 34.7794 51.6119C35.3033 51.1951 35.9755 50.9867 36.796 50.9867C37.6481 50.9867 38.5223 51.2228 39.4185 51.696V53.3764C38.396 52.7666 37.5597 52.4617 36.9096 52.4617C36.5751 52.4617 36.3037 52.5329 36.0954 52.6763C35.8935 52.813 35.7924 52.9965 35.7924 53.2269C35.7924 53.4262 35.884 53.6159 36.067 53.7966C36.2564 53.9767 36.5846 54.1947 37.0516 54.4499L37.667 54.795C39.1187 55.6041 39.8445 56.5003 39.8445 57.4834C39.8445 58.1869 39.5637 58.7657 39.0019 59.2198C38.4465 59.6681 37.7301 59.8917 36.8528 59.8917C36.3352 59.8917 35.8745 59.8392 35.4706 59.7331C35.0666 59.6212 34.5586 59.4191 33.9463 59.1266ZM40.6114 52.5176L43.8492 49.3809V51.1545H46.6043V52.6853H43.8492V56.8955C43.8492 57.8787 44.2627 58.3705 45.0895 58.3705C45.708 58.3705 46.3613 58.1649 47.0492 57.7544V59.3412C46.3865 59.7082 45.6638 59.8917 44.8812 59.8917C44.0922 59.8917 43.4359 59.6647 42.912 59.2107C42.7479 59.0735 42.6122 58.921 42.5049 58.7533C42.3976 58.5788 42.306 58.3547 42.2303 58.0808C42.1609 57.8012 42.1262 57.2721 42.1262 56.4941V52.6853H40.6114V52.5176ZM53.6196 51.1545H55.5604L49.397 64.1206H47.4753L50.4387 57.9035L47.0682 51.1545H49.0282L51.3757 55.9994L53.6196 51.1545ZM56.829 46.7019H58.5522V59.7426H56.829V46.7019ZM68.4742 55.5979H62.3486C62.3927 56.4195 62.6705 57.0728 63.1819 57.5584C63.6991 58.0435 64.3651 58.2863 65.1795 58.2863C66.3157 58.2863 67.3632 57.9379 68.3225 57.2411V58.9024C67.7922 59.2508 67.2653 59.4998 66.7418 59.6494C66.2241 59.7985 65.6148 59.8731 64.9143 59.8731C63.955 59.8731 63.1785 59.6771 62.5852 59.2852C61.9919 58.8933 61.5154 58.3671 61.1557 57.7075C60.8023 57.0418 60.6254 56.2732 60.6254 55.402C60.6254 54.0953 61.0011 53.0342 61.7524 52.2189C62.5033 51.3973 63.4785 50.9867 64.6778 50.9867C65.8324 50.9867 66.7544 51.3849 67.4422 52.1816C68.13 52.9778 68.4742 54.0451 68.4742 55.3833V55.5979ZM62.3864 54.5804H66.7699C66.7258 53.9022 66.5207 53.3793 66.1547 53.0123C65.7883 52.6452 65.2963 52.4617 64.6778 52.4617C64.0592 52.4617 63.5508 52.6452 63.1533 53.0123C62.7621 53.3793 62.5066 53.9022 62.3864 54.5804Z" fill="#3D2860"/>
<path d="M42.1144 42.537H33.1582V16.4556H40.0884C42.2722 16.4556 43.9764 16.7481 45.2008 17.333C46.4252 17.9055 47.3594 18.7021 48.0031 19.7227C48.6468 20.7309 48.9686 21.9008 48.9686 23.2326C48.9686 25.7966 47.6245 27.6324 44.9357 28.7401C46.8671 29.1011 48.4008 29.8852 49.5367 31.0925C50.6856 32.2998 51.26 33.7436 51.26 35.4239C51.26 36.7556 50.9129 37.9442 50.2188 38.9897C49.5241 40.0352 48.5018 40.8878 47.1511 41.5475C45.813 42.2071 44.1342 42.537 42.1144 42.537ZM40.202 19.7787H36.9452V27.62H39.4636C41.4833 27.62 42.916 27.2404 43.7617 26.4811C44.6201 25.7219 45.0493 24.7386 45.0493 23.5313C45.0493 21.0296 43.4336 19.7787 40.202 19.7787ZM40.486 30.9432H36.9452V39.2138H40.6754C42.7456 39.2138 44.1468 39.0582 44.8789 38.747C45.6237 38.4234 46.217 37.9256 46.6588 37.2535C47.1132 36.5814 47.3405 35.8595 47.3405 35.0878C47.3405 34.2912 47.1006 33.5631 46.6209 32.9035C46.1538 32.2438 45.4848 31.7522 44.6138 31.4286C43.7428 31.1049 42.3669 30.9432 40.486 30.9432ZM62.8669 25.3236C65.5179 25.3236 67.7205 26.17 69.4753 27.8627C71.23 29.5429 72.1074 31.6588 72.1074 34.2103C72.1074 36.6872 71.2174 38.747 69.4375 40.39C67.6575 42.0205 65.4171 42.8357 62.7157 42.8357C60.1025 42.8357 57.9187 42.008 56.164 40.3526C54.4093 38.6848 53.5324 36.6062 53.5324 34.117C53.5324 31.6028 54.4156 29.5118 56.1829 27.844C57.9629 26.1637 60.1907 25.3236 62.8669 25.3236ZM62.6779 28.3854C61.0239 28.3854 59.6672 28.9206 58.6066 29.991C57.5465 31.0614 57.0162 32.4243 57.0162 34.0797C57.0162 35.7226 57.5591 37.0668 58.6444 38.1123C59.7302 39.1453 61.1253 39.6619 62.8291 39.6619C64.5208 39.6619 65.9028 39.1391 66.976 38.0936C68.0613 37.0357 68.6042 35.6852 68.6042 34.0423C68.6042 32.4118 68.0424 31.0614 66.9193 29.991C65.7957 28.9206 64.3817 28.3854 62.6779 28.3854ZM79.3784 25.361V27.5453C80.9184 25.865 82.6668 25.0249 84.6232 25.0249C85.709 25.0249 86.7187 25.3049 87.6528 25.865C88.5868 26.4127 89.2941 27.1719 89.7735 28.1427C90.2659 29.1011 90.5122 30.6258 90.5122 32.7168V42.537H87.0657V32.7541C87.0657 30.9992 86.7943 29.7483 86.2519 29.0015C85.709 28.2423 84.8001 27.8627 83.5248 27.8627C81.8965 27.8627 80.5146 28.6655 79.3784 30.271V42.537H75.8563V25.361H79.3784ZM106.039 42.537V40.3526C105.306 41.1367 104.467 41.7466 103.52 42.1822C102.586 42.6179 101.652 42.8357 100.718 42.8357C99.6198 42.8357 98.6034 42.5681 97.6693 42.0329C96.7478 41.4853 96.0474 40.7509 95.5675 39.8299C95.1007 38.8964 94.867 37.353 94.867 35.1998V25.361H98.313V35.1625C98.313 36.9672 98.5718 38.2305 99.0895 38.9524C99.6198 39.6619 100.541 40.0166 101.854 40.0166C103.495 40.0166 104.89 39.2262 106.039 37.6455V25.361H109.485V42.537H106.039ZM113.48 41.3048V37.6455C114.452 38.3177 115.443 38.8653 116.453 39.2884C117.475 39.6992 118.333 39.9046 119.028 39.9046C119.747 39.9046 120.366 39.7303 120.884 39.3818C121.401 39.0333 121.66 38.6164 121.66 38.1309C121.66 37.6331 121.49 37.2224 121.149 36.8987C120.821 36.5627 120.101 36.0835 118.99 35.4612C116.768 34.2414 115.31 33.2022 114.616 32.3434C113.934 31.4721 113.594 30.5262 113.594 29.5056C113.594 28.1863 114.111 27.1097 115.146 26.2758C116.194 25.4419 117.538 25.0249 119.179 25.0249C120.884 25.0249 122.632 25.4979 124.425 26.4438V29.8043C122.38 28.5846 120.707 27.9747 119.407 27.9747C118.738 27.9747 118.195 28.1178 117.778 28.4041C117.374 28.6779 117.173 29.0451 117.173 29.5056C117.173 29.9039 117.355 30.2835 117.721 30.6444C118.1 31.0054 118.757 31.441 119.691 31.9513L120.921 32.6421C123.825 34.2601 125.276 36.0524 125.276 38.0189C125.276 39.4254 124.714 40.5829 123.591 41.4915C122.48 42.3876 121.047 42.8357 119.293 42.8357C118.258 42.8357 117.336 42.7299 116.528 42.5183C115.721 42.2943 114.704 41.8897 113.48 41.3048Z" fill="#3D2860"/>
</g>
<defs>
<clipPath id="clip0">
<rect width="127" height="65" fill="white"/>
</clipPath>
</defs>
</svg>
