<svg width="94" height="94" viewBox="0 0 94 94" fill="none" xmlns="http://www.w3.org/2000/svg">
<path d="M84.5999 54.8333H73.6332V1.56667C73.6332 0.701475 72.9317 0 72.0665 0H21.9332C21.068 0 20.3665 0.701475 20.3665 1.56667V54.8333H9.39986C8.97275 54.8333 8.56404 55.0076 8.26853 55.3161C7.66987 55.9408 7.69102 56.9325 8.31573 57.5311L45.9157 93.5645C46.2075 93.8439 46.5959 94 46.9999 94C47.4039 94 47.7924 93.8439 48.084 93.5645L85.684 57.5311C85.9924 57.2356 86.1667 56.8269 86.1667 56.3998C86.1665 55.5346 85.4651 54.8333 84.5999 54.8333ZM46.9999 90.2635L13.2977 57.9667H21.9332C22.7984 57.9667 23.4999 57.2652 23.4999 56.4V3.13333H70.4999V56.4C70.4999 57.2652 71.2013 57.9667 72.0665 57.9667H80.702L46.9999 90.2635Z" fill="white"/>
<path d="M46.9996 23.5001C50.4606 23.5001 53.2663 26.3058 53.2663 29.7667H56.3996C56.3912 25.1848 53.0834 21.2752 48.5663 20.5077V17.2334H45.4329V20.5077C40.3193 21.4031 36.8995 26.2742 37.7949 31.388C38.5788 35.8654 42.4541 39.1405 46.9996 39.1667C50.4606 39.1667 53.2663 41.9724 53.2663 45.4334C53.2663 48.8944 50.4606 51.7001 46.9996 51.7001C43.5386 51.7001 40.7329 48.8944 40.7329 45.4334H37.5996C37.608 50.0153 40.9159 53.9249 45.4329 54.6924V57.9667H48.5663V54.6924C53.6799 53.7971 57.0997 48.9259 56.2044 43.8121C55.4204 39.3348 51.5451 36.0596 46.9996 36.0334C43.5386 36.0334 40.7329 33.2277 40.7329 29.7667C40.7329 26.3058 43.5386 23.5001 46.9996 23.5001Z" fill="white"/>
<path d="M29.7666 6.2666H26.6333V9.39994H29.7666V6.2666Z" fill="white"/>
<path d="M36.0332 6.2666H32.8999V9.39994H36.0332V6.2666Z" fill="white"/>
<path d="M42.2998 6.2666H39.1665V9.39994H42.2998V6.2666Z" fill="white"/>
<path d="M48.5664 6.2666H45.4331V9.39994H48.5664V6.2666Z" fill="white"/>
<path d="M54.833 6.2666H51.6997V9.39994H54.833V6.2666Z" fill="white"/>
<path d="M61.0996 6.2666H57.9663V9.39994H61.0996V6.2666Z" fill="white"/>
<path d="M67.3662 6.2666H64.2329V9.39994H67.3662V6.2666Z" fill="white"/>
</svg>
