<svg width="527" height="200" viewBox="0 0 527 200" fill="none" xmlns="http://www.w3.org/2000/svg">
<path d="M324.234 75C321.916 75 319.652 76.9161 319.703 78.8952C319.809 83.5562 325.041 83.3195 325.041 84.136C325.041 86.403 322.992 88.6027 319.489 91.1709L321.743 92.5874C325.617 89.6914 330.402 86.0641 330.402 80.6421C330.402 77.2098 328.177 75 324.234 75ZM281.84 75.2597C262.004 75.2597 250.975 88.7195 250.975 100.094C250.975 111.477 262.004 124.929 281.84 124.929C301.651 124.929 312.681 111.477 312.681 100.094C312.681 88.7195 301.651 75.2597 281.84 75.2597ZM520.122 75.4013C516.391 75.4013 513.384 78.4223 513.384 82.1294C513.384 85.8391 516.391 88.8548 520.122 88.8574C523.85 88.8544 526.883 85.8391 526.883 82.1294C526.883 78.4223 523.85 75.4013 520.122 75.4013ZM462.829 75.4485L446.151 76.5345V79.0604C453.421 79.322 454.62 79.8567 454.62 83.6166C454.62 83.6166 454.834 85.1975 454.834 99.7167C454.834 114.231 454.62 115.888 454.62 115.888C454.62 120.319 453.61 121.034 447.147 121.034V123.631H469.97V121.034C463.9 121.034 462.829 119.858 462.829 116.431V75.4485ZM338.658 76.5581V79.1785C347.726 79.1785 347.848 79.9921 348.148 84.9622C348.148 84.9622 348.195 86.5228 348.195 99.5043C348.195 112.488 348.124 114.07 348.124 114.07C347.832 120.269 347.233 121.058 338.563 121.058V123.631H367.222V121.058C357.068 120.926 357.186 120.792 357.186 113.999V102.054H368.337C380.057 102.054 396.575 100.527 396.687 89.7073C396.796 79.6984 385.576 76.5581 370.401 76.5581H338.658ZM7.52954e-05 76.6288V79.1784C10.4435 79.1784 9.54577 79.5877 9.79803 84.254C9.79803 84.254 9.86917 85.5627 9.86917 97.8281C9.86917 110.094 9.75055 111.733 9.75055 111.733C9.53281 119.509 7.19067 121.128 3.47517e-05 121.128V123.702H23.202V121.128C15.6077 120.544 14.2344 119.155 14.2344 112.819V79.4853H15.7052L34.8267 125H36.7008L56.795 79.2256H58.076V116.69C58.076 120.477 57.5799 121.004 48.6102 121.128V123.702H76.5569V121.128C67.5846 120.869 67.0001 120.414 66.8301 115.84C66.8301 115.84 66.6878 115.308 66.6878 99.4806C66.6878 84.3087 66.7589 84.254 66.7589 84.254C66.9209 79.8757 66.3938 79.1784 76.3434 79.1784V76.6288H53.521L38.2191 110.788H38.0056L23.9374 76.6288H0H7.52954e-05ZM520.122 76.7941C523.085 76.8021 525.481 79.1832 525.483 82.1294C525.48 85.0781 523.085 87.4593 520.122 87.4646C517.156 87.4593 514.766 85.0781 514.76 82.1294C514.766 79.1832 517.156 76.8021 520.122 76.7941ZM281.84 77.8565C296.922 77.8565 301.791 89.6416 301.791 100.094C301.791 110.563 296.922 122.309 281.84 122.309C266.739 122.309 261.888 110.563 261.888 100.094C261.888 89.6416 266.739 77.8565 281.84 77.8565ZM517.702 78.7299V85.4108H518.936V82.932H520.051L521.403 85.4108H522.826L521.332 82.6959C521.711 82.5823 522.66 82.1308 522.66 80.8546C522.66 80.0804 522.344 79.5665 521.925 79.2257C521.335 78.7554 520.735 78.7431 519.837 78.7299H517.702ZM369.12 79.2729C380.259 79.2729 386.428 82.2327 386.414 88.5741C386.393 97.1747 380.853 99.0494 357.186 98.8433V83.3097C357.186 79.7136 359.659 79.2729 369.12 79.2729ZM518.936 79.8159H519.529C520.272 79.8159 520.589 79.8254 520.857 79.9575C521.378 80.2191 521.379 80.7145 521.379 80.8546C521.379 81.8322 520.49 81.8854 520.217 81.8933C519.975 81.9039 519.814 81.8933 519.386 81.8933H518.936V79.8159ZM166.067 89.4712C165.239 89.4712 164.451 89.5569 163.695 89.6837C163.679 89.6867 163.645 89.702 163.624 89.7073C156.401 90.8064 152.341 95.988 149.864 101.936H149.65V89.5184L134.372 90.2502V92.6345C141.653 92.9252 141.62 93.4659 141.703 99.5987C141.703 99.5987 141.75 101.399 141.75 108.522C141.75 115.643 141.655 117.233 141.655 117.233C141.655 120.631 140.943 121.176 134.491 121.176V123.631H157.764V121.176C149.564 121.176 149.65 120.748 149.65 115.722C149.65 105.314 156.755 92.1739 165.332 92.3985C165.95 92.4196 166.789 92.5095 166.897 92.7526C166.919 92.8028 166.956 92.865 166.945 92.9178C166.799 93.6656 164.074 94.2018 164.074 97.2616C164.074 100.194 167.062 101.267 169.08 101.228C172.452 101.169 174.051 98.1891 174.157 96.5297C174.348 93.433 172.621 90.3104 167.443 89.6128C167.008 89.5336 166.55 89.4712 166.067 89.4712L166.067 89.4712ZM202.293 89.5893C190.493 89.5893 179.827 98.0796 179.827 107.129C179.827 116.105 188.549 124.292 201.273 124.292C210.402 124.292 215.317 121.365 219.422 116.265L216.884 114.684C213.498 118.074 209.249 120.656 202.887 120.656C191.811 120.656 189.269 111.956 189.269 106.539C189.269 101.03 193.025 92.4929 202.768 92.4929C205.378 92.4929 210.412 93.1984 212.257 95.373C212.393 95.5606 212.495 95.7518 212.495 95.9632C212.495 96.1006 212.315 96.2937 212.068 96.2937C210.023 96.2937 206.872 97.1251 206.872 100.378C206.872 102.402 209.103 104.438 211.902 104.438C215.595 104.438 217.145 101.315 217.145 98.7252C217.145 97.1874 216.627 95.8302 215.697 94.6412C213.138 91.1878 207.155 89.5893 202.293 89.5893ZM103.057 89.6128C101.129 89.6128 99.2213 89.742 97.3865 90.0141C95.6234 90.2255 93.9235 90.6213 92.3808 91.1709C92.3542 91.1788 92.3335 91.184 92.3096 91.1945C88.5019 92.5579 85.6907 95.3693 85.6907 98.3947C85.6907 100.638 87.8357 102.951 90.4592 102.951C93.4119 102.951 95.7021 101.245 95.7021 98.796C95.7021 96.624 94.5128 95.1361 92.0487 94.5231C92.3487 94.2219 93.893 93.5608 95.4649 93.1539C97.4883 92.6201 100.734 92.5165 102.25 92.5165C109.634 92.5165 112.714 95.214 112.878 100.472C112.929 102.993 112.878 103.352 112.878 103.352C101.904 106.005 83.8255 105.732 83.6742 115.652C83.6025 120.209 88.7111 124.268 95.2751 124.268C103.833 124.268 108.665 121.519 112.712 116.454H112.902C113.098 120.605 116.093 124.268 121.324 124.268C127.067 124.268 128.805 121.243 129.129 121.01L127.16 119.216C126.897 119.539 125.778 120.774 124.076 120.774C121.338 120.774 120.802 118.705 120.802 115.368V99.7875C120.802 90.6823 110.582 89.6128 103.057 89.6128ZM419.983 89.7309C406.805 89.7309 398.585 98.435 398.585 106.941C398.585 115.449 406.805 124.15 419.983 124.15C433.157 124.15 441.406 115.449 441.406 106.941C441.406 98.435 433.157 89.7309 419.983 89.7309ZM497.442 89.7309C484.271 89.7309 476.019 98.4297 476.019 106.941C476.019 115.443 484.271 124.15 497.442 124.15C510.612 124.15 518.841 115.443 518.841 106.941C518.841 98.4297 510.612 89.7309 497.442 89.7309ZM419.983 92.3277C429.136 92.3277 432.486 100.068 432.486 106.941C432.486 113.816 429.136 121.577 419.983 121.577C410.831 121.577 407.125 113.816 407.125 106.941C407.125 100.068 410.831 92.3277 419.983 92.3277ZM496.588 92.3277C496.863 92.3128 497.156 92.3277 497.442 92.3277C506.6 92.3277 510.3 100.068 510.3 106.941C510.3 113.81 506.6 121.577 497.442 121.577C488.289 121.577 484.56 113.81 484.56 106.941C484.56 100.283 488.048 92.7895 496.588 92.3277ZM112.926 105.595C112.926 106.107 112.947 105.967 112.878 108.924C112.618 114.826 107.282 120.515 98.976 120.515C95.8932 120.515 92.7835 118.735 92.4994 116.029C91.6842 108.139 106.614 107.082 112.926 105.595Z" fill="black"/>
</svg>
