<svg width="370" height="200" viewBox="0 0 370 200" fill="none" xmlns="http://www.w3.org/2000/svg">
<path fill-rule="evenodd" clip-rule="evenodd" d="M13.345 132.657C10.0204 132.657 5.21069 133.209 1.90991 133.159C-0.785687 133.11 -0.483099 130.618 1.90991 130.339C7.22398 129.76 11.4305 128.876 11.4562 123.965C11.1042 104.37 11.9606 86.1553 14.7313 68.7002C14.7056 63.7896 10.1984 62.9312 4.88237 62.328C2.48936 62.0769 2.18677 59.5573 4.88237 59.5059C8.18117 59.4564 12.9929 59.935 16.3174 60.0102C18.1567 60.0359 19.9959 60.0102 21.8352 60.0102C24.2282 60.0359 25.0331 61.622 25.7906 63.2101L46.4199 106.737C47.4029 108.828 48.6864 108.576 49.343 106.761L65.2872 63.5127C66.3195 60.6668 68.0579 59.1539 70.803 59.2804C72.9191 59.405 75.0095 59.5316 77.1257 59.5059C80.4502 59.4801 83.7747 58.9521 87.0735 59.0035C89.7691 59.053 89.4665 61.7743 87.0735 62.0255C81.7594 62.6306 79.2418 63.1073 79.1647 66.6098L79.6947 123.965C79.7955 127.491 81.7594 129.558 87.0735 130.137C89.4665 130.412 89.7691 133.108 87.0735 133.157C83.7747 133.207 81.3817 132.655 78.1323 132.655C74.8572 132.655 71.7839 132.655 68.5346 132.655C65.2852 132.655 62.8922 133.207 59.5934 133.157C56.8978 133.108 57.2004 130.41 59.5934 130.137C64.9094 129.558 66.8733 127.491 66.9722 123.965L66.3176 80.9916C66.2681 77.4911 65.0083 77.0125 63.7999 80.2104L44.9584 129.657C43.5721 133.308 42.5911 132.048 41.4816 129.479L20.0968 80.5881C18.9122 77.8431 17.7532 78.1694 17.6781 80.7127C17.1243 100.535 17.2746 114.468 18.131 123.963C18.1567 128.872 22.6915 129.758 28.0056 130.337C30.3749 130.616 30.6755 133.106 28.0056 133.157C24.6811 133.207 19.8694 132.655 16.5706 132.655C15.4848 132.657 14.403 132.657 13.345 132.657Z" fill="black"/>
<path fill-rule="evenodd" clip-rule="evenodd" d="M185.031 132.657C181.732 132.657 176.92 133.209 173.596 133.159C170.9 133.11 171.228 130.618 173.596 130.339C178.912 129.76 183.142 128.876 183.168 123.965C182.816 104.37 183.672 86.1553 186.443 68.7002C186.417 63.7896 181.884 62.9312 176.568 62.328C174.201 62.0769 173.873 59.5573 176.568 59.5059C179.893 59.4564 184.704 59.935 188.003 60.0102C189.842 60.0359 191.68 60.0102 193.545 60.0102C195.938 60.0359 196.745 61.622 197.474 63.2101L218.104 106.737C219.087 108.828 220.37 108.576 221.05 106.761L236.971 63.5127C238.029 60.6668 239.765 59.1539 242.487 59.2804C244.603 59.405 246.719 59.5316 248.835 59.5059C252.134 59.4801 255.46 58.9521 258.783 59.0035C261.479 59.053 261.15 61.7743 258.783 62.0255C253.467 62.6306 250.949 63.1073 250.848 66.6098L251.402 123.965C251.477 127.491 253.467 129.558 258.781 130.137C261.148 130.412 261.477 133.108 258.781 133.157C255.456 133.207 253.063 132.655 249.814 132.655C246.565 132.655 243.493 132.655 240.242 132.655C236.993 132.655 234.6 133.207 231.275 133.157C228.605 133.108 228.908 130.41 231.275 130.137C236.591 129.558 238.579 127.491 238.656 123.965L238.001 80.9916C237.95 77.4911 236.69 77.0125 235.482 80.2104L216.666 129.657C215.282 133.308 214.299 132.048 213.163 129.479L191.802 80.5881C190.596 77.8431 189.461 78.1694 189.384 80.7127C188.806 100.535 188.956 114.468 189.837 123.963C189.862 128.872 194.371 129.758 199.685 130.337C202.078 130.616 202.379 133.106 199.685 133.157C196.385 133.207 191.573 132.655 188.25 132.655C187.196 132.657 186.113 132.657 185.031 132.657Z" fill="black"/>
<path fill-rule="evenodd" clip-rule="evenodd" d="M87.702 98.7775C90.5994 91.6736 97.8535 87.7696 102.236 86.7867C108.986 85.252 113.42 86.6858 116.972 88.7763C119.642 90.3643 120.322 93.8649 120.322 98.7775V124.217C120.322 126.333 121.103 128.322 123.773 128.524C124.604 128.601 125.16 129.305 124.505 129.984C121.38 133.286 115.839 134.619 112.012 128.374C111.583 127.672 110.323 127.721 109.593 128.223C106.696 130.241 104.153 132.179 101.028 133.261C97.729 134.396 94.6042 134.821 91.3549 131.55C90.0199 130.213 89.1636 129.082 89.1379 124.774C89.1379 120.54 90.2454 118.473 92.3615 116.361C95.1837 113.537 100.019 110.262 103.822 108.828C106.342 107.871 108.306 107.013 109.969 105.931C110.976 105.25 111.606 104.115 111.63 102.327C111.682 96.5862 111.076 91.7744 108.306 90.6155C105.938 89.6326 103.419 88.7268 100.27 90.5146C98.2807 91.6479 97.2721 94.5452 95.686 98.3977C94.5528 101.117 91.8315 103.31 88.8847 102.353C87.5755 101.926 86.9208 100.716 87.702 98.7775ZM100.219 114.947C100.951 113.666 102.208 112.354 104.149 111.219C105.383 110.466 106.718 109.785 108.203 109.281C110.57 108.45 111.553 109.609 111.628 111.371C111.781 114.196 111.705 117.042 111.426 119.834C111.124 122.832 110.016 125.15 108.956 125.983C106.211 128.196 102.685 128.775 101.073 127.365C96.845 123.613 97.9287 118.952 100.219 114.947Z" fill="black"/>
<path fill-rule="evenodd" clip-rule="evenodd" d="M259.236 98.7775C262.107 91.6736 269.362 87.7696 273.744 86.7867C280.52 85.252 284.928 86.6858 288.506 88.7763C291.15 90.3643 291.854 93.8649 291.854 98.7775L291.828 124.217C291.828 126.333 292.635 128.322 295.279 128.524C296.138 128.601 296.664 129.305 296.009 129.984C292.886 133.286 287.345 134.619 283.54 128.374C283.113 127.672 281.829 127.721 281.097 128.223C278.202 130.241 275.657 132.179 272.534 133.261C269.261 134.396 266.11 134.821 262.887 131.55C261.526 130.213 260.67 129.082 260.67 124.774C260.644 120.54 261.753 118.473 263.895 116.361C266.69 113.537 271.525 110.262 275.33 108.828C277.874 107.871 279.814 107.013 281.475 105.931C282.484 105.25 283.113 104.115 283.138 102.327C283.213 96.5862 282.608 91.7744 279.812 90.6155C277.444 89.6326 274.951 88.7268 271.802 90.5146C269.813 91.6479 268.804 94.5452 267.192 98.3977C266.059 101.117 263.339 103.31 260.416 102.353C259.085 101.926 258.431 100.716 259.236 98.7775ZM271.729 114.947C272.459 113.666 273.718 112.354 275.657 111.219C276.916 110.466 278.253 109.785 279.713 109.281C282.08 108.45 283.063 109.609 283.164 111.371C283.289 114.196 283.213 117.042 282.938 119.834C282.66 122.832 281.526 125.15 280.468 125.983C277.723 128.196 274.223 128.775 272.609 127.365C268.353 123.613 269.437 118.952 271.729 114.947Z" fill="black"/>
<path fill-rule="evenodd" clip-rule="evenodd" d="M332.913 98.7775C335.785 91.6736 343.039 87.7696 347.421 86.7867C354.197 85.252 358.631 86.6858 362.183 88.7763C364.853 90.3643 365.531 93.8649 365.531 98.7775V124.217C365.531 126.333 366.312 128.322 368.982 128.524C369.813 128.601 370.367 129.305 369.712 129.984C366.563 133.286 361.048 134.619 357.219 128.374C356.792 127.672 355.532 127.721 354.8 128.223C351.905 130.241 349.359 132.179 346.237 133.261C342.936 134.396 339.813 134.821 336.564 131.55C335.229 130.213 334.347 129.082 334.347 124.774C334.321 120.54 335.456 118.473 337.572 116.361C340.393 113.537 345.202 110.262 349.007 108.828C351.551 107.871 353.515 107.013 355.152 105.931C356.184 105.25 356.815 104.115 356.815 102.327C356.89 96.5862 356.285 91.7744 353.515 90.6155C351.122 89.6326 348.628 88.7268 345.479 90.5146C343.49 91.6479 342.481 94.5452 340.869 98.3977C339.736 101.117 337.017 103.31 334.094 102.353C332.763 101.926 332.106 100.716 332.913 98.7775ZM345.432 114.947C346.161 113.666 347.421 112.354 349.336 111.219C350.595 110.466 351.932 109.785 353.392 109.281C355.785 108.45 356.74 109.609 356.843 111.371C356.993 114.196 356.892 117.042 356.641 119.834C356.339 122.832 355.204 125.15 354.171 125.983C351.426 128.196 347.9 128.775 346.288 127.365C342.056 123.613 343.114 118.952 345.432 114.947Z" fill="black"/>
<path fill-rule="evenodd" clip-rule="evenodd" d="M156.265 89.2051C161.605 89.3554 166.492 89.3811 171.832 89.2051C173.645 89.128 173.821 91.3707 171.832 91.6476C167.576 92.227 164.73 94.3669 162.159 97.2662C159.414 100.363 156.768 103.057 154.276 106.158L153.872 106.633C153.295 107.261 153.295 108.498 153.771 109.178L164.929 125.096C167.801 128.298 168.733 130.033 173.443 130.689C175.684 130.99 174.753 133.108 172.763 133.007C166.994 132.707 158.708 132.501 152.636 132.78C151.151 132.829 150.872 130.79 152.359 130.389C154.853 129.708 156.139 128.322 152.636 123.435L148.078 117.514C147.524 116.812 146.44 115.629 145.332 116.962L143.746 118.9C140.042 123.613 136.542 128.65 142.587 130.337C144.098 130.739 143.821 132.829 142.336 132.778C136.241 132.499 130.951 132.705 125.184 133.005C123.168 133.106 122.261 130.988 124.478 130.687C129.214 130.031 132.841 127.262 135.713 124.04L143.471 114.87C144.53 113.634 144.352 112.754 143.446 111.393L134.024 97.3631C131.758 94.2126 130.371 92.2231 126.115 91.6436C124.1 91.3667 124.302 89.124 126.115 89.2012C131.455 89.3772 140.8 89.3515 146.139 89.2012C147.474 89.1497 147.601 90.7873 146.266 91.167C142.287 92.2745 143.066 93.9634 146.191 98.3717L150.271 104.212C150.599 104.641 151.531 104.718 151.883 104.289L154.024 101.692C157.4 97.462 161.48 92.7017 156.04 91.165C154.677 90.7913 154.93 89.1537 156.265 89.2051Z" fill="black"/>
<path fill-rule="evenodd" clip-rule="evenodd" d="M310.469 131.977C307.17 131.977 302.358 133.209 299.034 133.16C296.34 133.11 296.666 130.619 299.034 130.34C304.35 129.76 305.028 127.166 305.054 123.487C305.054 116.233 305.054 108.979 305.054 101.748C305.054 98.9557 304.678 96.8119 301.654 95.5284C299.463 94.5969 299.562 93.1848 301.553 92.2296C304.777 90.6672 308.127 88.3255 311.501 85.3531C312.836 84.1684 313.593 84.5225 313.793 86.6366C313.918 88.0724 313.918 89.534 314.044 90.9955C314.222 93.2362 315.381 93.0859 316.261 92.1801C319.434 88.8813 322.105 87.2675 324.902 86.7138C328.78 85.9326 331.298 87.6452 332.13 89.0553C334.371 92.8842 332.987 96.3847 330.669 97.7196C327.999 99.2563 325.529 98.1488 323.516 96.5607C322.181 95.5026 320.897 94.496 319.56 94.6226C314.978 95.1012 314.347 98.9557 314.347 101.9V123.639C314.373 128.552 318.328 129.205 323.64 129.784C326.035 130.063 326.336 132.43 323.64 132.458C319.262 132.128 314.879 131.977 310.469 131.977Z" fill="black"/>
</svg>
