<svg width="248" height="200" viewBox="0 0 248 200" fill="none" xmlns="http://www.w3.org/2000/svg">
<path d="M0 127.073C0.0609441 127.073 0 74.0518 0 74.0518H11.7613L32.0259 101.979L52.2912 74.0518H64.1432C64.1432 74.0518 64.0822 127.073 64.1432 127.073H51.7729L51.7716 97.2408L32.0258 124.452L12.2801 97.2408L12.2806 127.073H0Z" fill="black"/>
<path d="M190.577 74.0488L210.836 99.3577L188.767 127.072H205.84L218.178 110.692L230.516 127.072H247.59L225.862 99.3577L245.78 74.0488H228.706L218.178 88.023L207.65 74.0488H190.577Z" fill="black"/>
<path d="M102.443 72.0091C93.3957 71.778 84.3663 75.9521 78.7853 83.9321C69.8557 96.7 72.7197 114.503 85.2558 123.683C97.7919 132.863 115.541 129.837 124.471 117.069L114.584 110.153C109.363 117.618 99.6193 119.254 92.3824 113.954C85.1455 108.655 83.4513 98.3124 88.672 90.8475C93.8928 83.3826 103.637 81.7547 110.874 87.0542C111.795 87.7285 112.65 88.4994 113.415 89.3618L122.435 81.3529C121.103 79.8527 119.624 78.5013 118.008 77.3182C113.307 73.8758 107.871 72.1478 102.443 72.0091V72.0091Z" fill="black"/>
<path d="M90.6232 101.781H129.359C129.629 95.453 128.517 90.3269 126.17 86.2739L89.9727 99.3387C89.3251 99.5724 89.0768 100.035 89.0768 100.544C89.0768 101.184 89.6363 101.781 90.6232 101.781V101.781Z" fill="black"/>
<path d="M130.511 74.0488L150.77 99.3577L128.701 127.072H145.775L158.112 110.692L170.45 127.072H187.524L165.796 99.3577L185.714 74.0488H168.64L158.112 88.023L147.584 74.0488H130.511Z" fill="black"/>
</svg>
