<svg width="167" height="200" viewBox="0 0 167 200" fill="none" xmlns="http://www.w3.org/2000/svg">
<path d="M50.9663 102.224H39.4545L40.7632 82.2158L33.2877 102.224H22.5983L39.5589 57H50.9335L49.6202 77.2824L57.2374 57H67.9268L50.9663 102.224Z" fill="black"/>
<path d="M52.3544 102.224L69.3151 57H80.0045L63.0437 102.224H52.3544Z" fill="black"/>
<path d="M21.3657 86.6356C6.42788 104.177 -7.66271 127.518 4.78346 138.267C16.8433 148.682 31.9181 142.515 42.1964 138.404C52.4746 134.292 166.084 84.9568 166.084 84.9568C167.18 84.4087 166.975 83.7235 165.604 84.0661C165.051 84.2044 41.9222 117.573 41.9222 117.573C26.2991 121.959 8.48354 112.4 21.3657 86.6356Z" fill="black"/>
<path d="M93.9136 99.2094L93.2286 75.638L109.391 57.8932L93.9136 99.2094ZM128.369 64.5373L131.241 57H98.6247L87.4243 70.5673L92.5947 57H81.7684L64.9448 102.224H75.6342L82.8165 83.3122L83.3087 102.224L116.108 102.153L119.23 93.4535H106.759L110.856 82.49H121.134L124.297 74.0618H114.018L117.542 64.5373H128.369Z" fill="black"/>
</svg>
