<svg width="52" height="52" viewBox="0 0 52 52" fill="none" xmlns="http://www.w3.org/2000/svg">
<circle cx="26" cy="26" r="26" fill="white"/>
<path d="M41.5979 35.5026L36.5541 30.4469C35.5495 29.444 33.8858 29.4745 32.8462 30.5168L30.3051 33.0631C30.1446 32.9744 29.9784 32.8818 29.8037 32.7835C28.199 31.8924 26.0028 30.671 23.6917 28.3529C21.3737 26.03 20.1539 23.8254 19.2621 22.2161C19.168 22.0456 19.0778 21.8812 18.9888 21.7251L20.6942 20.0183L21.5327 19.1769C22.5739 18.1331 22.6026 16.4661 21.6003 15.4603L16.5565 10.404C15.5543 9.39961 13.8898 9.43008 12.8486 10.4739L11.4271 11.9068L11.466 11.9455C10.9893 12.5551 10.591 13.2581 10.2946 14.0163C10.0214 14.738 9.85125 15.4266 9.77347 16.1167C9.10747 21.6505 11.6305 26.708 18.4778 33.5708C27.9428 43.0566 35.5703 42.34 35.8994 42.305C36.616 42.2192 37.3029 42.0475 38.0009 41.7758C38.7507 41.4823 39.4517 41.0836 40.0596 40.6069L40.0906 40.6346L41.5307 39.2212C42.5698 38.1775 42.5997 36.51 41.5979 35.5026Z" fill="#3D2860"/>
</svg>
