<svg width="590" height="218" viewBox="0 0 590 218" fill="none" xmlns="http://www.w3.org/2000/svg">
<path fill-rule="evenodd" clip-rule="evenodd" d="M48.8198 182.214C50.6143 182.558 52.1855 182.86 53.8367 183.177C53.8367 183.531 53.8367 183.982 53.8367 184.539C46.9379 184.539 40.0358 184.539 33.0362 184.539C33.0362 183.879 33.0362 183.203 33.0362 182.339C33.955 182.386 34.8675 182.445 35.781 182.475C37.4506 182.531 38.0008 182.197 38.344 180.606C38.6534 179.171 38.9495 177.697 38.9535 176.239C38.9957 161.254 38.9883 146.269 38.9598 131.283C38.9572 129.898 38.7151 128.514 38.563 126.914C36.6597 126.502 34.8689 126.115 33 125.71C33 124.918 33 124.001 33 122.958C33.4829 122.935 33.9333 122.892 34.3833 122.894C42.4397 122.911 50.4975 122.859 58.5522 122.998C61.0981 123.042 63.6957 123.354 66.1639 123.968C71.8629 125.386 74.8197 129.535 76.3149 134.936C78.1827 141.68 75.534 146.865 70.5844 151.187C68.9623 152.604 66.8775 153.093 64.8138 153.528C63.0765 153.893 61.3366 154.242 59.4279 154.634C61.2656 157.119 62.9801 159.42 64.6751 161.734C68.7179 167.256 72.7499 172.787 76.791 178.311C78.2443 180.298 79.6648 182.334 82.4056 182.663C82.5557 182.682 82.7074 182.69 83.1815 182.731C84.5508 178.875 85.9491 174.98 87.3177 171.074C90.6713 161.505 94.0109 151.93 97.3592 142.358C97.4479 142.104 97.5721 141.863 97.7048 141.559C98.6728 141.559 99.6325 141.559 100.748 141.559C101.351 143.306 101.974 145.088 102.581 146.876C106.006 156.955 109.435 167.032 112.837 177.118C113.283 178.44 113.563 179.818 113.96 181.158C114.359 182.51 115.506 183.47 116.599 183.432C117.815 183.39 118.834 182.43 119.169 180.954C119.279 180.466 119.328 179.954 119.329 179.454C119.34 168.633 119.36 157.812 119.333 146.992C119.325 143.595 118.446 142.743 115.071 142.547C114.959 142.541 114.851 142.499 114.676 142.458C114.676 142.16 114.676 141.87 114.676 141.505C120.679 141.505 126.656 141.505 132.719 141.505C132.758 141.814 132.793 142.099 132.84 142.48C132.424 142.508 132.085 142.543 131.746 142.552C128.83 142.636 127.716 143.688 127.708 146.626C127.68 157.329 127.685 168.033 127.713 178.737C127.72 181.344 128.44 182.055 131.061 182.061C133.154 182.066 135.261 182.044 137.334 181.801C139.058 181.598 140.123 180.476 140.924 178.846C142.288 176.071 142.473 173.096 142.904 170.146C143.015 169.385 143.152 168.627 143.287 167.81C144.258 167.81 145.134 167.81 146.182 167.81C145.795 172.992 145.41 178.128 145.026 183.257C146.953 183.734 148.64 182.755 149.037 180.926C149.16 180.36 149.222 179.771 149.223 179.193C149.236 168.567 149.258 157.941 149.228 147.315C149.218 143.618 148.455 142.891 144.707 142.604C144.553 142.593 144.401 142.559 144.184 142.525C144.143 142.359 144.075 142.184 144.063 142.005C144.053 141.859 144.111 141.709 144.144 141.535C144.314 141.5 144.463 141.443 144.611 141.444C150.991 141.503 157.379 141.41 163.75 141.685C168.261 141.879 172.223 143.528 174.394 147.889C177.301 153.724 175.174 162.933 165.681 164.482C163.694 164.806 161.655 164.817 159.639 164.956C159.147 164.99 158.652 164.961 158.117 164.961C158.074 165.335 158.026 165.559 158.026 165.783C158.032 170.181 158.012 174.58 158.063 178.977C158.104 182.447 159.057 183.362 162.537 183.476C162.692 183.481 162.846 183.493 163.115 183.51C163.161 183.819 163.208 184.14 163.27 184.561C142.996 184.561 122.818 184.561 102.564 184.561C102.564 184.227 102.564 183.908 102.564 183.523C102.998 183.5 103.378 183.48 103.759 183.459C105.813 183.346 106.749 182.391 106.188 180.438C105.032 176.416 103.632 172.465 102.341 168.507C98.4468 168.507 94.7144 168.507 90.8445 168.507C90.4008 169.751 89.9216 171.009 89.5033 172.287C88.8032 174.425 88.0166 176.545 87.4959 178.728C86.8004 181.646 87.8213 183.017 90.8528 183.555C90.8528 183.867 90.8528 184.192 90.8528 184.583C83.6413 184.583 76.4937 184.583 69.2918 184.583C62.5163 174.903 55.728 165.206 48.8195 155.336C48.8198 164.457 48.8198 173.211 48.8198 182.214ZM48.5988 152.208C53.8116 152.938 58.6088 152.074 63.039 149.422C63.5865 149.094 64.1584 148.623 64.4474 148.076C67.5539 142.184 67.8533 136.308 64.205 130.496C63.1418 128.802 61.6098 127.749 59.7316 127.149C56.093 125.987 52.3616 126.52 48.5988 126.405C48.5988 135.081 48.5988 143.62 48.5988 152.208ZM158.092 162.524C161.614 163.006 164.402 161.645 165.475 158.762C166.805 155.191 166.825 151.508 165.579 147.912C164.527 144.877 161.302 143.314 158.092 144.103C158.092 150.217 158.092 156.342 158.092 162.524ZM101.472 166.373C99.8713 161.51 98.3306 156.83 96.7906 152.15C96.6968 152.153 96.6027 152.156 96.509 152.159C94.9073 156.863 93.3057 161.566 91.6686 166.372C94.974 166.373 98.1089 166.373 101.472 166.373Z" fill="white"/>
<path fill-rule="evenodd" clip-rule="evenodd" d="M172.877 184.553C172.894 184.196 172.906 183.908 172.923 183.538C173.602 183.505 174.216 183.494 174.826 183.444C176.485 183.305 177.464 182.435 177.745 180.795C177.869 180.071 177.94 179.328 177.94 178.593C177.953 168.202 177.95 157.81 177.945 147.418C177.944 146.874 177.927 146.326 177.854 145.789C177.585 143.808 176.7 142.919 174.718 142.631C174.148 142.549 173.568 142.54 172.925 142.492C172.925 142.158 172.925 141.874 172.925 141.51C179.167 141.51 185.338 141.51 191.627 141.51C191.652 141.801 191.68 142.114 191.711 142.457C190.769 142.554 189.919 142.598 189.083 142.736C187.134 143.056 186.165 143.982 186.004 145.961C185.847 147.895 185.882 149.847 185.87 151.791C185.851 154.819 185.865 157.847 185.865 160.951C190.771 160.951 195.577 160.951 200.427 160.951C200.467 160.804 200.541 160.66 200.54 160.517C200.497 155.693 200.477 150.868 200.381 146.045C200.343 144.184 199.356 143.119 197.519 142.775C196.646 142.611 195.751 142.567 194.77 142.458C194.77 142.182 194.77 141.871 194.77 141.497C200.853 141.497 206.876 141.497 213.035 141.497C213.076 141.779 213.121 142.089 213.175 142.459C212.841 142.499 212.617 142.543 212.392 142.551C209.264 142.673 208.201 143.686 208.092 146.806C208.02 148.866 208.055 150.93 208.055 152.993C208.055 161.4 208.059 169.807 208.064 178.213C208.065 178.72 208.067 179.227 208.108 179.731C208.332 182.479 209.348 183.424 212.106 183.473C212.376 183.478 212.647 183.473 213.032 183.473C213.085 183.824 213.133 184.14 213.197 184.56C206.999 184.56 200.909 184.56 194.732 184.56C194.732 184.224 194.732 183.905 194.732 183.578C194.9 183.535 195.007 183.486 195.116 183.483C195.699 183.466 196.284 183.487 196.866 183.448C199.105 183.295 200.354 182.149 200.383 179.911C200.452 174.626 200.405 169.34 200.405 163.954C195.657 163.954 190.857 163.954 185.953 163.954C185.924 164.281 185.87 164.613 185.87 164.946C185.865 169.422 185.868 173.898 185.87 178.374C185.87 178.568 185.886 178.763 185.882 178.957C185.805 182.6 187.8 183.55 190.545 183.474C190.855 183.467 191.166 183.474 191.591 183.474C191.644 183.809 191.695 184.129 191.761 184.553C185.459 184.553 179.252 184.553 172.877 184.553Z" fill="white"/>
<path fill-rule="evenodd" clip-rule="evenodd" d="M488.115 141.408C488.115 141.039 488.115 140.774 488.115 140.429C498.181 140.429 508.203 140.429 518.316 140.429C518.316 144.601 518.316 148.745 518.316 152.994C518.077 153.014 517.804 153.038 517.506 153.064C517.265 152.068 517.025 151.171 516.834 150.264C515.93 145.983 513.172 143.155 508.539 143C506.405 142.928 504.267 142.988 502.024 142.988C502.024 148.711 502.024 154.48 502.024 160.25C504.968 160.871 507.571 159.196 508.577 155.878C509.125 154.068 509.439 152.188 509.88 150.246C510.047 150.237 510.294 150.223 510.618 150.206C510.618 157.735 510.618 165.192 510.618 172.716C510.35 172.738 510.1 172.76 509.794 172.787C509.558 171.516 509.443 170.27 509.078 169.102C508.666 167.78 508.15 166.458 507.465 165.258C506.276 163.174 504.263 162.773 502 162.902C501.97 163.167 501.929 163.354 501.931 163.54C501.964 168.443 501.979 173.347 502.049 178.25C502.075 180.065 502.803 180.914 504.628 181.065C508.919 181.42 513.066 181.131 516.267 177.684C517.949 175.872 518.895 173.667 519.6 171.339C519.734 170.895 519.851 170.445 519.999 169.914C520.272 169.87 520.555 169.826 521.039 169.749C520.543 173.983 520.06 178.091 519.578 182.193C522.035 182.628 523.956 180.967 524.26 178.183C524.353 177.333 524.396 176.474 524.397 175.62C524.408 166.044 524.408 156.469 524.408 146.893C524.408 144.565 522.282 142.055 519.971 141.632C519.667 141.577 519.367 141.503 519.02 141.428C519.02 141.091 519.02 140.774 519.02 140.398C523.421 140.398 527.733 140.398 532.154 140.398C538.144 149.116 544.17 157.886 550.354 166.886C550.393 166.29 550.433 165.964 550.433 165.638C550.435 159.76 550.445 153.883 550.419 148.005C550.415 147.038 550.312 146.06 550.143 145.107C549.781 143.061 548.644 141.999 546.578 141.655C546.122 141.58 545.664 141.506 545.138 141.418C545.117 141.093 545.099 140.803 545.075 140.425C549.142 140.425 553.132 140.425 557.223 140.425C557.249 140.759 557.273 141.081 557.3 141.445C556.687 141.6 556.17 141.756 555.642 141.857C553.914 142.189 553.034 143.325 552.766 144.965C552.603 145.959 552.517 146.975 552.515 147.982C552.496 159.698 552.5 171.414 552.498 183.13C552.498 183.551 552.498 183.971 552.498 184.356C551.701 184.818 551.366 184.348 551.017 183.843C547.159 178.283 543.295 172.727 539.434 167.169C535.328 161.258 531.223 155.346 527.115 149.437C526.992 149.26 526.838 149.106 526.56 148.779C526.511 149.267 526.456 149.556 526.456 149.846C526.449 158.527 526.444 167.206 526.452 175.886C526.452 176.624 526.504 177.366 526.589 178.099C526.898 180.751 528.566 182.276 531.24 182.386C531.506 182.397 531.772 182.419 532.102 182.44C532.13 182.787 532.154 183.08 532.187 183.47C516.179 183.47 500.239 183.47 484.183 183.47C479.559 176.858 474.885 170.175 470.027 163.228C470.027 169.61 470.027 175.617 470.027 181.841C471.24 182.085 472.313 182.3 473.473 182.534C473.473 182.779 473.473 183.099 473.473 183.492C468.658 183.492 463.888 183.492 459.045 183.492C459.045 182.977 459.045 182.5 459.045 181.907C460.153 181.907 461.181 181.907 462.44 181.907C462.666 180.82 463.053 179.817 463.057 178.811C463.1 167.641 463.088 156.471 463.072 145.3C463.071 144.731 462.899 144.162 462.785 143.456C461.632 143.192 460.509 142.935 459.11 142.615C459.12 142.627 458.937 142.403 458.747 142.17C458.63 142.216 458.505 142.235 458.42 142.305C457.132 143.359 456.769 144.824 456.758 146.374C456.717 152.251 456.798 158.13 456.687 164.005C456.621 167.498 456.49 171.014 456.017 174.469C455.268 179.937 450.487 184.163 444.952 184.41C442.838 184.505 440.638 184.49 438.595 184.019C433.699 182.894 430.475 178.968 429.939 173.785C429.715 171.624 429.653 169.439 429.64 167.264C429.603 160.997 429.636 154.731 429.621 148.464C429.618 147.259 429.538 146.054 429.468 144.85C429.343 142.701 428.568 141.872 426.438 141.578C426.016 141.521 425.593 141.483 425.082 141.426C425.082 141.094 425.082 140.78 425.082 140.406C431.17 140.406 437.193 140.406 443.343 140.406C443.386 140.701 443.43 141.012 443.483 141.389C443.001 141.433 442.621 141.475 442.239 141.501C439.329 141.695 438.67 142.327 438.371 145.219C438.367 145.257 438.36 145.296 438.36 145.335C438.421 155.14 438.409 164.947 438.586 174.75C438.643 177.891 440.78 180.338 443.377 180.959C446.917 181.806 450.164 180.583 452.079 177.748C453.773 175.239 454.126 172.369 454.165 169.495C454.268 161.984 454.253 154.471 454.214 146.959C454.193 143.002 453.303 142.047 449.363 141.414C449.348 141.115 449.333 140.795 449.311 140.352C450.11 140.352 450.804 140.343 451.497 140.354C460.311 140.494 469.124 140.594 477.936 140.802C480.587 140.865 483.174 141.324 485.413 143.018C489.066 145.781 491.254 153.266 487.447 157.912C485.332 160.492 482.808 161.8 479.651 162.251C478.965 162.349 478.294 162.548 477.604 162.703C478.205 164.19 491.079 181.227 492.1 181.731C492.398 180.988 492.793 180.281 492.951 179.526C493.132 178.657 493.155 177.746 493.155 176.854C493.159 166.656 493.147 156.46 493.133 146.263C493.132 145.797 493.096 145.329 493.052 144.866C492.857 142.826 491.974 141.879 489.942 141.559C489.373 141.468 488.79 141.461 488.115 141.408ZM469.916 143.254C469.916 149.183 469.916 155.105 469.916 161.134C470.775 161.134 471.55 161.09 472.319 161.142C474.94 161.319 477.288 160.436 479.542 159.259C480.098 158.969 480.661 158.475 480.952 157.93C482.621 154.811 483.038 151.547 481.815 148.155C480.811 145.367 478.998 143.489 475.922 143.278C473.96 143.145 471.981 143.254 469.916 143.254Z" fill="white"/>
<path fill-rule="evenodd" clip-rule="evenodd" d="M391.695 161.699C392.187 161.699 392.566 161.699 393.147 161.699C392.609 168.947 392.075 176.137 391.534 183.442C378.075 183.442 364.64 183.442 351.118 183.442C351.118 182.972 351.118 182.494 351.118 181.881C351.703 181.881 352.235 181.892 352.766 181.879C355.407 181.81 357.069 180.278 357.259 177.643C357.385 175.898 357.448 174.145 357.45 172.395C357.466 159.473 357.466 146.552 357.451 133.63C357.449 131.724 357.365 129.818 357.279 127.913C357.159 125.239 355.498 123.601 352.835 123.493C352.294 123.471 351.753 123.489 351.125 123.489C351.125 122.934 351.125 122.453 351.125 121.889C359.19 121.889 367.228 121.889 375.375 121.889C375.375 122.348 375.375 122.828 375.375 123.378C374.284 123.474 373.123 123.491 371.997 123.698C370.106 124.047 368.963 125.226 368.698 127.131C368.511 128.474 368.444 129.843 368.443 131.2C368.431 145.483 368.437 159.768 368.459 174.051C368.461 175.136 368.564 176.227 368.716 177.302C368.919 178.737 369.785 179.777 371.207 179.816C374.459 179.906 377.743 180.016 380.966 179.671C383.647 179.385 385.534 177.505 386.973 175.249C389.36 171.506 390.339 167.262 391.363 163.031C391.462 162.618 391.568 162.206 391.695 161.699Z" fill="white"/>
<path fill-rule="evenodd" clip-rule="evenodd" d="M404.988 167.436C403.904 170.76 402.843 174.002 401.793 177.249C401.699 177.541 401.657 177.857 401.633 178.164C401.422 180.952 402.225 181.971 405.09 182.458C405.104 182.761 405.119 183.086 405.138 183.488C402.222 183.488 399.395 183.488 396.398 183.488C396.438 183.129 396.385 182.734 396.532 182.44C397.219 181.078 398.15 179.81 398.653 178.387C402.499 167.516 406.264 156.615 410.058 145.724C410.669 143.97 411.297 142.223 411.923 140.458C412.967 140.458 413.927 140.458 415.008 140.458C415.616 142.217 416.228 143.965 416.825 145.718C420.083 155.272 423.351 164.824 426.583 174.387C427.142 176.039 427.6 177.731 428.01 179.428C428.402 181.052 429.216 182.181 431.007 182.426C431.029 182.758 431.048 183.058 431.074 183.462C426.302 183.462 421.584 183.462 416.793 183.462C416.793 183.134 416.793 182.814 416.793 182.439C417.252 182.414 417.633 182.394 418.014 182.374C420.114 182.263 420.932 181.265 420.425 179.244C420.029 177.667 419.494 176.122 418.979 174.577C418.183 172.189 417.352 169.813 416.536 167.436C412.696 167.436 408.93 167.436 404.988 167.436ZM415.715 165.265C414.122 160.417 412.565 155.677 410.909 150.637C409.192 155.686 407.584 160.414 405.935 165.265C409.24 165.265 412.371 165.265 415.715 165.265Z" fill="white"/>
<path fill-rule="evenodd" clip-rule="evenodd" d="M260.354 46.7576C260.547 47.2984 260.764 47.8318 260.926 48.3824C261.011 48.6727 260.953 49.0052 261.039 49.2955C261.468 50.7408 261.922 52.178 262.352 53.567C263.782 53.567 265.187 53.567 266.728 53.567C266.661 53.9427 266.562 54.4895 266.458 55.0675C267.464 54.8981 268.342 54.7501 269.048 54.6309C269.966 55.5845 270.963 54.9342 271.91 54.9346C271.762 54.8217 271.614 54.7085 271.251 54.4313C272.003 54.6506 272.524 54.8026 273.045 54.9547C273.042 55.0136 273.039 55.0725 273.037 55.1315C272.735 55.181 272.433 55.2309 271.915 55.316C272.88 56.5473 274.125 55.1204 275.034 55.9586C274.831 56.0738 274.677 56.1612 274.154 56.4582C275.072 56.7914 275.73 57.0301 276.388 57.2689C276.393 57.2384 276.396 57.2083 276.4 57.1781C277.151 57.6386 277.902 58.0983 278.698 58.5869C278.626 58.7161 278.51 58.9251 278.315 59.273C279.048 59.273 279.634 59.273 280.312 59.273C280.199 59.053 280.123 58.9037 279.954 58.5758C280.76 59.1089 281.392 59.5268 281.995 59.9257C281.995 60.6912 281.995 61.388 281.995 62.1046C282.493 62.3092 282.988 62.5125 283.482 62.7157C283.458 62.7884 283.435 62.8614 283.411 62.934C283.076 62.8242 282.726 62.7475 282.41 62.5989C280.49 61.6957 278.786 62.6544 278.489 64.8916C278.905 64.8916 279.312 64.8916 279.71 64.8916C281.036 63.3218 281.036 63.3218 282.424 63.511C282.671 63.9128 282.951 64.3706 283.27 64.8903C283.608 64.9268 283.989 64.968 284.168 64.9874C284.528 65.4207 284.787 65.7331 285.047 66.0459C285.15 65.989 285.253 65.9324 285.356 65.8755C285.174 66.6185 284.991 67.3616 284.782 68.2141C284.925 68.3437 285.136 68.5343 285.339 68.7178C285.385 69.1494 285.43 69.5713 285.459 69.8459C283.566 71.0199 281.709 72.1712 279.82 73.3418C280.148 73.8522 280.427 74.2862 280.707 74.7235C281.241 74.7235 281.775 74.7235 282.395 74.7235C282.454 74.0528 282.509 73.4296 282.565 72.8067C282.658 72.8054 282.751 72.8041 282.845 72.8024C282.845 73.2605 282.852 73.7182 282.843 74.1763C282.767 78.262 282.671 82.3476 282.629 86.4336C282.624 86.9345 282.807 87.488 283.055 87.9317C283.868 89.383 284.75 90.7951 285.634 92.2698C285.089 92.6124 284.622 92.9067 284.112 93.2269C284.478 93.5704 284.831 93.9033 285.258 94.3041C285.471 93.7995 285.641 93.3963 285.811 92.9935C285.895 92.9978 285.978 93.0022 286.061 93.0065C286.061 94.2944 286.061 95.5826 286.061 96.9492C285.86 97.1056 285.63 97.2847 285.462 97.4153C285.462 98.527 285.462 99.5634 285.462 100.902C286.776 99.8209 286.449 98.4507 286.767 97.268C287.244 97.268 287.695 97.268 288.178 97.268C289.091 99.1897 290.199 101.045 289.457 103.351C289.781 103.408 289.915 103.444 290.05 103.451C290.142 103.455 290.237 103.418 290.443 103.378C290.642 104.531 290.831 105.632 291.034 106.814C290.817 106.939 290.601 107.063 290.284 107.246C290.311 107.811 290.341 108.428 290.371 109.045C290.485 109.056 290.6 109.066 290.715 109.077C290.796 108.709 290.876 108.341 290.952 107.998C291.018 108.463 291.088 108.952 291.171 109.536C291.785 109.604 292.349 109.665 292.911 109.727C292.91 109.759 292.909 109.791 292.909 109.823C292.106 109.823 291.304 109.823 290.394 109.823C290.394 111.413 290.394 112.938 290.394 114.611C291.041 114.394 291.615 114.203 292.275 113.982C292.275 112.864 292.275 111.787 292.275 110.613C293.213 110.613 294.048 110.613 294.743 110.613C294.987 111.088 295.198 111.501 295.41 111.914C295.552 111.775 295.695 111.636 295.837 111.497C295.872 112.03 295.908 112.562 295.954 113.234C296.525 113.043 296.986 112.889 297.425 112.743C297.608 112.226 297.762 111.79 297.951 111.255C298.917 111.255 299.918 111.255 301.07 111.255C300.901 110.97 300.814 110.826 300.651 110.551C301.401 110.747 302.049 110.917 302.57 111.052C302.602 111.353 302.541 111.658 302.666 111.802C303.576 112.848 304.763 112.512 305.788 112.629C306.122 112.789 306.456 112.949 306.79 113.109C306.834 113.016 306.878 112.923 306.922 112.83C307.412 113.172 307.902 113.515 308.394 113.859C308.262 114.016 308.158 114.141 307.963 114.373C308.467 114.486 308.828 114.568 309.238 114.66C309.238 115.3 309.238 115.951 309.238 116.661C309.644 116.661 309.982 116.661 310.51 116.661C310.261 116.121 310.05 115.664 309.858 115.247C310.34 115.204 310.848 115.158 311.66 115.085C311.714 115.099 312.093 115.193 312.472 115.287C312.578 115.142 312.685 114.998 312.791 114.853C312.505 114.799 312.221 114.745 311.936 114.691C311.995 114.613 312.055 114.535 312.115 114.457C312.9 114.565 313.684 114.672 314.584 114.795C314.584 114.153 314.584 113.674 314.584 113.177C314.866 113.05 315.109 112.941 315.339 112.837C315.744 113.405 316.129 113.946 316.658 114.689C316.751 114.075 316.805 113.718 316.871 113.288C317.923 112.939 318.98 112.589 320.027 112.242C319.147 112.291 318.234 112.341 317.321 112.392C317.32 112.292 317.319 112.192 317.317 112.092C318.894 112.092 320.47 112.092 321.588 112.092C322.085 112.952 322.399 113.54 322.765 114.092C322.851 114.222 323.119 114.3 323.296 114.289C324.59 114.214 325.424 114.851 325.921 116.068C326.577 116.068 327.184 116.068 327.973 116.068C327.173 117.668 326.453 119.107 325.692 120.627C323.239 119.362 320.864 118.136 318.42 116.876C318.59 116.672 318.729 116.504 319 116.176C318.411 115.963 317.951 115.796 317.589 115.665C316.46 116.338 315.42 116.957 314.247 117.656C313.599 117.656 312.822 117.656 312.043 117.656C313.265 118.974 314.417 120.215 315.548 121.435C315.548 122.189 315.548 122.878 315.548 123.813C316.098 123.654 316.525 123.53 317.023 123.386C321.43 128.457 323.04 138.191 320.397 143.523C320.295 143.254 320.202 143.01 320.109 142.766C319.98 142.779 319.85 142.792 319.72 142.805C319.756 143.561 319.792 144.317 319.844 145.4C319.546 145.657 319.002 146.126 318.392 146.652C318.684 146.806 318.875 146.907 319.17 147.062C318.93 147.84 318.685 148.636 318.416 149.512C318.188 149.305 318.047 149.177 317.906 149.049C317.805 149.073 317.704 149.098 317.602 149.122C317.676 149.994 317.75 150.866 317.824 151.739C317.755 151.758 317.686 151.777 317.617 151.796C317.504 151.587 317.391 151.379 317.277 151.17C317.195 151.181 317.112 151.192 317.029 151.202C317.029 151.996 317.029 152.79 317.029 153.697C317.183 153.452 317.297 153.271 317.41 153.091C317.479 153.124 317.548 153.156 317.616 153.189C317.277 153.955 316.937 154.721 316.549 155.596C316.606 155.015 316.654 154.522 316.703 154.03C316.624 153.985 316.544 153.94 316.465 153.895C316.25 154.334 316.034 154.774 315.819 155.213C315.702 155.117 315.585 155.021 315.468 154.925C315.468 155.895 315.468 156.866 315.468 157.869C315.246 158.039 315.041 158.196 315.042 158.195C314.736 158.89 314.521 159.377 314.237 160.022C314.324 160.296 314.477 160.776 314.63 161.255C314.56 161.242 314.492 161.23 314.422 161.217C314.27 161.946 314.117 162.676 313.96 163.431C314.355 163.587 314.588 163.679 315.029 163.853C314.672 164.188 314.409 164.434 314.147 164.679C313.488 167.274 313.107 169.918 313.603 172.718C313.935 174.587 313.608 176.592 312.667 178.408C312.456 178.314 312.27 178.232 311.995 178.11C312.074 178.816 312.144 179.441 312.215 180.066C312.112 180.086 312.009 180.106 311.906 180.127C311.867 179.836 311.827 179.545 311.752 178.992C310.649 179.951 311.555 181.864 309.834 182.121C309.619 185.477 309.408 188.788 309.196 192.098C309.264 192.109 309.332 192.119 309.401 192.13C309.498 191.827 309.595 191.525 309.692 191.223C309.716 191.226 309.741 191.229 309.766 191.233C309.34 194.243 308.913 197.252 308.487 200.261C308.463 200.259 308.438 200.257 308.413 200.255C308.387 199.719 308.359 199.183 308.332 198.647C307.406 200.446 307.713 202.379 307.728 204.33C307.016 204.38 306.413 204.423 305.746 204.471C305.746 204.864 305.746 205.192 305.746 205.645C306.364 205.685 306.964 205.725 307.623 205.769C307.723 206.282 307.817 206.764 307.907 207.227C306.774 208.729 305.229 208.71 303.556 208.457C303.509 208.05 303.466 207.676 303.415 207.24C303.084 207.22 302.792 207.202 302.321 207.173C302.644 207.617 302.873 207.93 303.102 208.244C303.057 208.294 303.012 208.344 302.968 208.394C302.601 208.048 302.235 207.701 302.08 207.554C301.93 206.884 301.836 206.467 301.705 205.878C302.01 205.42 302.469 204.731 303.032 203.887C303.01 204.335 302.997 204.601 302.977 205.002C303.524 204.81 303.952 204.659 304.466 204.478C304.595 204.056 304.725 203.63 304.903 203.043C304.327 203.155 303.905 203.237 303.772 203.262C303.918 200.252 304.067 197.216 304.222 194.048C304.36 193.944 304.593 193.768 304.839 193.582C304.839 193.075 304.839 192.574 304.839 191.749C304.579 192.29 304.446 192.565 304.314 192.841C304.244 192.815 304.173 192.79 304.103 192.764C304.27 192.275 304.438 191.786 304.613 191.272C304.961 191.46 305.178 191.576 305.369 191.679C305.493 191.573 305.593 191.531 305.603 191.473C306.317 187.404 306.759 183.316 306.31 179.183C306.273 178.844 305.957 178.54 305.796 178.207C305.713 178.038 305.62 177.834 305.642 177.659C305.849 176.024 306.081 174.392 306.306 172.748C306.527 172.729 306.776 172.708 307.081 172.683C307.647 170.203 307.834 167.796 306.714 165.432C306.594 166.508 306.474 167.585 306.353 168.661C306.272 168.652 306.19 168.642 306.108 168.632C306.304 167.161 306.634 165.693 306.658 164.219C306.681 162.814 306.385 161.403 306.193 159.678C305.688 158.439 305.089 156.971 304.49 155.503C304.384 159.592 301.624 162.402 299.647 165.686C298.728 165.095 297.885 164.553 297.057 164.02C297.116 163.302 297.172 162.62 297.234 161.851C297.471 161.637 297.768 161.367 298.115 161.05C298.399 161.158 298.718 161.28 298.903 161.35C299.5 161.107 299.997 160.905 300.619 160.652C300.452 160.159 300.259 159.587 300.013 158.861C298.907 158.861 297.76 158.861 296.371 158.861C296.582 156.656 296.775 154.629 296.981 152.472C296.526 152.319 295.952 152.127 295.216 151.881C295.314 153.166 295.404 154.339 295.493 155.512C295.443 155.517 295.393 155.522 295.343 155.528C295.309 154.89 295.275 154.252 295.232 153.441C293.386 154.46 291.942 155.753 290.692 157.297C290.461 157.582 290.109 157.769 289.638 158.139C289.655 158.17 289.777 158.393 289.884 158.586C289.581 159.462 289.239 160.446 288.852 161.566C288.727 161.603 288.485 161.676 288.203 161.762C287.988 162.212 287.762 162.69 287.477 163.289C287.739 163.826 288.037 164.436 288.519 165.426C288.724 165.06 288.845 164.843 289.036 164.501C289.374 165.285 289.703 166.051 290.028 166.806C289.127 167.727 289.656 171.421 290.826 172.378C290.663 172.951 290.495 173.541 290.317 174.169C290.769 174.452 291.189 174.715 291.639 174.999C291.639 175.788 291.639 176.562 291.639 177.047C292.035 177.806 292.303 178.318 292.687 179.053C292.666 179.041 292.888 179.173 293.091 179.296C293.091 179.741 293.091 180.127 293.091 180.608C292.88 180.451 292.735 180.342 292.588 180.234C292.503 180.269 292.417 180.305 292.331 180.341C292.515 180.737 292.699 181.132 292.994 181.767C292.784 182.766 292.895 184.173 292.078 185.272C291.931 185.249 291.785 185.225 291.638 185.202C291.717 185.508 291.797 185.813 291.956 186.426C291.388 187.593 290.66 189.088 289.884 190.68C288.595 190.613 287.367 190.549 286.098 190.483C285.585 188.733 284.613 187.178 285.489 185.46C285.975 184.952 286.462 184.443 287.017 183.862C286.52 183.501 286.283 183.33 286.047 183.158C286.092 183.129 286.137 183.1 286.182 183.072C285.944 182.604 285.706 182.136 285.468 181.668C285.41 181.693 285.351 181.717 285.293 181.742C285.067 178.37 284.84 174.999 284.609 171.556C284.114 171.556 283.705 171.556 283.233 171.556C283.041 172.086 282.847 172.625 282.742 172.915C282.993 173.662 283.176 174.204 283.396 174.858C282.756 174.945 282.383 174.995 281.923 175.057C281.923 178.106 281.915 181.13 281.936 184.155C281.939 184.449 282.124 184.743 282.23 185.035C282.939 186.978 283.65 188.922 284.524 191.312C285.108 191.561 286.207 192.031 287.39 192.536C287.432 192.818 287.49 193.198 287.568 193.715C287.892 193.741 288.247 193.77 288.668 193.805C288.751 193.305 288.818 192.897 288.897 192.421C290.282 192.177 291.645 191.938 293.094 191.683C292.829 193.615 292.564 195.559 292.289 197.574C291.67 197.711 291.11 197.835 290.55 197.958C290.554 197.884 290.558 197.81 290.562 197.736C289.815 197.575 289.069 197.413 288.276 197.241C288.448 196.44 288.623 195.623 288.823 194.692C288.325 194.692 287.968 194.692 287.548 194.692C287.501 195.341 287.459 195.947 287.411 196.625C286.741 196.625 286.136 196.625 285.431 196.625C285.352 196.217 285.266 195.775 285.138 195.111C284.267 194.941 283.316 194.756 282.365 194.569C282.33 194.686 282.295 194.802 282.261 194.918C281.581 194.18 280.902 193.441 280.314 192.802C280.314 191.969 280.314 191.283 280.314 190.352C279.798 190.475 279.335 190.585 278.819 190.707C278.73 189.873 279.161 188.538 277.185 188.54C277.535 188.005 277.772 187.643 278.04 187.233C277.633 185.848 277.189 184.337 276.724 182.759C276.463 182.724 276.125 182.68 275.691 182.624C275.593 181.997 275.493 181.357 275.391 180.701C275.669 180.545 275.886 180.423 276.239 180.225C275.989 179.903 275.788 179.645 275.424 179.176C275.424 178.356 275.424 177.231 275.424 176.091C275.631 176.153 275.788 176.2 276.227 176.33C275.893 175.563 275.65 175.005 275.367 174.354C275.932 174.239 276.336 174.157 276.826 174.057C276.826 172.583 276.826 171.114 276.826 169.645C276.887 169.657 276.948 169.668 277.008 169.68C277.368 168.992 277.728 168.305 278.143 167.511C278.026 167.129 277.866 166.613 277.707 166.095C277.783 166.107 277.861 166.118 277.938 166.13C278.092 165.471 278.245 164.811 278.368 164.28C277.92 163.712 277.589 163.293 277.259 162.874C277.314 162.808 277.369 162.742 277.424 162.676C277.627 162.773 277.83 162.869 278.359 163.121C277.99 162.255 277.738 161.664 277.467 161.026C277.209 161.026 276.951 161.026 276.6 161.026C276.715 161.265 276.802 161.447 276.922 161.696C275.988 161.696 275.102 161.696 274.144 161.696C274.056 161.138 273.973 160.607 273.89 160.076C273.814 160.076 273.738 160.075 273.662 160.074C273.544 160.336 273.428 160.598 273.289 160.908C272.934 160.95 272.56 160.993 272.104 161.046C272.255 161.28 272.36 161.442 272.594 161.803C272.025 161.428 271.65 161.181 271.22 160.898C271.22 160.523 271.22 160.108 271.22 159.55C270.577 159.597 270.002 159.638 269.427 159.68C267.514 158.949 266.108 157.392 264.873 155.628C264.413 154.969 263.767 154.441 263.177 153.823C262.754 154.221 262.536 154.426 262.361 154.59C261.819 156.322 262.43 157.455 264.322 158.165C264.322 159.114 264.322 160.108 264.322 161.316C264.116 161.65 263.793 162.173 263.469 162.695C263.421 162.676 263.372 162.657 263.324 162.638C263.367 162.366 263.411 162.093 263.469 161.735C263.093 161.713 262.764 161.694 262.269 161.665C262.312 162.492 262.351 163.235 262.39 163.979C262.503 164.034 262.617 164.089 262.73 164.144C261.314 165.677 260.021 167.35 258.458 168.713C255.565 171.236 252.938 173.872 252.171 177.832C252.046 178.48 251.899 179.124 251.746 179.842C251.546 179.883 251.301 179.932 250.999 179.994C250.809 180.555 250.614 181.131 250.339 181.944C250.932 181.827 251.335 181.747 251.823 181.651C252.024 182.765 252.269 184.121 252.514 185.478C252.46 185.491 252.406 185.505 252.353 185.518C252.221 185.082 252.091 184.645 251.871 183.917C251.527 184.524 251.284 184.952 251.015 185.424C251.279 185.713 251.501 185.956 251.731 186.207C251.753 186.56 251.775 186.907 251.794 187.209C254.017 188.593 251.742 190.61 252.708 192.336C253.072 192.194 253.522 192.017 253.858 191.886C253.907 192.493 253.956 193.109 254.028 194.016C254.011 194.182 253.962 194.661 253.913 195.139C254.006 195.161 254.099 195.184 254.192 195.207C254.283 195.063 254.376 194.92 254.514 194.703C254.819 195.158 255.11 195.593 255.464 196.122C255.117 196.122 254.908 196.122 254.411 196.122C254.925 196.83 255.286 197.45 255.767 197.956C256.24 198.454 256.835 198.837 257.546 199.407C257.946 199.356 258.537 199.278 258.921 199.228C259.055 200.065 259.172 200.795 259.325 201.747C258.222 202.216 257.072 202.704 255.855 203.222C253.528 201.033 251.179 198.823 248.894 196.674C248.613 195.115 248.35 193.65 248.086 192.186C248.157 192.171 248.227 192.156 248.298 192.141C248.41 192.599 248.523 193.056 248.635 193.513C248.686 193.506 248.737 193.499 248.788 193.492C248.788 192.255 248.788 191.017 248.788 189.634C248.49 189.793 248.323 189.881 248.149 189.974C248.108 189.891 248.034 189.793 248.008 189.684C247.496 187.573 246.981 185.462 246.491 183.346C246.436 183.108 246.485 182.825 246.554 182.583C246.836 181.603 246.713 180.773 245.831 180.124C245.57 179.932 245.241 179.605 245.234 179.333C245.182 177.42 245.207 175.506 245.207 173.446C245.456 173.785 245.606 173.987 245.966 174.474C246.527 172.607 247.008 171.008 247.506 169.351C247.903 169.125 248.337 168.878 248.88 168.568C249.113 166.314 249.352 164.005 249.593 161.675C250.041 161.406 250.468 161.15 250.966 160.851C250.966 159.274 250.966 157.687 250.966 156.097C251.422 155.817 251.814 155.577 252.315 155.269C252.156 154.681 251.988 154.061 251.841 153.515C252.218 153.053 252.563 152.629 252.924 152.185C253.32 152.248 253.76 152.317 254.243 152.393C253.779 151.27 253.356 150.247 252.911 149.171C251.024 148.822 251.024 148.822 250.936 148.097C251.143 148.402 251.3 148.633 251.49 148.912C251.665 147.982 251.825 147.131 252.043 145.971C251 145.215 251.373 143.025 249.356 142.089C249.183 139.598 248.994 136.885 248.806 134.172C248.947 134.163 249.087 134.154 249.228 134.145C249.228 135.721 249.228 137.298 249.228 138.874C249.328 138.875 249.428 138.876 249.528 138.877C249.528 137.411 249.528 135.944 249.528 134.393C252.676 134.459 253.81 137.224 255.986 138.559C255.986 139.419 255.986 140.263 255.986 141.178C256.455 141.178 256.817 141.178 257.318 141.178C257.164 138.933 258.524 137.633 260.267 136.411C260.512 136.383 260.927 136.334 261.389 136.279C261.446 135.882 261.499 135.507 261.564 135.051C262.021 134.995 262.469 134.94 262.961 134.88C264.217 133.408 265.49 131.916 266.762 130.423C266.842 130.484 266.922 130.546 267.001 130.607C267.045 130.263 267.09 129.92 267.143 129.51C267.45 129.362 267.784 129.202 268.17 129.016C267.918 128.663 267.696 128.352 267.607 128.226C264.882 130.731 262.162 133.231 259.479 135.698C259.013 135.732 258.629 135.761 258.174 135.794C258.113 136.167 258.053 136.531 257.93 137.271C257.137 136.572 256.522 136.03 255.842 135.43C256.185 135.049 256.369 134.846 256.559 134.636C256.232 134.341 255.958 134.094 255.704 133.866C254.876 134.037 254.057 134.207 253.213 134.382C252.358 132.749 251.564 131.234 250.736 129.653C250.626 129.721 250.38 129.872 250.004 130.103C249.713 129.165 249.435 128.265 249.123 127.258C249.768 127.016 250.368 126.79 251.008 126.549C251.223 125.642 251.435 124.749 251.635 123.904C250.194 123.075 248.867 122.31 247.46 121.499C247.328 121.115 247.164 120.642 246.976 120.096C247.783 119.671 248.591 119.248 249.575 118.73C249.575 117.533 249.575 116.189 249.575 114.888C251.495 114.399 252.391 115.762 253.536 116.721C253.147 113.869 252.556 111.199 249.61 109.879C249.61 107.353 249.61 104.909 249.61 102.436C249.348 102.236 249.12 102.061 248.878 101.875C248.878 100.881 248.878 99.91 248.878 98.9386C248.756 98.9801 248.634 99.022 248.512 99.0635C248.103 98.0612 247.694 97.059 247.219 95.898C245.672 95.5618 244.16 96.0976 242.689 97.2355C242.744 98.5193 242.469 99.9515 243.866 100.939C243.737 101.246 243.604 101.563 243.47 101.879C243.566 101.859 243.663 101.839 243.76 101.819C244.18 103.427 244.6 105.035 245.02 106.642C245.106 106.62 245.192 106.598 245.278 106.575C245.102 107.361 244.926 108.147 244.737 108.994C245.228 109.071 245.6 109.129 246.104 109.208C246.104 110.075 246.104 110.949 246.104 111.785C246.608 112.094 246.998 112.334 247.467 112.622C247.283 113.492 247.102 114.351 246.905 115.282C247.352 115.373 247.751 115.453 248.189 115.541C248.189 116.397 248.189 117.233 248.189 118.022C247.62 118.221 247.13 118.392 246.738 118.528C246.117 116.929 245.446 115.196 244.843 113.639C245.227 113.702 245.719 113.782 246.21 113.863C246.234 113.755 246.258 113.648 246.281 113.541C246.021 113.433 245.761 113.326 245.452 113.199C245.403 112.85 245.348 112.47 245.287 112.036C245.034 112.036 244.789 112.036 244.498 112.036C244.362 111.633 244.228 111.234 244.187 111.112C244.343 110.424 244.44 109.994 244.538 109.564C244.445 109.539 244.352 109.513 244.26 109.488C244.135 109.587 244.01 109.687 243.576 110.032C243.397 108.194 243.242 106.602 243.078 104.92C242.856 105.058 242.664 105.179 242.476 105.297C242.511 104.523 242.545 103.751 242.585 102.869C242.272 102.927 242.086 102.962 241.848 103.006C241.372 102.093 240.85 101.089 240.369 100.166C239.504 100.047 238.732 99.9412 237.898 99.8263C238.201 99.2477 238.406 98.8562 238.678 98.3368C239.396 97.9661 240.218 97.5412 241.099 97.0865C241.099 96.762 241.099 96.388 241.099 95.6841C239.478 96.7526 238.039 97.7009 236.378 98.7959C236.378 97.8998 236.378 97.3704 236.378 96.7553C236.526 96.5872 236.736 96.3474 237.097 95.9379C236.066 95.9379 235.248 95.9379 234.32 95.9379C234.284 96.5212 234.246 97.1253 234.199 97.8516C233.51 97.8978 232.832 97.9437 232.05 97.9963C230.619 96.2436 231.014 94.2425 231.274 92.4316C232.32 91.5187 233.248 90.7094 234.315 89.7785C234.164 89.5102 233.957 89.1422 233.712 88.7086C234.685 87.5865 235.704 86.4115 236.568 85.4146C236.917 85.8261 237.369 86.3582 237.883 86.964C238.289 86.4978 238.519 86.2336 238.747 85.9721C239.252 86.537 239.804 86.9784 240.114 87.5513C240.416 88.1092 240.471 88.801 240.655 89.5116C242.529 89.7932 242.909 91.358 243.274 92.9268C244.682 92.9268 245.987 92.9268 247.397 92.9268C247.437 92.2822 247.474 91.6741 247.516 90.981C249.663 89.7323 251.313 88.0205 251.704 85.3794C252.182 85.3144 252.596 85.2585 252.882 85.2193C253.68 83.3857 254.43 81.6615 255.25 79.7759C254.66 79.7491 254.254 79.7306 253.727 79.7065C251.797 82.1627 250.669 85.0415 249.801 87.4458C248.088 88.9882 246.734 90.2084 245.228 91.5639C244.487 89.7544 243.773 88.0107 242.984 86.0843C242.84 86.0639 242.429 86.0059 242.005 85.946C241.675 85.301 241.348 84.6581 240.982 83.9412C240.444 83.9412 239.868 83.9412 239.299 83.9412C239.114 83.619 238.964 83.3565 238.814 83.094C238.9 83.1107 238.985 83.1275 239.07 83.1439C239.345 81.2938 239.621 79.444 239.908 77.5152C240.081 77.5152 240.51 77.5152 241.131 77.5152C240.97 77.0277 240.838 76.6245 240.648 76.0458C240.972 75.8396 241.4 75.5667 241.898 75.2495C242.125 75.3014 242.599 75.4096 243.236 75.5546C243.124 75.0406 243.061 74.7536 242.98 74.3859C242.681 74.5564 242.465 74.6789 242.249 74.8025C242.213 74.7563 242.177 74.7101 242.141 74.6639C242.433 74.3267 242.724 73.9891 243.016 73.6523C243.036 73.7279 243.056 73.8036 243.077 73.8796C243.809 73.747 244.54 73.6144 245.301 73.4765C245.301 72.941 245.301 72.5653 245.301 72.0908C244.893 72.1651 244.534 72.2308 243.889 72.3487C242.391 70.7577 240.785 69.052 238.996 67.152C239.88 66.8248 240.401 66.6316 241 66.4096C241.176 66.6205 241.353 66.8312 241.735 67.2876C242.081 66.4755 242.555 65.841 242.568 65.1977C242.58 64.5327 242.143 63.8589 241.947 63.3121C242.211 62.7716 242.451 62.2794 242.751 61.6626C242.145 61.5497 241.78 61.4814 241.31 61.394C241.588 59.2814 243.27 58.2319 245.021 56.8821C244.386 56.8131 244.153 56.788 243.921 56.7629C243.902 56.6933 243.883 56.6236 243.863 56.554C245.022 56.3463 246.181 56.1381 247.173 55.9602C247.346 53.0841 247.509 50.358 247.673 47.6316C247.812 47.6149 247.951 47.5981 248.09 47.5817C248.231 47.7706 248.373 47.9591 248.734 48.4413C248.734 47.2699 248.734 46.4371 248.734 45.7718C249.369 45.7282 249.942 45.6891 250.465 45.6532C250.702 44.9822 250.868 44.5134 251.055 43.985C253.011 43.7003 254.978 43.4144 257.262 43.0825C257.52 43.8711 257.844 44.861 258.2 45.9489C258.479 46.0025 258.846 46.0728 259.362 46.1719C259.152 46.8437 258.953 47.4819 258.734 48.1861C257.823 48.1861 256.977 48.1861 256.041 48.1861C256.016 48.6385 255.996 49.0059 255.97 49.4673C257.114 49.4673 258.177 49.4673 259.281 49.4673C259.346 49.0628 259.407 48.6864 259.476 48.2625C259.858 48.1992 260.231 48.1372 260.755 48.0505C260.613 47.5928 260.482 47.1732 260.352 46.7533L260.354 46.7576ZM299.517 144.146C299.385 143.546 299.254 142.946 299.088 142.191C298.581 142.578 298.277 142.809 297.838 143.145C298.502 143.52 299.029 143.818 299.556 144.115C299.481 144.974 299.406 145.832 299.324 146.78C299.849 146.78 300.208 146.78 300.615 146.78C300.615 145.892 300.615 145.068 300.615 144.205C300.204 144.181 299.863 144.161 299.517 144.146ZM257.219 60.8616C256.786 61.2048 256.428 61.4885 256.114 61.7369C254.863 61.7466 254.863 61.7466 252.388 58.7503C251.944 58.7138 251.485 58.6763 251.052 58.6408C250.748 58.1479 250.474 57.7012 250.135 57.151C249.852 57.517 249.659 57.7678 249.381 58.1271C248.869 57.947 248.38 57.7752 247.89 57.6034C247.923 57.668 247.954 57.7323 247.986 57.797C247.129 57.8947 246.273 57.9922 245.338 58.0987C244.945 58.5283 244.503 59.0112 244.093 59.4589C244.093 61.5906 244.093 63.6486 244.093 65.7358C245.251 66.8328 246.402 67.9245 247.561 69.0232C249.856 69.0114 250.123 68.8196 251.097 66.435C251.488 66.435 251.899 66.435 252.521 66.435C252.292 68.2978 252.074 70.0776 251.848 71.9207C252.936 71.9207 253.938 71.9207 254.971 71.9207C255.629 70.2873 257.271 70.2246 258.776 69.7166C258.125 68.5178 256.883 68.84 256.09 68.3889C256.295 66.804 256.498 65.2406 256.717 63.5522C257.57 63.5522 258.409 63.5522 259.309 63.5522C259.336 63.0874 259.355 62.7489 259.367 62.5366C258.617 61.9516 257.965 61.4433 257.219 60.8616ZM267.073 100.655C267.073 98.2558 267.073 95.9781 267.073 93.7519C267.585 93.4499 267.983 93.2151 268.419 92.9576C268.419 92.5377 268.419 92.1248 268.419 91.64C267.509 91.3764 266.63 91.1216 265.605 90.8242C265.847 89.6412 266.074 88.5308 266.291 87.476C266.875 87.4056 267.251 87.3598 267.672 87.3092C267.672 86.8545 267.672 86.457 267.672 86.0595C267.598 86.1486 267.525 86.238 267.452 86.3271C265.924 85.5807 264.396 84.8346 262.796 84.053C263.082 82.8968 263.3 82.0171 263.511 81.1659C264.055 81.1039 264.433 81.061 264.882 81.0102C264.882 80.5554 264.882 80.1519 264.882 79.6952C264.242 79.4698 263.629 79.2538 263.32 79.1446C262.566 79.44 262.08 79.6299 261.61 79.8137C261.255 79.1935 261.01 78.7646 260.749 78.3095C260.331 78.3306 259.956 78.3494 259.302 78.3822C260.842 81.0832 259.785 83.7463 259.359 86.6526C260.282 86.0742 260.861 85.7116 261.534 85.2903C261.781 86.2745 261.996 87.1304 262.213 87.9967C262.692 88.2776 263.153 88.5479 263.656 88.8432C263.656 89.6783 263.656 90.4884 263.656 91.289C263.934 91.51 264.163 91.6922 264.409 91.8884C264.409 93.1964 264.409 94.4756 264.409 95.7333C264.877 96.025 265.3 96.2882 265.827 96.6163C265.827 97.9414 265.827 99.2788 265.827 100.654C266.265 100.655 266.563 100.655 267.073 100.655ZM287.285 144.108C287.628 143.747 287.857 143.506 288.089 143.263C288.089 142.453 288.016 141.667 288.105 140.899C288.27 139.462 287.801 138.308 286.761 137.348C285.277 135.979 283.796 134.607 282.306 133.244C281.94 132.911 281.543 132.612 281.14 132.281C280.909 132.536 280.707 132.758 280.295 133.213C281.301 133.927 282.21 134.573 283.319 135.361C283.398 135.584 283.577 136.092 283.754 136.593C284.305 136.796 284.807 136.979 285.291 137.157C285.787 139.485 285.578 141.96 287.285 144.108ZM272.167 68.4355C271.796 69.2505 271.499 69.9028 271.193 70.5736C270.527 70.6034 269.879 70.6325 269.227 70.6613C269.008 71.3313 268.818 71.9137 268.664 72.3868C269.018 72.795 269.282 73.1001 269.463 73.308C271.212 71.5289 272.731 69.5429 275.376 69.1638C275.458 68.6769 275.527 68.2714 275.594 67.8736C276.041 67.7969 276.412 67.7333 276.837 67.6603C276.837 67.0716 276.837 66.5331 276.837 65.9947C276.9 66.0161 276.963 66.0382 277.026 66.06C277.243 65.6096 277.46 65.1599 277.677 64.7095C277.595 64.6579 277.512 64.606 277.43 64.5548C276.33 65.2362 275.231 65.917 274.02 66.6677C274.082 67.831 273.326 68.3705 272.167 68.4355ZM293.605 140.403C293.757 140.351 293.908 140.3 294.06 140.249C293.726 138.511 293.392 136.774 293.054 135.022C293.773 134.747 294.407 134.503 294.962 134.29C294.962 132.853 294.962 131.529 294.962 130.206C294.863 130.173 294.763 130.139 294.663 130.106C294.489 130.428 294.271 130.734 294.147 131.074C293.79 132.054 293.607 133.126 293.091 134.007C292.748 134.591 292 135.013 291.345 135.319C290.321 135.799 289.222 136.119 288.155 136.507C288.184 136.657 288.213 136.807 288.241 136.957C289.354 137.015 290.467 137.073 291.581 137.131C291.654 137.621 291.709 137.992 291.755 138.307C292.287 138.456 292.738 138.583 293.417 138.773C292.888 139.148 292.634 139.328 292.304 139.563C292.804 139.886 293.204 140.144 293.605 140.403ZM263.484 69.4257C263.753 68.4435 263.899 67.6094 264.224 66.8526C264.387 66.4749 264.914 65.9488 265.214 65.986C266.807 66.1829 267.608 65.1766 268.469 64.0722C268.451 63.7103 268.43 63.3017 268.406 62.8463C267.743 62.6561 267.171 62.492 266.507 62.3012C266.473 63.0452 266.446 63.6473 266.418 64.2618C265.199 64.534 264.075 64.7855 262.834 65.0628C262.593 66.1152 262.358 67.1359 262.161 67.9958C262.657 68.5319 262.973 68.8731 263.484 69.4257ZM273.55 111.944C273.261 111.394 273.057 111.006 272.805 110.527C272.504 110.88 272.311 111.105 272.222 111.21C272.734 112.43 273.194 113.525 273.675 114.668C274.225 114.706 274.833 114.747 275.458 114.79C275.545 115.223 275.619 115.59 275.708 116.027C276.095 115.994 276.422 115.966 276.872 115.928C276.638 114.55 276.42 113.274 276.194 111.944C275.215 111.944 274.366 111.944 273.55 111.944ZM304.099 153.158C304.099 152.375 304.099 151.809 304.099 151.262C303.67 151.164 303.313 151.083 302.775 150.961C303.252 150.01 303.669 149.178 304.164 148.191C303.002 147.974 301.971 147.782 300.759 147.556C301.016 148.863 301.215 149.879 301.415 150.895C301.507 150.852 301.599 150.809 301.691 150.767C302.051 151.389 302.41 152.012 302.852 152.777C303.134 152.864 303.563 152.995 304.099 153.158ZM272.754 81.8188C273.08 82.4072 273.296 82.7966 273.46 83.0923C275.361 83.0923 277.119 83.0923 278.871 83.0923C278.958 82.6238 279.026 82.2535 279.096 81.8758C279.517 81.8061 279.889 81.7442 280.315 81.6735C280.315 81.2616 280.315 80.8956 280.315 80.4747C279.84 80.4747 279.429 80.4747 279.048 80.4747C278.768 80.9475 278.516 81.3721 278.251 81.8185C276.463 81.8188 274.724 81.8188 272.754 81.8188ZM261.904 153.639C262.271 153.357 262.561 153.134 262.988 152.807C262.457 152.452 262.032 152.167 261.564 151.853C261.731 151.415 261.889 151.002 262.045 150.592C261.18 149.977 260.364 149.397 259.429 148.732C259.395 148.044 259.352 147.179 259.294 146.03C258.738 146.445 258.401 146.696 257.88 147.085C258.722 148.888 259.536 150.633 260.377 152.435C260.696 152.464 261.074 152.5 261.469 152.537C261.601 152.873 261.725 153.187 261.904 153.639ZM273.282 158.624C273.282 157.563 273.282 156.504 273.282 155.432C272.85 155.432 272.513 155.432 272.188 155.432C272.097 155.844 272.018 156.192 271.938 156.555C271.048 156.132 270.251 155.754 269.264 155.286C270.047 157.676 271.124 158.526 273.282 158.624ZM277.67 75.5894C278.144 75.5037 278.514 75.4364 278.971 75.3544C278.946 74.9468 278.925 74.5899 278.897 74.101C277.03 74.9117 275.305 75.6611 273.489 76.4497C273.505 76.7032 273.526 77.0323 273.555 77.4945C274.288 77.3833 274.929 77.2899 275.568 77.1881C276.21 77.0859 276.852 76.9758 277.497 76.8683C277.559 76.4075 277.61 76.0288 277.67 75.5894ZM299.259 122.272C299.496 122.049 299.757 121.804 299.948 121.624C300.124 118.453 299.869 117.945 298.024 117.733C298.024 118.968 298.024 120.198 298.024 121.411C298.421 121.688 298.794 121.948 299.259 122.272ZM256.529 89.8454C256.139 89.4895 255.755 89.1389 255.335 88.7541C254.481 89.6837 253.713 90.4073 253.084 91.2351C252.454 92.0632 252.672 92.606 253.51 92.8984C254.445 91.9524 255.347 91.0402 256.529 89.8454ZM286.152 155.429C286.152 156.559 286.152 157.58 286.152 158.736C286.851 158.501 287.449 158.3 288.013 158.11C288.013 157.157 288.013 156.327 288.013 155.429C287.382 155.429 286.823 155.429 286.152 155.429ZM271.441 122.215C271.596 122.262 271.75 122.308 271.904 122.354C272.815 120.961 273.439 119.467 273.308 117.616C272.884 117.616 272.529 117.616 272.105 117.616C272.105 118.469 272.105 119.237 272.105 120.017C271.835 120.223 271.605 120.399 271.441 120.524C271.441 121.152 271.441 121.684 271.441 122.215ZM282.053 93.0926C281.464 94.0061 280.959 94.7903 280.35 95.734C281.141 95.734 281.674 95.734 282.206 95.734C282.134 95.6703 282.063 95.6067 281.991 95.5431C282.319 95.2457 282.646 94.9484 283.097 94.5388C283.097 94.2442 283.097 93.6773 283.097 93.0926C282.636 93.0926 282.262 93.0926 282.053 93.0926ZM252.393 53.5305C253.656 53.5724 254.305 52.9375 254.314 51.5585C253.534 51.3737 252.721 51.1808 251.733 50.9467C252.001 51.9958 252.199 52.7714 252.393 53.5305ZM278.418 127.727C278.842 128.006 279.241 128.27 279.861 128.679C280.061 127.489 280.237 126.447 280.444 125.22C279.573 125.516 278.999 125.711 278.418 125.908C278.418 126.585 278.418 127.162 278.418 127.727ZM270.489 125.88C270.02 125.354 269.674 124.965 269.326 124.574C267.696 126.11 267.473 126.632 267.91 127.961C268.736 127.295 269.531 126.654 270.489 125.88ZM309.958 168.739C309.958 169.434 309.958 170.065 309.958 170.662C310.601 170.937 311.159 171.175 311.796 171.447C311.796 170.428 311.796 169.605 311.796 168.739C311.15 168.739 310.591 168.739 309.958 168.739ZM293.138 125.057C294.321 125.057 295.35 125.057 296.669 125.057C295.665 123.758 294.409 123.566 293.138 123.136C293.138 123.849 293.138 124.412 293.138 125.057ZM250.993 52.6776C250.883 52.5929 250.772 52.5078 250.662 52.4231C249.879 52.8578 249.095 53.2927 248.029 53.8841C248.915 54.4269 249.54 54.809 250.36 55.3116C250.626 54.2056 250.809 53.4414 250.993 52.6776ZM266.543 101.476C266.543 102.175 266.543 102.772 266.543 103.442C267.184 103.442 267.744 103.442 268.377 103.442C268.377 102.757 268.377 102.137 268.377 101.476C267.734 101.476 267.199 101.476 266.543 101.476ZM269.357 74.8635C269.128 75.0553 268.877 75.266 268.596 75.501C269.151 76.5984 269.824 77.392 271.214 77.3572C270.988 76.6858 270.793 76.1068 270.599 75.5302C270.186 75.3092 269.813 75.1086 269.357 74.8635ZM259.785 154.125C259.325 154.321 259.033 154.444 258.797 154.545C259.615 156.128 260.069 156.444 261.396 156.427C261.185 155.804 260.979 155.194 260.788 154.631C260.333 154.401 259.959 154.212 259.785 154.125ZM257.131 75.0074C257.612 75.1173 258.098 75.2278 258.646 75.3527C258.646 74.6381 258.646 74.103 258.646 73.6318C258.175 73.3365 257.766 73.0797 257.309 72.7923C257.098 73.0354 256.883 73.2822 256.652 73.5498C256.811 74.0337 256.953 74.468 257.131 75.0074ZM268.993 116.271C269.444 116.404 269.926 116.545 270.507 116.716C270.507 116.025 270.507 115.499 270.507 114.962C270.089 114.683 269.663 114.398 269.201 114.09C268.974 114.374 268.767 114.633 268.581 114.866C268.713 115.318 268.821 115.685 268.993 116.271ZM264.315 75.1233C264.404 75.2157 264.492 75.3088 264.581 75.4012C265.211 75.129 265.841 74.8571 266.767 74.4569C266.167 73.8364 265.687 73.3392 265.002 72.6313C264.727 73.6315 264.521 74.3772 264.315 75.1233ZM258.786 145.159C258.352 144.549 257.964 144.001 257.4 143.207C257.027 144.09 256.8 144.627 256.579 145.152C257.139 145.518 257.567 145.797 258.02 146.093C258.25 145.813 258.438 145.583 258.786 145.159ZM250.103 81.7241C250.036 80.836 249.144 80.4228 247.636 80.5638C247.636 80.9278 247.636 81.2938 247.636 81.7241C248.503 81.7241 249.302 81.7241 250.103 81.7241ZM290.813 152.555C290.341 152.596 289.987 152.626 289.683 152.652C289.683 153.586 289.683 154.376 289.683 155.244C290.107 155.225 290.432 155.21 290.813 155.193C290.813 154.317 290.813 153.525 290.813 152.555ZM306.908 138.375C306.908 137.465 306.908 136.672 306.908 135.845C306.478 135.845 306.124 135.845 305.74 135.845C305.74 136.727 305.74 137.52 305.74 138.375C306.144 138.375 306.473 138.375 306.908 138.375ZM265.896 76.2819C265.896 77.2359 265.896 78.0818 265.896 79.2669C266.908 78.2653 267.029 77.3461 266.975 76.2819C266.589 76.2819 266.259 76.2819 265.896 76.2819ZM275.549 152.57C276.032 152.492 276.403 152.432 276.868 152.356C276.845 151.964 276.824 151.621 276.788 151.014C275.784 151.593 274.992 152.05 274.099 152.565C274.621 153.024 274.967 153.329 275.395 153.706C275.456 153.257 275.496 152.96 275.549 152.57ZM305.246 142.132C305.184 142.138 305.122 142.143 305.06 142.149C305.06 142.965 305.06 143.781 305.06 144.66C305.468 144.66 305.821 144.66 306.227 144.66C306.227 144.042 306.227 143.511 306.227 142.98C306.11 143.092 305.993 143.203 305.875 143.315C305.666 142.92 305.456 142.526 305.246 142.132ZM271.968 124.374C271.937 123.895 271.916 123.567 271.893 123.22C271.216 123.22 270.627 123.22 269.974 123.22C270.004 123.65 270.027 123.981 270.055 124.374C270.684 124.374 271.242 124.374 271.968 124.374ZM264.34 109.018C264.854 109.018 265.203 109.018 265.551 109.018C265.551 108.317 265.551 107.703 265.551 107.09C265.414 107.05 265.278 107.011 265.14 106.971C264.889 107.614 264.637 108.257 264.34 109.018ZM263.008 59.569C263.008 59.698 263.008 59.8272 263.009 59.9565C263.607 59.9936 264.207 60.0311 264.889 60.074C264.889 59.572 264.889 59.2057 264.889 58.6733C264.191 59.0051 263.599 59.2871 263.008 59.569ZM290.143 175.625C289.451 175.404 288.894 175.225 288.337 175.047C288.268 175.119 288.199 175.191 288.13 175.264C288.491 175.79 288.852 176.316 289.253 176.902C289.566 176.453 289.801 176.117 290.143 175.625ZM264.988 104.322C264.482 104.322 264.13 104.322 263.796 104.322C263.796 105.012 263.796 105.622 263.796 106.233C263.915 106.266 264.033 106.299 264.152 106.333C264.416 105.696 264.681 105.059 264.988 104.322ZM266.562 152.968C266.921 153.296 267.23 153.577 267.553 153.871C267.822 153.402 268.042 153.019 268.3 152.571C267.876 152.34 267.513 152.142 267.11 151.922C266.924 152.276 266.764 152.583 266.562 152.968ZM252.462 128.013C252.495 128.595 252.514 128.925 252.539 129.366C253.222 129.325 253.829 129.29 254.435 129.253C254.466 129.108 254.497 128.964 254.527 128.819C253.903 128.575 253.278 128.332 252.462 128.013ZM280.997 175.737C280.841 175.704 280.685 175.671 280.53 175.637C280.283 176.266 280.036 176.895 279.724 177.69C280.298 177.662 280.656 177.645 281.096 177.623C281.058 176.906 281.028 176.322 280.997 175.737ZM296.679 114.915C297.089 115.293 297.44 115.618 297.908 116.049C298.152 115.33 298.347 114.751 298.634 113.904C297.834 114.318 297.31 114.589 296.679 114.915ZM257.972 70.6606C258.35 71.411 258.665 72.0346 258.979 72.6581C259.069 72.636 259.16 72.6139 259.25 72.5918C259.25 71.9572 259.25 71.323 259.25 70.6606C258.864 70.6606 258.531 70.6606 257.972 70.6606ZM280.667 132.149C280.755 132.135 280.842 132.121 280.929 132.107C280.929 131.48 280.929 130.852 280.929 130.201C280.576 130.201 280.243 130.201 279.691 130.201C280.06 130.937 280.364 131.543 280.667 132.149ZM247.396 85.9195C247.396 85.4628 247.396 85.1028 247.396 84.6976C246.97 84.6976 246.613 84.6976 246.232 84.6976C246.232 85.1296 246.232 85.4906 246.232 85.9195C246.62 85.9195 246.944 85.9195 247.396 85.9195ZM280.335 86.03C279.872 86.0508 279.539 86.0655 279.148 86.0833C279.148 86.5203 279.148 86.8866 279.148 87.2858C279.575 87.2858 279.93 87.2858 280.335 87.2858C280.335 86.8508 280.335 86.5116 280.335 86.03ZM267.96 104.302C267.96 104.748 267.96 105.134 267.96 105.537C268.379 105.537 268.702 105.537 269.07 105.537C269.07 105.088 269.07 104.704 269.07 104.302C268.65 104.302 268.324 104.302 267.96 104.302ZM250.406 75.3771C250.821 75.3771 251.197 75.3771 251.664 75.3771C251.636 74.9144 251.615 74.5581 251.595 74.1994C251.132 74.1994 250.777 74.1994 250.406 74.1994C250.406 74.622 250.406 74.9589 250.406 75.3771ZM297.727 122.514C297.629 122.501 297.531 122.488 297.433 122.476C297.433 123.094 297.433 123.712 297.433 124.436C297.801 124.41 298.147 124.386 298.668 124.35C298.297 123.625 298.012 123.07 297.727 122.514ZM283.955 164.707C284.388 165.175 284.722 165.534 285.055 165.893C285.157 165.878 285.26 165.862 285.362 165.847C285.306 165.268 285.249 164.688 285.175 163.926C284.6 164.294 284.303 164.484 283.955 164.707ZM299.444 153.046C299.827 153.046 300.204 153.046 300.608 153.046C300.608 152.645 300.608 152.319 300.608 151.955C300.193 151.955 299.84 151.955 299.444 151.955C299.444 152.339 299.444 152.637 299.444 153.046ZM293.144 146.862C293.613 146.827 293.94 146.803 294.278 146.777C294.278 146.333 294.278 145.976 294.278 145.543C293.855 145.579 293.525 145.606 293.144 145.639C293.144 146.04 293.144 146.368 293.144 146.862ZM293.852 150.381C294.329 150.331 294.656 150.296 295.003 150.26C295.003 149.848 295.003 149.52 295.003 149.143C294.587 149.143 294.23 149.143 293.852 149.143C293.852 149.553 293.852 149.882 293.852 150.381ZM297.289 140.011C297.313 140.467 297.33 140.797 297.352 141.232C297.784 141.212 298.139 141.196 298.566 141.177C298.545 140.725 298.53 140.396 298.512 140.011C298.104 140.011 297.776 140.011 297.289 140.011ZM278.914 147.646C278.442 147.68 278.113 147.703 277.777 147.727C277.777 148.165 277.777 148.523 277.777 148.962C278.209 148.93 278.538 148.905 278.914 148.877C278.914 148.467 278.914 148.137 278.914 147.646ZM295.015 141.341C294.549 141.378 294.223 141.404 293.799 141.437C293.819 141.873 293.834 142.23 293.853 142.662C294.307 142.624 294.633 142.597 295.015 142.566C295.015 142.163 295.015 141.835 295.015 141.341ZM304.767 146.807C304.767 146.409 304.767 146.024 304.767 145.568C304.371 145.586 304.046 145.601 303.692 145.618C303.692 146.052 303.692 146.407 303.692 146.807C304.074 146.807 304.373 146.807 304.767 146.807ZM255.106 144.848C254.63 144.883 254.301 144.907 253.886 144.936C253.906 145.373 253.922 145.731 253.941 146.167C254.401 146.127 254.731 146.098 255.106 146.066C255.106 145.665 255.106 145.337 255.106 144.848ZM253.462 144.003C253.6 143.986 253.739 143.968 253.878 143.95C253.787 143.422 253.697 142.895 253.588 142.266C253.072 142.586 252.774 142.77 252.409 142.997C252.802 143.373 253.131 143.688 253.462 144.003ZM296.482 136.28C296.446 135.805 296.42 135.478 296.388 135.051C295.956 135.077 295.602 135.097 295.175 135.123C295.21 135.583 295.235 135.911 295.263 136.28C295.667 136.28 295.993 136.28 296.482 136.28ZM251.837 127.23C252.286 127.205 252.616 127.186 252.973 127.166C252.973 126.733 252.973 126.378 252.973 125.937C252.547 125.963 252.219 125.984 251.837 126.007C251.837 126.414 251.837 126.743 251.837 127.23ZM287.323 165.17C286.853 165.203 286.523 165.226 286.104 165.255C286.124 165.692 286.14 166.05 286.159 166.482C286.617 166.446 286.949 166.42 287.323 166.391C287.323 165.985 287.323 165.656 287.323 165.17ZM278.928 121.84C278.528 121.84 278.144 121.84 277.688 121.84C277.707 122.244 277.724 122.574 277.741 122.936C278.174 122.936 278.531 122.936 278.928 122.936C278.928 122.546 278.928 122.245 278.928 121.84ZM297.997 155.433C298.019 155.882 298.036 156.209 298.053 156.565C298.489 156.565 298.842 156.565 299.271 156.565C299.252 156.139 299.238 155.812 299.222 155.455C299.003 155.418 298.858 155.376 298.712 155.374C298.526 155.372 298.341 155.403 297.997 155.433Z" fill="white"/>
<path fill-rule="evenodd" clip-rule="evenodd" d="M260.353 46.7552C260.016 45.3341 259.202 44.2481 258.167 43.5278C258.753 43.1026 259.418 42.692 260.002 42.1861C272.985 30.9284 285.96 19.6603 298.917 8.41002C299.585 5.89723 297.998 3.9259 297.312 1.6291C298.226 1.11274 299.127 0.603419 300.195 0C302.68 4.4503 305.149 8.87112 307.668 13.3814C306.785 14.033 305.954 14.6455 305.028 15.3279C304.073 13.7872 303.16 12.3142 302.214 10.7889C301.487 10.8917 300.801 10.9888 300.021 11.0989C296.61 14.1197 293.15 17.1864 289.688 20.251C280.255 28.6001 270.817 36.9442 261.399 45.3096C260.965 45.6951 260.698 46.2697 260.354 46.7569C260.354 46.7576 260.353 46.7552 260.353 46.7552Z" fill="white"/>
<path fill-rule="evenodd" clip-rule="evenodd" d="M282.728 216.294C282.317 216.084 282.157 216.003 281.989 215.917C281.699 216.29 281.42 216.649 281.108 217.049C280.122 217.19 279.092 217.338 277.986 217.496C278.024 217.405 278.079 217.271 278.165 217.06C277.782 216.994 277.415 216.93 276.961 216.851C276.961 215.728 276.961 214.625 276.961 213.398C278.296 213.398 279.598 213.398 280.989 213.398C280.989 212.686 280.989 212.095 280.989 211.448C280.343 211.389 279.74 211.334 279.062 211.272C279.062 210.807 279.062 210.401 279.062 209.965C279.468 209.719 279.863 209.479 280.194 209.278C280.194 206.525 280.194 203.815 280.194 200.981C280.462 201.188 280.646 201.33 280.83 201.473C280.904 201.434 280.977 201.396 281.051 201.357C280.916 200.984 280.782 200.61 280.607 200.126C280.697 199.926 280.836 199.613 280.973 199.306C281.261 199.336 281.508 199.361 281.803 199.392C282.043 198.922 282.268 198.481 282.615 197.8C282.384 197.693 282.146 197.583 281.882 197.461C282.083 197.135 282.242 196.876 282.567 196.348C283.405 196.688 284.443 196.844 285.063 197.437C285.669 198.017 285.85 199.043 286.248 199.941C286.374 199.573 286.499 199.207 286.623 198.84C286.658 198.847 286.694 198.854 286.729 198.861C286.231 201.52 285.733 204.18 285.213 206.96C285.019 206.596 284.88 206.335 284.791 206.169C284.155 207.432 283.519 208.692 282.803 210.11C283.051 210.388 283.482 210.872 283.916 211.359C283.97 211.739 284.023 212.113 284.077 212.487C284.131 212.496 284.186 212.505 284.241 212.513C284.378 212.053 284.514 211.593 284.651 211.133C284.75 211.175 284.85 211.216 284.949 211.258C284.447 212.459 283.944 213.661 283.402 214.957C283.079 214.776 282.887 214.67 282.588 214.503C282.637 215.126 282.675 215.615 282.728 216.294ZM281.954 205.623C282.37 205.623 282.725 205.623 283.174 205.623C283.144 205.173 283.121 204.817 283.093 204.389C282.632 204.432 282.303 204.463 281.955 204.495C281.954 204.906 281.954 205.236 281.954 205.623Z" fill="white"/>
</svg>
