<svg width="335" height="200" viewBox="0 0 335 200" fill="none" xmlns="http://www.w3.org/2000/svg">
<path d="M24.919 124.149H16.6532V83.5901H0V75.8916H41.248V83.5901H24.919" fill="black"/>
<path d="M194.976 83.5901H167.342V97.8527H192.95V105.592H167.342V124.149H159.036V75.8916H194.976" fill="black"/>
<path d="M269.125 83.5901H257.82V97.8527H269.125C275.77 97.8527 279.417 95.0164 279.417 90.4378C279.417 85.2109 275.446 83.5901 269.125 83.5901ZM280.43 124.149L268.436 105.511H257.82V124.149H249.514V75.8916H270.786C282.091 75.8916 288.088 81.159 288.088 90.1947C288.088 98.42 283.428 102.634 277.431 104.052L290.438 124.149H280.43Z" fill="black"/>
<path d="M309.36 83.5901H299.676V116.41H309.36C319.652 116.41 325.973 109.765 325.973 100.041C325.973 90.5593 319.652 83.5901 309.36 83.5901ZM309.36 124.149H291.41V75.8916H309.36C325 75.8916 334.968 85.9402 334.968 99.9597C334.968 113.614 325.324 124.149 309.36 124.149Z" fill="black"/>
<path d="M114.384 124.149L101.459 89.5464V124.149H93.1118V75.8916H105.105L116.734 106.888L128.687 75.8916H140.681V124.149H132.374V89.4654L119.044 124.149" fill="black"/>
<path d="M64.5461 82.8201C54.8621 82.8201 48.2171 90.3566 48.2171 100C48.2171 109.562 54.8621 117.18 64.5461 117.18C74.1895 117.18 80.794 109.684 80.794 100.041C80.794 90.4376 74.149 82.8201 64.5461 82.8201ZM64.5461 125C49.9188 125 39.2219 113.938 39.2219 100.041C39.2219 86.1021 49.8783 75 64.5461 75C79.4975 75 89.8297 86.0616 89.8297 99.9595C89.7892 113.898 79.4975 125 64.5461 125Z" fill="black"/>
<path d="M220.908 82.8201C211.224 82.8201 204.619 90.3566 204.619 100C204.619 109.562 211.588 117.18 220.908 117.18C230.551 117.18 237.156 109.684 237.156 100.041C237.156 90.4376 230.511 82.8201 220.908 82.8201ZM220.908 125C206.28 125 195.624 113.938 195.624 100.041C195.624 86.1021 206.28 75 220.908 75C235.859 75 246.151 86.0616 246.151 99.9595C246.151 113.898 235.859 125 220.908 125Z" fill="black"/>
</svg>
