<svg width="567" height="200" viewBox="0 0 567 200" fill="none" xmlns="http://www.w3.org/2000/svg">
<path d="M245 107V92H269V107H245Z" fill="white"/>
<path d="M58.3051 84C48.3543 84 41.8287 91.2366 41.8287 99.75C41.8287 108.084 48.1775 115.518 58.2165 115.518C68.6171 115.518 74.8346 108.039 74.8346 99.75C74.8346 91.1939 68.4352 84 58.3051 84ZM481.925 84C472.558 84 465.431 90.8935 465.431 99.9449C465.431 108.945 472.37 115.518 481.783 115.518C486.059 115.518 489.38 114.786 493.476 112.984H493.494V99.9803H483.183V103.931H489.083V110.238C486.965 110.918 484.791 111.461 482.403 111.461C475.114 111.461 469.984 106.646 469.984 99.8031C469.984 93.1399 475.17 88.0394 481.836 88.0394C485.528 88.0394 489.253 89.0907 492.856 91.0689V86.6043C488.034 84.5777 485.529 84 481.925 84ZM0 84.4075V88.3583H10.6299V115.11H15.0413V88.3583H25.6713V84.4075H0ZM95.5453 84.4075V115.11H99.9567V91.1929H100.045L109.506 103.081H110.232L119.675 91.1929H119.781V115.11H124.193V84.4075H120.083L109.86 97.0039L99.6909 84.4075H95.5453ZM149.138 84.4075V115.11H153.549V91.1929H153.638L163.098 103.081H163.807L173.268 91.1929H173.356V115.11H177.768V84.4075H173.675L163.453 97.0039L153.266 84.4075H149.138ZM196.902 84.4075L208.293 98.8642V115.11H212.705V98.8996L224.096 84.4075H218.781L210.455 94.9842L202.216 84.4075H196.902ZM245.232 84.4075V92.0433H292.464V84.4075H245.232ZM317.463 84.4075V115.11H321.874V101.734H339.077V115.11H343.488V84.4075H339.077V97.7657H321.874V84.4075H317.463ZM361.772 84.4075V115.11H366.165V84.4075H361.772ZM384.272 84.4075V115.11H402.555V111.142H388.683V84.4075H384.272ZM415.222 84.4075V115.11H419.634V100.831H431.628V96.8799H419.634V88.3583H431.628V84.4075H415.222ZM447.059 84.4075V115.11H451.47V84.4075H447.059ZM510.272 84.4075V115.11H528.112V111.142H514.701V101.593H527.262V97.6417H514.701V88.3583H527.705V84.4075H510.272ZM543.189 84.4075V115.11H547.618V101.787H549.46C551.712 101.787 553.56 102.498 557.61 108.803L561.649 115.11H566.929C564.811 112.184 564.037 111.145 562.73 109.033C560.39 105.202 558.681 102.359 555.892 100.512C559.185 99.2053 561.029 96.5579 561.029 93C561.029 87.6887 557.165 84.4075 550.949 84.4075H543.189ZM58.3051 88.0394C65.1933 88.0394 70.2815 92.9956 70.2815 99.75C70.2815 106.459 65.1933 111.461 58.3051 111.461C51.4596 111.461 46.3819 106.462 46.3819 99.75C46.3819 92.9956 51.4596 88.0394 58.3051 88.0394ZM547.618 88.1811H550.453C554.734 88.1811 556.425 89.9395 556.476 92.8228C556.519 95.3902 555.183 97.8189 550.453 97.8189H547.618V88.1811Z" fill="black"/>
<rect x="245" y="107" width="48" height="8" fill="#02154E"/>
<rect x="245" y="84" width="48" height="8" fill="#02154E"/>
<path d="M269 106.997V92H293V107H269V106.997Z" fill="#D61233"/>
</svg>
