<svg width="399" height="200" viewBox="0 0 399 200" fill="none" xmlns="http://www.w3.org/2000/svg">
<path fill-rule="evenodd" clip-rule="evenodd" d="M206.85 67.9543C206.535 66.8863 207.452 66.195 207.618 65.2555C205.547 63.1603 207.382 60.1919 207.252 57.6707C207.435 56.6135 206.745 55.7938 206.924 54.8243C207.228 54.0709 208.118 53.6429 208.939 53.6001C209.871 53.2876 210.959 53.339 211.729 52.6456C211.659 52.1106 210.91 52.3481 210.516 52.1833C207.377 50.1437 203.026 49.5209 199.165 50.3663C194.59 52.1405 189.56 52.759 184.806 54.0538C184.386 54.2208 184.288 54.6274 184.329 55.0554C184.548 55.5648 185.082 55.6247 185.546 55.7125C189.623 59.0447 195.637 55.3123 199.972 58.0859C200.349 58.5889 200.366 59.2117 200.323 59.8644C198.799 62.1972 200.251 64.9495 200.368 67.4428C200.017 68.7012 198.699 69.6364 197.606 70.2956L197.601 70.5482C199.293 72.1383 198.184 74.5974 198.897 76.5663C199.495 77.844 199.885 79.1945 200.683 80.3972C203.651 81.829 202.853 87.9863 203.443 90.6744L203.63 90.7364C203.958 88.6904 204.183 83.9392 204.777 81.9981L205.173 81.5016C207.156 80.6091 207.226 78.4497 208.033 76.821C208.773 75.9799 208.573 74.6337 208.544 73.5444C208.569 72.378 209.027 71.3764 209.384 70.3406C208.703 69.431 207.573 68.9024 206.85 67.9543V67.9543ZM206.85 64.9174C206.892 65.5016 206.801 66.0452 206.367 66.4262C205.332 67.4963 203.619 67.4599 202.236 67.1003C201.83 66.7814 201.247 66.4754 201.102 65.9404C200.757 65.3497 201.43 64.9259 201.842 64.6905C203.202 64.5129 204.743 64.7205 205.907 64.0142C206.379 64.0913 206.701 64.5064 206.85 64.9174V64.9174ZM196.335 56.438C193.098 55.6911 189.349 57.7927 186.84 55.3593C186.889 54.8842 186.94 54.3 187.5 54.1758C190.428 53.476 193.339 52.7077 196.295 52.0785C197.561 52.2111 198.467 54.4562 199.885 53.0372C200.625 52.6927 200.004 51.1132 201.204 51.614C201.519 51.7275 201.802 51.9179 202.16 51.9436C203.045 51.6012 201.689 51.0683 202.255 50.5547C202.83 50.5953 203.485 50.4541 203.851 50.9656C203.922 51.4236 203.402 51.7168 203.63 52.1683C204.628 51.2844 206.124 50.8864 207.38 51.4856C207.965 51.965 208.767 52.0785 209.22 52.7184C209.15 53.1443 208.597 53.2106 208.244 53.3305C207.441 53.3347 206.869 52.8275 206.199 52.53C206.041 52.575 205.858 52.6691 205.807 52.8339C205.781 53.0865 206.13 53.4717 205.732 53.5916C205.475 53.5274 204.922 53.3904 204.886 53.7692C204.973 54.4904 205.818 54.8478 206.269 55.3722C206.862 56.9495 206.843 58.9249 206.041 60.4166C205.256 61.11 204.109 61.309 203.066 60.988C202.298 60.2625 200.698 59.9671 200.996 58.5525C200.751 57.8847 201.304 57.4011 201.668 56.9217C201.642 56.7654 201.755 56.5643 201.551 56.4722C200.046 57.7585 198.04 56.5193 196.335 56.438V56.438ZM200.378 63.4642C199.995 62.7173 200.204 61.8077 200.625 61.1335C200.701 61.0981 200.782 61.0784 200.866 61.0758C200.949 61.0732 201.032 61.0877 201.109 61.1183C201.187 61.1489 201.257 61.1951 201.316 61.254C201.375 61.313 201.422 61.3834 201.453 61.461C201.523 61.8719 200.991 62.026 200.859 62.3342C201.038 62.912 201.691 63.3829 201.4 64.0485C200.998 64.1662 200.5 63.8751 200.378 63.4642V63.4642ZM199.429 72.1597C199.042 71.706 198.638 71.0832 198.821 70.4454C200.019 69.3903 201.704 69.5508 203.226 69.3304L204.443 69.3561C203.007 70.5411 201.378 71.4685 199.629 72.0977C199.561 72.0934 199.472 72.0827 199.429 72.1597ZM204.856 80.8595C203.941 81.1035 202.894 80.8981 202.1 80.4829C201.991 80.3737 202.055 80.1789 202.038 80.0441C202.832 78.5909 204.694 80.1747 205.292 78.5246C205.588 78.0345 206.016 77.4395 206.605 77.2276L206.788 77.4845C206.584 78.8028 206.052 80.134 204.856 80.8595V80.8595ZM204.398 75.1602C203.888 75.4513 203.587 76.0184 203.143 76.3416C202.179 76.5257 201.251 76.8189 200.483 77.4845C200.166 77.4588 199.876 77.1121 199.791 76.8381C199.48 76.1233 200.134 75.6011 200.657 75.2116C202.594 74.073 205.075 73.9981 206.513 71.8579C206.975 71.7317 207.769 71.0468 208.005 71.7616C208.014 73.7049 205.681 74.2228 204.398 75.1602V75.1602ZM199.563 51.6868C200 52.1341 199.568 52.6841 199.293 52.8018C199.502 52.2967 199.521 51.9072 199.204 51.7061C199.368 51.6119 199.414 51.6354 199.563 51.6868ZM19.6778 143.353C19.6778 147.002 19.4394 148.085 23.5401 148.085C24.0743 148.085 25.0872 148.027 25.0872 148.765C25.0872 149.392 24.6105 149.506 24.0764 149.506C21.8186 149.506 19.6778 149.281 17.42 149.281C15.1621 149.281 12.9022 149.506 10.6422 149.506C10.1081 149.506 9.63141 149.392 9.63141 148.765C9.63141 148.025 10.5826 148.085 11.1168 148.085C15.2792 148.085 14.9812 146.944 14.9812 143.353V116.973C14.9812 114.92 14.2088 115.318 12.3659 115.318C6.95649 115.318 4.75825 115.832 1.90458 120.393C1.66624 120.791 1.19169 121.76 0.595845 121.76C0.178753 121.76 0 121.476 0 121.076C0 120.677 0.238338 119.993 0.357507 119.708L2.67492 112.301C2.79409 111.898 2.91326 111.503 3.44739 111.503C3.80277 111.503 3.98152 111.787 3.98152 112.13C4.04111 112.639 3.98152 112.981 4.45607 113.326C5.22854 113.953 6.47769 113.782 7.42891 113.782H29.007C30.552 113.782 32.0394 114.066 32.6332 112.474C32.8119 112.018 32.9311 111.505 33.5248 111.505C34.3568 111.505 34.0589 113.155 34.0589 113.557L33.7014 120.508C33.7014 120.964 33.6418 121.478 32.9885 121.478C32.5714 121.478 32.4544 121.018 32.3352 120.68C31.9181 119.479 31.5032 117.887 30.6115 116.804C29.3028 115.321 27.6408 115.321 25.7958 115.321H22.3484C19.6735 115.321 19.6735 115.207 19.6735 118.114V143.353H19.6778V143.353ZM69.9926 131.973C69.9926 131.973 71.4971 133.486 72.4994 134.961C76.9534 141.052 78.3706 147.312 85.9613 149.043C80.9498 150.912 76.366 148.754 73.0719 144.864C69.7777 140.977 67.9689 137.088 67.9689 137.088C65.926 133.097 65.9813 132.641 61.67 132.641C61.2146 132.641 60.7038 132.588 60.4208 132.926C60.0803 133.328 60.1357 134.693 60.1357 135.207V143.35C60.1357 146.999 59.9101 148.025 63.8256 148.082C64.3364 148.082 65.3004 148.025 65.3004 148.763C65.3004 149.39 64.8471 149.503 64.3342 149.503C62.1786 149.503 60.1335 149.279 57.9778 149.279C55.8222 149.279 53.6643 149.503 51.5087 149.503C50.9979 149.503 50.5447 149.39 50.5447 148.763C50.5447 148.022 51.4512 148.082 51.9641 148.082C55.9371 148.082 55.6519 146.942 55.6519 143.35V120.046C55.6519 116.397 55.9349 115.314 51.9641 115.314C51.4533 115.314 50.5447 115.314 50.5447 114.634C50.5447 114.007 50.9426 113.778 51.5661 113.778C53.3835 113.778 55.3114 114.007 57.1266 114.007C60.4187 114.007 63.5979 113.778 66.8325 113.778C72.2228 113.778 77.5599 116.457 77.5599 122.439C77.5599 127.522 74.5742 129.889 69.9926 131.973V131.973ZM60.1357 130.092C60.1357 131.517 62.0658 131.119 63.0298 131.119C65.6408 131.119 67.9668 130.89 70.1246 129.238C71.9972 127.813 72.7356 125.343 72.7356 123.064C72.7356 117.822 69.6138 114.972 64.5641 114.972C60.2506 114.972 60.1357 115.545 60.1357 119.532V130.092V130.092ZM299.274 131.973C299.274 131.973 300.774 133.486 301.781 134.961C306.232 141.052 307.65 147.312 315.242 149.043C310.231 150.912 305.645 148.754 302.349 144.864C300.345 142.487 298.633 139.877 297.25 137.088C295.205 133.097 295.262 132.641 290.949 132.641C290.496 132.641 289.985 132.588 289.702 132.926C289.361 133.328 289.415 134.693 289.415 135.207V143.35C289.415 146.999 289.191 148.025 293.105 148.082C293.615 148.082 294.579 148.025 294.579 148.763C294.579 149.39 294.126 149.503 293.615 149.503C291.458 149.503 289.413 149.279 287.257 149.279C285.101 149.279 282.948 149.503 280.79 149.503C280.279 149.503 279.826 149.39 279.826 148.763C279.826 148.022 280.732 148.082 281.243 148.082C285.216 148.082 284.933 146.942 284.933 143.35V120.046C284.933 116.397 285.216 115.314 281.243 115.314C280.732 115.314 279.826 115.314 279.826 114.634C279.826 114.007 280.222 113.778 280.847 113.778C282.665 113.778 284.593 114.007 286.408 114.007C289.7 114.007 292.875 113.778 296.114 113.778C301.504 113.778 306.837 116.457 306.837 122.439C306.837 127.522 303.853 129.889 299.274 131.973ZM289.415 130.092C289.415 131.517 291.347 131.119 292.311 131.119C294.922 131.119 297.248 130.89 299.406 129.238C301.276 127.813 302.017 125.343 302.017 123.064C302.017 117.822 298.895 114.972 293.841 114.972C289.532 114.972 289.415 115.545 289.415 119.532V130.092V130.092ZM129.588 122.268C129.588 120.9 129.647 117.765 128.934 116.628C128.222 115.374 126.734 115.316 125.368 115.316C124.834 115.316 123.763 115.374 123.763 114.576C123.763 113.949 124.417 113.778 125.013 113.778C126.796 113.778 128.579 114.007 130.362 114.007C131.907 114.007 133.452 113.778 134.999 113.778C135.476 113.778 136.248 113.835 136.248 114.522C136.248 115.316 134.88 115.316 134.346 115.316C130.958 115.316 131.373 117.482 131.254 120.102V132.166C131.254 137.538 131.194 141.568 127.983 145.512C125.013 149.125 120.731 149.964 116.809 149.964C113.302 149.964 108.665 149.123 105.752 146.101C102.126 142.574 102.245 137.703 102.245 132.164V119.988C102.245 116.397 102.543 115.314 98.3825 115.314C97.8484 115.314 96.895 115.314 96.895 114.574C96.895 113.947 97.3121 113.775 97.908 113.775C100.166 113.775 102.307 114.004 104.564 114.004C106.822 114.004 109.082 113.775 111.34 113.775C111.876 113.775 112.353 113.947 112.353 114.574C112.353 115.314 111.34 115.314 110.806 115.314C106.643 115.314 106.941 116.397 106.941 119.988V129.478C106.941 133.174 106.822 139.301 108.188 142.407C110.031 146.687 114.549 147.862 117.818 147.862C121.208 147.862 125.01 146.77 127.447 143.331C129.647 140.142 129.588 136.363 129.588 132.166V122.268V122.268ZM161.402 131.473C157.514 129.621 153.709 127.246 153.99 122.096C154.32 116.014 159.712 112.312 165.068 112.312C167.198 112.312 170.346 112.716 172.32 113.587C173.338 113.992 173.189 114.687 173.189 115.727C173.161 117.232 173.189 118.736 173.161 120.241C173.14 120.645 172.906 120.939 172.523 120.939C171.923 120.939 171.863 120.01 171.723 119.605C170.737 115.614 169.216 113.469 164.953 113.469C161.348 113.469 157.799 115.438 157.569 119.665C157.299 124.643 163.198 126.67 166.66 128.292C168.416 129.157 170.646 130.375 171.874 131.879C173.357 133.73 174.257 136.281 174.121 138.768C173.944 142.013 172.312 144.904 169.85 146.991C167.275 149.131 164.113 150 160.944 150C158.267 150 155.032 149.189 152.817 147.742C151.923 147.106 152.17 145.544 152.228 144.498C152.311 142.993 152.389 141.546 152.634 140.042C152.715 139.577 152.917 138.884 153.517 138.884C154.226 138.884 154.149 140.331 154.179 140.795C154.456 145.773 156.797 148.9 161.77 148.9C165.868 148.9 170.071 145.944 170.32 141.371C170.573 136.744 167.745 134.482 164.125 132.748L161.402 131.473V131.473ZM201.596 131.473C197.708 129.621 193.903 127.246 194.184 122.096C194.516 116.014 199.906 112.312 205.262 112.312C207.394 112.312 210.54 112.716 212.514 113.587C213.53 113.992 213.383 114.687 213.383 115.727C213.353 117.232 213.383 118.736 213.353 120.241C213.332 120.645 213.095 120.939 212.712 120.939C212.114 120.939 212.055 120.01 211.914 119.605C210.929 115.614 209.403 113.469 205.143 113.469C201.536 113.469 197.987 115.438 197.757 119.665C197.486 124.643 203.385 126.67 206.848 128.292C208.605 129.157 210.833 130.375 212.063 131.879C213.547 133.73 214.445 136.281 214.313 138.768C214.134 142.013 212.5 144.904 210.04 146.991C207.463 149.131 204.305 150 201.132 150C198.457 150 195.22 149.189 193.005 147.742C192.111 147.106 192.358 145.544 192.415 144.498C192.498 142.993 192.577 141.546 192.822 140.042C192.903 139.577 193.105 138.884 193.705 138.884C194.416 138.884 194.337 140.331 194.367 140.795C194.643 145.773 196.986 148.9 201.96 148.9C206.058 148.9 210.259 145.944 210.51 141.371C210.763 136.744 207.933 134.482 204.313 132.748L201.596 131.473V131.473ZM330.083 112.868H343.513C348.982 112.868 354.332 114.122 358.792 117.311C363.31 120.56 366.283 125.688 366.283 131.16C366.277 133.768 365.705 136.343 364.607 138.706C363.509 141.068 361.911 143.161 359.924 144.838C355.464 148.54 350.231 149.508 344.466 149.508C340.07 149.508 335.667 149.283 331.39 149.283C330.081 149.283 328.892 149.508 327.64 149.508C327.108 149.508 326.629 149.283 326.629 148.714C326.629 147.969 327.581 148.087 328.176 148.087C332.337 148.087 332.041 146.833 332.041 143.184V118.897C332.041 117.187 332.399 114.85 330.079 114.85C327.832 114.848 327.845 112.868 330.083 112.868V112.868ZM336.738 142.156C336.738 147.226 337.927 148.423 343.096 148.423C348.088 148.423 352.31 147.511 355.939 143.92C359.148 140.671 360.871 136.117 360.871 131.672C360.871 121.071 353.262 114.178 342.5 114.178C341.253 114.178 338.282 114.291 337.389 115.143C336.674 115.828 336.735 117.596 336.735 118.507V142.156H336.738V142.156ZM388.018 119.99C388.018 116.399 388.319 115.316 384.158 115.316C383.622 115.316 382.671 115.316 382.671 114.576C382.671 113.949 383.086 113.778 383.682 113.778C385.942 113.778 388.082 114.007 390.34 114.007C392.6 114.007 394.858 113.778 397.12 113.778C397.652 113.778 398.131 113.949 398.131 114.576C398.131 115.316 397.12 115.316 396.584 115.316C392.423 115.316 392.719 116.399 392.719 119.99V143.353C392.719 147.002 392.483 148.027 396.584 148.085C397.12 148.085 398.131 148.027 398.131 148.765C398.131 149.392 397.652 149.506 397.12 149.506C394.86 149.506 392.719 149.281 390.461 149.281C388.202 149.281 385.944 149.506 383.682 149.506C383.15 149.506 382.671 149.392 382.671 148.765C382.671 148.025 383.622 148.085 384.158 148.085C388.319 148.085 388.018 146.944 388.018 143.353V119.99ZM264.357 148.085C261.572 148.085 260.695 144.778 259.844 142.554L249.133 113.951C249.029 113.608 248.823 112.868 248.369 112.868C247.742 112.868 246.112 114.31 245.931 114.766L235.601 142.672C235.174 143.755 234.08 146.375 233.32 147.175C232.556 147.969 231.471 148.087 230.447 148.087C229.937 148.087 228.856 148.087 228.83 148.881C228.804 149.85 230.294 149.508 230.862 149.508C232.454 149.508 234.054 149.283 235.65 149.283C237.242 149.283 238.83 149.508 240.421 149.508C240.992 149.508 241.79 149.508 241.805 148.827C241.83 148.029 240.858 148.087 240.345 148.087C239.036 148.087 236.538 147.915 236.591 146.034C236.616 145.009 237.102 143.811 237.472 142.899L240.34 135.509H252.285L255.032 143.584C255.298 144.324 255.777 145.578 255.756 146.377C255.711 148.087 253.545 148.087 252.066 148.087C251.496 148.087 250.417 148.087 250.395 148.938C250.378 149.452 250.949 149.508 251.289 149.508C253.396 149.508 255.562 149.283 257.611 149.283C260.114 149.283 262.612 149.508 265.117 149.508C265.4 149.508 265.968 149.454 265.985 148.938C266.011 148.085 264.925 148.085 264.357 148.085V148.085ZM241.347 132.911L245.769 121.516C245.895 121.232 246.331 119.806 246.784 119.806C247.129 119.806 247.712 122.126 247.818 122.355L251.406 132.911H241.347V132.911Z" fill="black"/>
</svg>
