<svg width="94" height="94" viewBox="0 0 94 94" fill="none" xmlns="http://www.w3.org/2000/svg">
<path d="M92.4839 0H16.6774C15.8387 0 15.1613 0.679593 15.1613 1.51613V57.7706C14.6683 57.6706 14.1619 57.6129 13.6452 57.6129C9.46544 57.6129 6.06452 61.0138 6.06452 65.1936V65.2254C4.5817 66.341 3.57193 67.9541 3.19882 69.7419H1.51613C0.677372 69.7419 0 70.4215 0 71.2581V77.3226C0 78.1591 0.677372 78.8387 1.51613 78.8387H3.03226V83.3871C3.03226 89.2391 7.79459 94 13.6452 94H92.4839C93.3226 94 94 93.3204 94 92.4839V1.51613C94 0.679593 93.3226 0 92.4839 0ZM90.9677 3.03226V18.1935H18.1935V3.03226H90.9677ZM8.40386 67.3115C8.94205 67.008 9.24409 66.4091 9.16488 65.7954L9.14045 65.6192C9.1212 65.48 9.09677 65.3409 9.09677 65.1936C9.09677 62.6862 11.1378 60.6452 13.6452 60.6452C15.2464 60.6452 16.7004 61.4802 17.5354 62.8816C17.7627 63.2636 18.1484 63.5271 18.5874 63.6004C19.0286 63.6759 19.478 63.5501 19.8185 63.2606C20.41 62.7587 21.3953 62.1613 22.7419 62.1613C24.3639 62.1613 25.8756 63.057 26.687 64.4991C27.0023 65.0633 27.6449 65.3631 28.2757 65.2498C29.8584 64.9678 31.4797 66.0545 31.781 67.6647C31.889 68.2406 32.3192 68.7048 32.8877 68.8536C33.4592 69.0053 34.0566 68.8092 34.4357 68.3591C35.3107 67.3115 36.5751 66.7097 37.9032 66.7097C39.8769 66.7097 41.5447 67.9815 42.1725 69.7419H6.36804C6.73597 68.7381 7.43036 67.8586 8.40386 67.3115ZM28.8065 53.0645C28.8065 38.8523 40.3684 27.2903 54.5806 27.2903C68.7929 27.2903 80.3548 38.8523 80.3548 53.0645C80.3548 67.2767 68.7929 78.8387 54.5806 78.8387C52.4412 78.8387 50.3491 78.5507 48.3118 78.0399C48.431 77.823 48.5161 77.5861 48.5161 77.3226V74.9847C50.4809 75.5274 52.5108 75.8064 54.5806 75.8064C67.1205 75.8064 77.3226 65.6044 77.3226 53.0645C77.3226 40.5246 67.1205 30.3226 54.5806 30.3226C42.0407 30.3226 31.8387 40.5246 31.8387 53.0645C31.8387 57.0614 32.8773 60.9169 34.8377 64.3415C34.4979 64.4947 34.1677 64.6687 33.8538 64.8723C33.0846 63.7137 31.9298 62.8572 30.5928 62.4419C29.4239 59.4548 28.8065 56.3092 28.8065 53.0645ZM37.9913 63.6863C36.7846 61.8082 35.9066 59.7627 35.3988 57.6129H36.3871C37.7685 57.6129 39.0692 57.0747 40.0471 56.0968L40.9355 55.2099C41.7468 54.3985 43.1564 54.3985 43.9677 55.2099L44.8561 56.0968C46.8134 58.0512 50.2188 58.0526 52.1762 56.0968L53.0645 55.2099C53.8759 54.3985 55.2854 54.3985 56.0968 55.2099L56.9851 56.0968C58.9425 58.0512 62.3478 58.0526 64.3052 56.0968L65.1936 55.2099C66.0049 54.3985 67.4144 54.3985 68.2258 55.2099L69.1142 56.0968C70.0936 57.0747 71.3928 57.6129 72.7742 57.6129H73.7403C71.6778 66.2914 63.8803 72.7742 54.5806 72.7742C52.5004 72.7742 50.469 72.4344 48.5161 71.8022V71.2581C48.5161 70.4215 47.8388 69.7419 47 69.7419H45.3306C44.6318 66.3136 41.6114 63.7292 37.9913 63.6863ZM34.871 53.0645C34.871 42.1969 43.7131 33.3548 54.5806 33.3548C65.4482 33.3548 74.2903 42.1969 74.2903 53.0645C74.2903 53.5768 74.2526 54.0787 74.2133 54.5806H72.7742C72.2012 54.5806 71.6645 54.3578 71.2581 53.9529L70.3697 53.0645C68.4124 51.1101 65.007 51.1087 63.0496 53.0645L62.1613 53.9514C61.3499 54.7628 59.9404 54.7628 59.129 53.9514L58.2407 53.0645C56.2833 51.1101 52.878 51.1087 50.9206 53.0645L50.0323 53.9514C49.2209 54.7628 47.8114 54.7628 47 53.9514L46.1116 53.0645C44.1543 51.1101 40.7489 51.1087 38.7916 53.0645L37.9032 53.9514C37.4968 54.3578 36.9601 54.5806 36.3871 54.5806H34.9287C34.891 54.0787 34.871 53.5724 34.871 53.0645ZM3.03226 72.7742H45.4839V75.8064H3.03226V72.7742ZM33.3548 90.9677H13.6452C9.46544 90.9677 6.06452 87.5668 6.06452 83.3871V78.8387H42.4516V83.3871C42.4516 87.5668 39.0507 90.9677 34.871 90.9677H33.3548ZM42.2836 90.9677C44.2557 89.0393 45.4839 86.3557 45.4839 83.3871V80.3793C48.4073 81.3542 51.4544 81.871 54.5806 81.871C70.4652 81.871 83.3871 68.9491 83.3871 53.0645C83.3871 37.18 70.4652 24.2581 54.5806 24.2581C38.6961 24.2581 25.7742 37.18 25.7742 53.0645C25.7742 55.5312 26.1155 57.9416 26.7233 60.2876C25.544 59.5473 24.1714 59.129 22.7419 59.129C21.5034 59.129 20.2782 59.4459 19.1818 60.0418C18.8805 59.7146 18.5422 59.4326 18.1935 59.1653V21.2258H90.9677V90.9677H42.2836Z" fill="white"/>
<path d="M25.774 15.1612C28.2814 15.1612 30.3224 13.1202 30.3224 10.6128C30.3224 8.10545 28.2814 6.06445 25.774 6.06445C23.2666 6.06445 21.2256 8.10545 21.2256 10.6128C21.2256 13.1202 23.2666 15.1612 25.774 15.1612ZM25.774 9.09671C26.6105 9.09671 27.2901 9.77778 27.2901 10.6128C27.2901 11.4479 26.6105 12.129 25.774 12.129C24.9374 12.129 24.2578 11.4479 24.2578 10.6128C24.2578 9.77778 24.9374 9.09671 25.774 9.09671Z" fill="white"/>
<path d="M37.9034 15.1612C40.4108 15.1612 42.4518 13.1202 42.4518 10.6128C42.4518 8.10545 40.4108 6.06445 37.9034 6.06445C35.396 6.06445 33.355 8.10545 33.355 10.6128C33.355 13.1202 35.396 15.1612 37.9034 15.1612ZM37.9034 9.09671C38.7399 9.09671 39.4195 9.77778 39.4195 10.6128C39.4195 11.4479 38.7399 12.129 37.9034 12.129C37.0668 12.129 36.3872 11.4479 36.3872 10.6128C36.3872 9.77778 37.0668 9.09671 37.9034 9.09671Z" fill="white"/>
<path d="M50.0323 15.1612C52.5397 15.1612 54.5807 13.1202 54.5807 10.6128C54.5807 8.10545 52.5397 6.06445 50.0323 6.06445C47.5249 6.06445 45.4839 8.10545 45.4839 10.6128C45.4839 13.1202 47.5249 15.1612 50.0323 15.1612ZM50.0323 9.09671C50.8688 9.09671 51.5484 9.77778 51.5484 10.6128C51.5484 11.4479 50.8688 12.129 50.0323 12.129C49.1957 12.129 48.5161 11.4479 48.5161 10.6128C48.5161 9.77778 49.1957 9.09671 50.0323 9.09671Z" fill="white"/>
<path d="M84.9033 12.1289H87.9356V15.1612H84.9033V12.1289Z" fill="white"/>
<path d="M84.9033 6.06445H87.9356V9.09671H84.9033V6.06445Z" fill="white"/>
<path d="M78.8389 12.1289H81.8711V15.1612H78.8389V12.1289Z" fill="white"/>
<path d="M78.8389 6.06445H81.8711V9.09671H78.8389V6.06445Z" fill="white"/>
<path d="M72.7744 12.1289H75.8067V15.1612H72.7744V12.1289Z" fill="white"/>
<path d="M72.7744 6.06445H75.8067V9.09671H72.7744V6.06445Z" fill="white"/>
<path d="M66.7095 12.1289H69.7417V15.1612H66.7095V12.1289Z" fill="white"/>
<path d="M66.7095 6.06445H69.7417V9.09671H66.7095V6.06445Z" fill="white"/>
</svg>
