<svg width="229" height="200" viewBox="0 0 229 200" fill="none" xmlns="http://www.w3.org/2000/svg">
<path d="M45.1164 116.868C45.1164 120.305 42.115 123.093 39.8513 123.093H14.2907L46.4428 74.0001H3.45259V82.1338H5.66208C5.66208 78.6963 7.98964 75.9104 10.2533 75.9104H32.3399L0 125.001H46.6345L46.6365 116.868H45.1164Z" fill="black"/>
<path fill-rule="evenodd" clip-rule="evenodd" d="M82.5859 123.408C85.7055 123.408 88.7379 122.173 88.0562 121.029L82.0785 109.695H61.0472L55.5653 121.06C54.9882 122.336 57.3952 123.408 59.6511 123.408V125.001H47.5176V123.408C50.6352 123.408 52.8292 122.101 53.23 121.07L76.0234 74.0001L100.898 121.029C101.694 122.266 104.026 123.408 107.848 123.408L107.842 125.001H82.5859V123.408ZM61.9613 107.857L71.0604 88.7681L81.2188 107.857H61.9613Z" fill="black"/>
<path d="M110.747 75.9715C114.448 75.9715 117.499 76.8823 117.499 77.9855C117.499 86.732 117.48 120.988 117.499 120.988C117.499 122.156 114.484 123.461 110.786 123.461L110.78 125.001H135.506V123.565C131.835 123.565 128.858 122.162 128.858 120.994V75.5366H135.986C142.853 75.5366 148.414 80.988 148.414 87.1762C148.414 93.3644 142.847 98.3809 135.98 98.3809H131.044C131.044 98.3809 147.76 122.571 147.783 122.571C148.441 123.487 148.768 125.001 148.768 125.001H166.787V123.565C163.32 123.565 161.504 122.188 160.501 120.988L144.408 100.921C152.13 100.434 158.112 94.4602 158.112 87.378C158.112 79.9773 151.462 74.0001 143.25 74.0001H110.747V75.9715Z" fill="black"/>
<path fill-rule="evenodd" clip-rule="evenodd" d="M203.538 123.461C206.657 123.461 209.69 122.173 209.006 121.029L203.03 109.695H181.999L176.517 121.06C175.94 122.336 178.345 123.565 180.601 123.565V125.001H168.469V123.461C171.587 123.461 173.781 122.101 174.18 121.07L196.975 74.0001L221.85 121.029C222.644 122.266 224.977 123.513 228.8 123.513L228.794 125.001H203.538V123.461ZM182.911 107.857L192.012 88.7681L202.17 107.857H182.911Z" fill="black"/>
</svg>
